<svg width="16" height="17" viewBox="0 0 16 17" fill="none" xmlns="http://www.w3.org/2000/svg">
<path d="M1.5 4.18945H14.5C14.7762 4.18945 15 3.96561 15 3.68945V2.43945C15 2.1633 14.7762 1.93945 14.5 1.93945H1.5C1.22384 1.93945 1 2.1633 1 2.43945V3.68945C1 3.96561 1.22384 4.18945 1.5 4.18945ZM1.5 9.18945H14.5C14.7762 9.18945 15 8.96561 15 8.68945V7.43945C15 7.1633 14.7762 6.93945 14.5 6.93945H1.5C1.22384 6.93945 1 7.1633 1 7.43945V8.68945C1 8.96561 1.22384 9.18945 1.5 9.18945ZM1.5 14.1895H14.5C14.7762 14.1895 15 13.9656 15 13.6895V12.4395C15 12.1633 14.7762 11.9395 14.5 11.9395H1.5C1.22384 11.9395 1 12.1633 1 12.4395V13.6895C1 13.9656 1.22384 14.1895 1.5 14.1895Z" fill="#080807"/>
</svg>
