<svg width="60" height="60" viewBox="0 0 60 60" fill="none" xmlns="http://www.w3.org/2000/svg">
<path d="M1.21094 28.2091C1.48994 27.5536 1.47494 26.8381 1.63244 26.1571C3.32144 18.7891 9.35594 13.2976 16.8589 12.4126C21.5224 11.8636 25.7704 13.0126 29.5519 15.8071C29.9074 16.0696 30.1039 16.0486 30.4519 15.7966C40.9759 8.07915 55.6789 13.7146 58.4404 26.4361C58.5679 27.0256 58.5514 27.6361 58.7929 28.2091V31.9126C58.4854 32.5381 58.5109 33.2371 58.3624 33.8971C57.5257 37.5727 55.5405 40.8865 52.6945 43.3585C49.8485 45.8304 46.2895 47.3321 42.5329 47.6461C38.0539 48.0196 34.0129 46.8301 30.4039 44.1751C30.0949 43.9456 29.9134 43.9336 29.5984 44.1751C19.1749 51.9301 4.28894 46.3231 1.57244 33.6271C1.44944 33.0556 1.48544 32.4511 1.21094 31.9126V28.2091ZM46.6954 44.9851C48.311 44.3937 49.8167 43.537 51.1504 42.4501C51.3619 42.2821 51.4129 42.1726 51.1609 42.0001C50.5924 41.6086 50.0329 41.2051 49.4734 40.8001C49.2754 40.6501 49.1734 40.6771 49.0654 40.9201C48.4549 42.3721 47.5954 43.6771 46.6279 44.9116C46.5829 44.9296 46.5214 44.9461 46.5649 45.0061C46.5754 45.0241 46.6504 45.0001 46.6954 44.9851ZM35.4214 23.0221C35.3944 23.0011 35.3554 22.9591 35.3434 22.9651C35.2804 22.9996 35.3014 23.0521 35.3314 23.1016C36.0499 24.9181 36.5584 26.7841 36.6589 28.7461C36.6724 28.9996 36.7279 29.1646 37.0444 29.1586C37.9804 29.1421 38.9179 29.1496 39.8554 29.1586C40.0804 29.1586 40.2019 29.1031 40.2019 28.8451C40.1939 27.2921 40.1939 25.7396 40.2019 24.1876C40.2019 23.9536 40.1224 23.8516 39.8794 23.8441C38.3524 23.7931 36.8839 23.4196 35.4214 23.0221ZM35.0254 29.5996C34.6774 20.5771 27.2704 13.6381 18.3499 13.9786C9.47894 14.3161 2.59994 21.7786 2.91194 30.7156C3.22244 39.3991 10.7704 46.3501 19.5514 46.0291C28.3069 45.7126 35.3584 38.2276 35.0254 29.5996ZM54.1504 30.8566C53.3074 30.8566 52.4659 30.8716 51.6244 30.8491C51.2779 30.8401 51.1744 30.9661 51.1654 31.2991C51.1016 33.8011 50.6829 36.2814 49.9219 38.6656C49.8349 38.9356 49.8754 39.0931 50.1439 39.2446C50.9124 39.6706 51.6322 40.1791 52.2904 40.7611C52.5904 41.0251 52.7404 40.9966 52.9939 40.7071C55.3789 37.9981 56.7439 34.8571 57.0529 31.2571C57.0829 30.9181 56.9899 30.8386 56.6749 30.8446C55.8289 30.8656 54.9874 30.8566 54.1504 30.8566ZM54.1324 29.1526C54.9739 29.1526 55.8154 29.1376 56.6569 29.1526C57.0169 29.1616 57.0949 29.0521 57.0514 28.7026C56.9704 28.0546 56.9014 27.4051 56.7694 26.7646C56.2203 24.1225 55.0154 21.661 53.2654 19.6066C53.0524 19.3516 52.9234 19.3066 52.6564 19.5526C51.9227 20.2189 51.1214 20.8066 50.2654 21.3061C50.0524 21.4321 49.9909 21.5596 50.0644 21.8041C50.7384 24.0585 51.1096 26.3924 51.1684 28.7446C51.1759 29.0626 51.2974 29.1586 51.6064 29.1526C52.4434 29.1421 53.2849 29.1526 54.1279 29.1526H54.1324ZM45.7324 30.8566C44.6089 30.8566 43.4824 30.8701 42.3619 30.8491C42.0004 30.8491 41.8849 30.9406 41.8879 31.3126C41.9074 32.9761 41.9104 34.6396 41.8879 36.3031C41.8879 36.6871 42.0274 36.7531 42.3634 36.7786C44.2698 36.9098 46.1407 37.3595 47.8984 38.1091C48.2539 38.2591 48.3379 38.1466 48.4264 37.8421C49.0446 35.7057 49.4012 33.5021 49.4884 31.2796C49.5019 30.9121 49.3774 30.8446 49.0489 30.8506C47.9389 30.8671 46.8334 30.8566 45.7279 30.8566H45.7324ZM45.6874 29.1526C46.8109 29.1526 47.9374 29.1391 49.0579 29.1601C49.4059 29.1601 49.5079 29.0701 49.4869 28.7101C49.4057 26.6747 49.0998 24.6544 48.5749 22.6861C48.4774 22.3186 48.3514 22.3171 48.0409 22.4506C46.2207 23.2463 44.2733 23.7116 42.2899 23.8246C41.9614 23.8411 41.8894 23.9746 41.8909 24.2746C41.9029 25.7506 41.9104 27.2281 41.8909 28.7041C41.8909 29.0926 42.0274 29.1646 42.3739 29.1541C43.4719 29.1406 44.5774 29.1526 45.6829 29.1526H45.6874ZM40.2004 18.1081C40.2004 16.9321 40.1734 15.7561 40.2124 14.5816C40.2304 14.0551 40.0414 14.0461 39.6439 14.1901C38.8849 14.4583 38.1839 14.8686 37.5784 15.3991C36.0214 16.7626 35.0554 18.5161 34.2784 20.3941C34.1809 20.6281 34.2604 20.7106 34.4629 20.8006C36.1373 21.544 37.9247 22.0003 39.7504 22.1506C40.1539 22.1851 40.2139 22.0336 40.2094 21.6871C40.1884 20.4976 40.2004 19.3036 40.2004 18.1081ZM42.3139 22.1581C44.1322 22.0056 45.9129 21.5551 47.5849 20.8246C47.8669 20.7001 47.8849 20.5876 47.7724 20.3296C47.1409 18.8296 46.3729 17.3986 45.2764 16.1731C44.5074 15.2728 43.5183 14.5871 42.4054 14.1826C41.9809 14.0326 41.8789 14.1271 41.8834 14.5771C41.9059 16.9321 41.9014 19.2871 41.8834 21.6406C41.8819 22.0291 41.9284 22.2736 42.3124 22.1566L42.3139 22.1581ZM40.2004 42.2056C40.2004 41.0851 40.2004 39.9646 40.2004 38.8441C40.2004 38.5951 40.2004 38.4181 39.8479 38.4511C38.0779 38.6016 36.3422 39.0267 34.7029 39.7111C34.4029 39.8371 34.4119 39.9661 34.5214 40.2091C35.1424 41.5756 35.8714 42.8671 36.9109 43.9711C37.6606 44.8112 38.6098 45.4488 39.6709 45.8251C40.0504 45.9556 40.2289 45.9556 40.2094 45.4531C40.1704 44.3716 40.2004 43.2871 40.2004 42.2056ZM41.8939 42.1741C41.8939 43.2571 41.9209 44.3416 41.8819 45.4246C41.8624 45.9481 42.0529 45.9601 42.4504 45.8101C43.1006 45.5741 43.7084 45.2348 44.2504 44.8051C45.7849 43.5571 46.7614 41.9176 47.5684 40.1551C47.7259 39.8071 47.5084 39.7726 47.3119 39.6901C45.7046 39.0206 44.0026 38.6056 42.2674 38.4601C41.9584 38.4316 41.8819 38.5231 41.8849 38.8141C41.8999 39.9316 41.8924 41.0521 41.8924 42.1741H41.8939ZM34.9129 37.8001C36.5442 37.223 38.2462 36.8698 39.9724 36.7501C40.2724 36.7291 40.1959 36.5026 40.1959 36.3331C40.1959 34.6531 40.1959 32.9731 40.2049 31.2931C40.2049 30.9586 40.1179 30.8326 39.7669 30.8431C38.9254 30.8656 38.0824 30.8746 37.2424 30.8431C36.8089 30.8266 36.6424 30.9541 36.6424 31.3951C36.6111 32.1589 36.5066 32.9179 36.3304 33.6616C36.0228 35.0922 35.547 36.4814 34.9129 37.8001ZM46.6309 15.1501C47.7469 16.477 48.6405 17.9759 49.2769 19.5886C49.3804 19.8481 49.5019 19.8271 49.6849 19.6906C50.2549 19.2691 50.8204 18.8416 51.3994 18.4336C51.7189 18.2086 51.7534 18.0541 51.4204 17.7796C50.1285 16.7035 48.6818 15.8281 47.1289 15.1831C46.9819 15.1171 46.8379 15.0001 46.6309 15.1501ZM35.5009 15.0166C33.9896 15.5179 32.5748 16.2732 31.3174 17.2501L33.0004 19.0966C33.6427 17.6265 34.4841 16.2516 35.5009 15.0106V15.0166ZM33.0004 40.9141C32.4754 41.4826 31.9864 42.0196 31.4884 42.5476C31.3639 42.6796 31.3174 42.7666 31.4884 42.8956C32.7554 43.8321 34.1567 44.5715 35.6449 45.0886C34.5536 43.8417 33.6616 42.4336 33.0004 40.9141Z" fill="#7D7D7D"/>
<path d="M35.3307 23.1004C35.3007 23.0509 35.2797 22.9984 35.3427 22.9639C35.3547 22.9639 35.3937 22.9999 35.4207 23.0209L35.3307 23.1004Z" fill="#7D7D7D"/>
<path d="M46.6947 44.9851C46.6497 44.9941 46.5747 45.0241 46.5627 45.0076C46.5192 44.9476 46.5807 44.9311 46.6257 44.9131L46.6947 44.9851Z" fill="#7D7D7D"/>
<path d="M20.799 25.3319C19.563 25.3319 18.3255 25.3169 17.0895 25.3319C16.1505 25.3484 15.42 25.8944 15.1695 26.6999C15.0454 27.0952 15.049 27.5196 15.1799 27.9128C15.3108 28.3059 15.5622 28.6478 15.8985 28.8899C16.2869 29.1564 16.7528 29.2862 17.223 29.2589C18.7965 29.2589 20.373 29.2394 21.9435 29.2589C24.4095 29.2949 26.052 31.1459 25.731 33.4994C25.5 35.2499 23.976 36.5264 22.0695 36.5999C21.0495 36.6374 21.0495 36.6374 21.0495 37.6844C21.0495 38.2259 21.0345 38.7689 21.0495 39.3104C21.0615 39.6479 21.0015 39.7994 20.5995 39.7964C19.344 39.7964 19.3425 39.8099 19.3425 38.5454C19.3425 38.0414 19.3215 37.5344 19.3425 37.0319C19.3635 36.6824 19.248 36.5819 18.903 36.5939C17.517 36.6119 16.131 36.5834 14.745 36.6119C14.3235 36.6194 14.2065 36.5084 14.214 36.0839C14.235 34.9019 14.214 34.9019 15.4215 34.9019C17.613 34.9019 19.8045 34.9094 21.996 34.9019C22.962 34.9019 23.664 34.4114 23.958 33.5969C24.0925 33.2156 24.1071 32.8022 23.9998 32.4124C23.8926 32.0225 23.6686 31.6748 23.358 31.4159C22.9574 31.0991 22.4551 30.9391 21.945 30.9659C20.3715 30.9659 18.795 30.9809 17.2245 30.9659C15.246 30.9449 13.758 29.7509 13.4415 27.9659C13.0425 25.7084 14.655 23.7554 17.019 23.6489C17.655 23.6204 18.2925 23.6249 18.9285 23.6489C19.2435 23.6579 19.353 23.5679 19.344 23.2424C19.3215 22.4924 19.356 21.7424 19.329 20.9999C19.317 20.6474 19.437 20.5649 19.779 20.5619C21.0405 20.5499 21.0405 20.5379 21.0405 21.7994C21.0405 22.2494 21.0645 22.6994 21.033 23.1494C21.006 23.5334 21.1215 23.6669 21.525 23.6549C22.5165 23.6279 23.511 23.6549 24.5025 23.6384C24.8565 23.6294 24.9375 23.7404 24.9405 24.0794C24.9495 25.3454 24.9615 25.3454 23.712 25.3454L20.799 25.3319Z" fill="#FF8900"/>
<path d="M18.972 43.5271C18.954 44.4721 19.1115 44.3746 18.321 44.3371C15.3596 44.2012 12.5123 43.1548 10.1678 41.3405C7.82336 39.5262 6.09596 37.0326 5.22146 34.2001C4.85584 32.9812 4.6437 31.7215 4.58996 30.4501C4.57346 30.1366 4.61246 29.9551 4.99646 30.0001C5.38046 30.0451 5.92046 29.8891 6.18746 30.0901C6.39896 30.2401 6.30896 30.8116 6.35096 31.1956C6.97946 37.1206 11.367 41.6956 17.241 42.5476C17.6276 42.6201 18.0207 42.6528 18.414 42.6451C18.9 42.6151 19.0515 42.7951 18.9735 43.2451C18.9654 43.3389 18.9649 43.4332 18.972 43.5271Z" fill="#7D7D7D"/>
<path d="M32.486 29.9996C31.673 29.9996 31.673 29.9996 31.61 29.1971C31.124 23.0921 26.861 18.4721 20.7815 17.4731C20.3188 17.4011 19.8517 17.3605 19.3835 17.3516C19.0925 17.3516 18.9665 17.2946 18.9605 16.9556C18.938 15.6131 18.9245 15.6146 20.261 15.7241C27.182 16.2956 32.7605 21.9311 33.281 28.8776C33.281 28.9511 33.2945 29.0276 33.3005 29.1011C33.386 29.9996 33.386 29.9996 32.486 29.9996Z" fill="#7D7D7D"/>
</svg>
