<svg width="60" height="60" viewBox="0 0 60 60" fill="none" xmlns="http://www.w3.org/2000/svg">
<path d="M54.9439 19.07C54.7504 19.6355 54.7819 20.237 54.6679 20.816C53.9284 24.5915 51.9784 27.566 48.7699 29.6855C48.3784 29.9435 48.3124 30.152 48.4459 30.572C48.7174 31.421 48.9484 32.2835 49.1554 33.1505C49.2394 33.506 49.3699 33.542 49.6909 33.44C50.3509 33.2315 50.3569 33.251 50.5399 33.923L54.2044 47.4005C54.6049 48.8705 53.9839 49.9715 52.5139 50.378C51.3739 50.693 50.2294 50.9975 49.0864 51.3065C47.6134 51.704 46.5094 51.0905 46.1074 49.6205C44.8534 45.0385 43.6034 40.455 42.3574 35.87C42.2689 35.5475 42.3064 35.42 42.6574 35.3495C43.3444 35.1995 43.3399 35.1725 43.1569 34.493C42.9589 33.7565 42.7429 33.0245 42.5674 32.2835C42.4864 31.94 42.3424 31.8335 41.9809 31.8515C38.5039 31.9775 35.3809 30.9515 32.7769 28.658C28.7779 25.1435 27.2194 20.6795 28.4089 15.4955C29.6089 10.2155 33.0199 6.87946 38.2504 5.41396C38.8354 5.25046 39.4594 5.26396 40.0264 5.02246H42.8554C42.8854 5.12596 42.9739 5.10796 43.0519 5.11846C49.0519 5.89696 53.5954 10.235 54.6904 16.202C54.7939 16.766 54.7579 17.3495 54.9514 17.8985L54.9439 19.07ZM53.4004 18.488C53.4071 15.3169 52.1539 12.273 49.9164 10.026C47.6789 7.77891 44.6404 6.51272 41.4694 6.50596C38.2983 6.4992 35.2544 7.75241 33.0074 9.98991C30.7603 12.2274 29.4941 15.2659 29.4874 18.437C29.4709 25.0505 34.8304 30.389 41.4994 30.401C48.0424 30.4145 53.3914 25.0595 53.4004 18.488ZM48.3124 49.988C48.3604 49.9805 48.4099 49.976 48.4624 49.964C49.7449 49.616 51.0304 49.277 52.3099 48.914C52.7854 48.779 52.9609 48.425 52.8259 47.9255C51.6919 43.7495 50.5459 39.575 49.4239 35.3945C49.3339 35.06 49.2064 35.0945 48.9544 35.162C47.4709 35.5745 45.9859 35.9885 44.4934 36.362C44.0929 36.464 44.0794 36.6125 44.1769 36.962C44.8309 39.3035 45.4579 41.654 46.0969 44C46.5769 45.767 47.0629 47.534 47.5414 49.3025C47.6464 49.706 47.8759 49.958 48.3139 49.9805L48.3124 49.988ZM46.8724 30.7505C46.8304 30.7625 46.7989 30.7685 46.7689 30.7805C45.9067 31.1511 45.0084 31.4311 44.0884 31.616C43.9054 31.652 43.9144 31.757 43.9549 31.901C44.2039 32.788 44.4484 33.6765 44.6884 34.5665C44.7304 34.7165 44.7739 34.787 44.9509 34.7375C45.8369 34.4865 46.7254 34.243 47.6164 34.007C47.8054 33.9575 47.8444 33.8705 47.7949 33.695C47.5399 32.776 47.2899 31.8565 47.0449 30.9365C47.0134 30.839 46.9939 30.7385 46.8724 30.7505Z" fill="#7D7D7D"/>
<path d="M5.07014 37.3367C5.07014 31.6637 5.07914 25.9907 5.05664 20.3177C5.05664 19.8032 5.20664 19.6982 5.67464 19.7177C6.42464 19.7567 7.17464 19.7177 7.92464 19.7342C8.22464 19.7432 8.31614 19.6412 8.30564 19.3457C8.28614 18.7127 8.32214 18.0767 8.29064 17.4437C8.27264 17.0792 8.37914 16.9847 8.74064 16.9937C11.3581 17.0102 13.9756 16.9937 16.5916 17.0132C16.7892 17.022 16.9863 16.9861 17.1681 16.9082C17.3499 16.8303 17.5118 16.7124 17.6416 16.5632C18.5566 15.6152 19.5001 14.7002 20.4271 13.7612C20.5051 13.6704 20.6021 13.598 20.7113 13.549C20.8204 13.5 20.939 13.4756 21.0586 13.4777C22.8306 13.4917 24.6026 13.4917 26.3746 13.4777C26.6866 13.4777 26.7856 13.5542 26.7856 13.8797C26.7856 14.9492 26.7961 14.9492 25.7236 14.9492C24.5536 14.9492 23.3821 14.9642 22.2121 14.9402C21.8506 14.9402 21.7531 15.0227 21.7546 15.3902C21.7726 18.0062 21.7546 20.6237 21.7756 23.2412C21.7756 23.6597 21.6511 23.7437 21.2566 23.7407C18.6571 23.7227 16.0561 23.7407 13.4566 23.7227C13.0846 23.7227 12.9706 23.8037 12.9706 24.1967C12.9846 31.7217 12.9846 39.2477 12.9706 46.7747C12.9706 47.1362 13.0366 47.2652 13.4386 47.2637C22.0536 47.2517 30.6686 47.2517 39.2836 47.2637C39.6616 47.2637 39.7336 47.1542 39.7336 46.8017C39.7186 43.9082 39.7336 41.0147 39.7156 38.1212C39.7156 37.7192 39.8131 37.6007 40.2226 37.6142C41.1886 37.6442 41.1901 37.6217 41.1901 38.5772C41.1901 41.7962 41.1811 45.0137 41.2006 48.2327C41.2006 48.6497 41.0851 48.7457 40.6876 48.7277C39.9256 48.6947 39.1606 48.7352 38.3971 48.7112C38.0671 48.7007 37.9471 48.7727 37.9606 49.1282C37.9876 50.0387 37.9606 50.9492 37.9756 51.8597C37.9756 52.1597 37.9096 52.2497 37.6021 52.2407C36.7726 52.2182 35.9431 52.2407 35.1151 52.2257C34.8061 52.2167 34.7311 52.3112 34.7416 52.6067C34.7641 53.2247 34.7116 53.8457 34.7611 54.4592C34.7971 54.9212 34.6201 54.9842 34.2181 54.9737C33.1291 54.9482 32.0401 54.9647 30.9511 54.9647C22.4991 54.9647 14.0491 54.9682 5.60114 54.9752C5.17664 54.9752 5.06864 54.8822 5.07014 54.4487C5.08014 48.7497 5.08014 43.0457 5.07014 37.3367ZM15.7501 18.4667C13.8301 18.4667 12.0616 18.4862 10.2946 18.4547C9.82514 18.4502 9.75014 18.6002 9.75014 19.0202C9.76214 29.4252 9.76214 39.8302 9.75014 50.2352C9.75014 50.6852 9.87314 50.7827 10.3066 50.7827C18.5326 50.7687 26.7591 50.7637 34.9861 50.7677C35.4826 50.7677 36.1471 50.9867 36.4276 50.6687C36.6736 50.3927 36.4636 49.7387 36.5131 49.2572C36.5626 48.7757 36.3841 48.7112 35.9551 48.7127C27.9901 48.7247 20.0236 48.7127 12.0571 48.7322C11.6071 48.7322 11.5066 48.6092 11.5066 48.1742C11.5206 39.8342 11.5206 31.4942 11.5066 23.1542C11.4984 23.0034 11.5237 22.8526 11.5807 22.7128C11.6378 22.573 11.7252 22.4476 11.8366 22.3457C13.1161 21.0992 14.3746 19.8317 15.7501 18.4667ZM6.53564 37.3502C6.53564 42.5357 6.53564 47.7212 6.52514 52.9082C6.52514 53.3687 6.59564 53.5262 7.11464 53.5247C15.6496 53.5057 24.1841 53.5007 32.7181 53.5097C32.8155 53.5037 32.9132 53.5037 33.0106 53.5097C33.2281 53.5337 33.3106 53.4392 33.2836 53.2292C33.2671 53.1002 33.2671 52.9696 33.2836 52.8407C33.3601 52.3712 33.2116 52.2242 32.7001 52.2257C24.7501 52.2452 16.8001 52.2347 8.85014 52.2512C8.36714 52.2512 8.28014 52.1207 8.28014 51.6662C8.29514 41.9282 8.29514 32.1902 8.28014 22.4522C8.28014 22.0517 8.45864 21.5312 8.20064 21.2792C7.94264 21.0272 7.42514 21.2462 7.02614 21.1967C6.62714 21.1472 6.51464 21.2807 6.51614 21.6932C6.53714 26.9082 6.54364 32.1272 6.53564 37.3502ZM20.2996 16.2302L14.2501 22.2707C16.0906 22.2707 18.0346 22.2707 19.9786 22.2707C20.1916 22.2707 20.3041 22.2317 20.3026 21.9812C20.2966 20.0252 20.2996 18.0677 20.2996 16.2242V16.2302Z" fill="#7D7D7D"/>
<path d="M26.7 34.9068C23.5155 34.9068 20.331 34.8993 17.1465 34.9158C16.737 34.9158 16.584 34.8468 16.602 34.3923C16.6425 33.4368 16.614 33.4353 17.5845 33.4353C23.7915 33.4353 29.9985 33.4318 36.2055 33.4248C36.627 33.4248 36.762 33.5133 36.7455 33.9558C36.7095 34.9053 36.7365 34.9068 35.766 34.9068H26.7Z" fill="#7D7D7D"/>
<path d="M26.6509 37.997C23.4664 37.997 20.2819 37.9895 17.0974 38.0045C16.7194 38.0045 16.6024 37.9175 16.6129 37.5275C16.6384 36.533 16.6129 36.533 17.5939 36.533C23.8009 36.533 30.0084 36.5295 36.2164 36.5225C36.6439 36.5225 36.7624 36.62 36.7459 37.0505C36.7129 37.9955 36.7369 37.997 35.7679 37.997H26.6509Z" fill="#7D7D7D"/>
<path d="M26.6624 41.0996C23.4959 41.0996 20.3279 41.0996 17.1614 41.1086C16.7624 41.1086 16.5884 41.0576 16.6079 40.5911C16.6499 39.6341 16.6184 39.6326 17.5859 39.6326C23.7859 39.6326 29.9899 39.6291 36.1979 39.6221C36.6554 39.6221 36.7604 39.7526 36.7454 40.1846C36.7139 41.0996 36.7379 41.0996 35.8214 41.0996H26.6624Z" fill="#7D7D7D"/>
<path d="M23.7633 44.1739C21.5388 44.1739 19.3143 44.1634 17.0913 44.1829C16.7043 44.1829 16.6038 44.0749 16.6128 43.6969C16.6353 42.7024 16.6128 42.7024 17.6028 42.7024C21.8403 42.7024 26.0778 42.7024 30.3153 42.6934C30.7353 42.6934 30.9153 42.7624 30.8913 43.2379C30.8508 44.1724 30.8808 44.1739 29.9493 44.1739H23.7633Z" fill="#7D7D7D"/>
<path d="M33.8114 43.4207C33.8114 44.1707 33.8114 44.1707 32.9879 44.1707C32.3369 44.1707 32.3369 44.1707 32.3369 43.2857C32.3369 42.6962 32.3369 42.6857 33.2369 42.6977C33.8999 42.7067 33.8024 42.6002 33.8114 43.4207Z" fill="#7D7D7D"/>
<path d="M36.0004 44.1747C35.2744 44.1747 35.2744 44.1747 35.2744 43.3152C35.2744 42.7002 35.2744 42.7002 36.1504 42.7002C36.7504 42.7002 36.7504 42.7002 36.7504 43.5897C36.7414 44.1747 36.7414 44.1747 36.0004 44.1747Z" fill="#7D7D7D"/>
<path d="M51.937 18.4862C51.9361 19.8656 51.6622 21.2313 51.1313 22.5044C50.6003 23.7776 49.8227 24.9331 48.8432 25.9045C47.8638 26.8759 46.7018 27.6439 45.4243 28.1643C44.1468 28.6847 42.7789 28.9472 41.3995 28.9367C35.638 28.9262 30.9505 24.2027 30.958 18.4142C30.9655 12.6257 35.6875 7.9502 41.5105 7.9502C47.2645 7.9502 51.9385 12.6782 51.937 18.4862ZM50.4715 18.4757C50.4715 13.4807 46.4425 9.4172 41.4865 9.4157C36.499 9.4157 32.4235 13.4507 32.4145 18.4022C32.4055 23.3897 36.436 27.4637 41.3905 27.4697C46.4395 27.4772 50.47 23.4842 50.4715 18.4757Z" fill="#7D7D7D"/>
<path d="M39.2553 21.189C39.2553 20.928 39.2418 20.667 39.2553 20.409C39.3063 19.575 39.1743 18.8895 38.5578 18.1815C37.3008 16.74 37.6203 14.4915 39.0858 13.2481C39.8032 12.6336 40.731 12.3215 41.6739 12.3775C42.6168 12.4335 43.5012 12.8531 44.1408 13.5481C45.4473 14.958 45.4533 17.172 44.1003 18.531C43.939 18.6819 43.8138 18.8672 43.734 19.0731C43.6543 19.2791 43.6221 19.5004 43.6398 19.7205C43.6653 20.841 43.6398 21.963 43.6548 23.0835C43.6548 23.37 43.5978 23.4765 43.2843 23.4705C42.0663 23.451 40.8468 23.454 39.6288 23.4705C39.3288 23.4705 39.2343 23.3955 39.2463 23.0911C39.2718 22.4565 39.2553 21.822 39.2553 21.189ZM40.7208 20.052V20.9295C40.7208 22.0215 40.7208 22.0096 41.8113 22.0066C42.1113 22.0066 42.1983 21.933 42.1908 21.63C42.1713 20.688 42.2088 19.7445 42.1728 18.804C42.1563 18.354 42.2808 18.084 42.6813 17.832C43.136 17.5374 43.4624 17.0818 43.5951 16.5565C43.7278 16.0313 43.657 15.4753 43.3968 15C43.1422 14.5225 42.7197 14.1561 42.2108 13.9716C41.702 13.7872 41.1429 13.7976 40.6413 14.001C40.2571 14.144 39.9231 14.3963 39.6805 14.7268C39.438 15.0573 39.2975 15.4516 39.2763 15.861C39.2288 16.2605 39.3007 16.6651 39.483 17.0237C39.6654 17.3823 39.95 17.6787 40.3008 17.8755C40.4497 17.9478 40.5715 18.0659 40.6482 18.2125C40.7249 18.3592 40.7524 18.5266 40.7268 18.69C40.6998 19.1415 40.7208 19.5975 40.7208 20.052Z" fill="#FF8900"/>
</svg>
