<svg width="60" height="61" viewBox="0 0 60 61" fill="none" xmlns="http://www.w3.org/2000/svg">
<path d="M58.7899 51.3707C58.5889 51.4682 58.6174 51.6812 58.5589 51.8462C58.2852 52.6282 57.7862 53.3118 57.1248 53.811C56.4634 54.3101 55.6691 54.6024 54.8419 54.6512C54.5629 54.6677 54.2809 54.6692 54.0004 54.6692H6.05744C3.43694 54.6692 2.29694 53.8982 1.32644 51.4757C1.30844 51.4337 1.24994 51.4082 1.21094 51.3752V50.1362C1.50194 49.6862 1.91144 49.5557 2.44244 49.5557C9.76944 49.5697 17.0959 49.5727 24.4219 49.5647C24.553 49.5586 24.6843 49.5616 24.8149 49.5737C25.3069 49.6397 25.5964 49.9142 25.6294 50.4152C25.6491 50.6422 25.5786 50.8678 25.4332 51.0433C25.2878 51.2187 25.0792 51.3299 24.8524 51.3527C24.666 51.3707 24.4785 51.3752 24.2914 51.3662H3.19994C3.60644 52.2242 4.21844 52.6952 5.09144 52.8287C5.29602 52.8524 5.50213 52.8605 5.70794 52.8527C21.8989 52.8527 38.0889 52.8552 54.2779 52.8602C55.3189 52.8602 56.1439 52.5392 56.6779 51.6152C56.7161 51.5339 56.7502 51.4508 56.7799 51.3662H35.8939C35.7439 51.3662 35.5939 51.3662 35.4439 51.3662C34.7974 51.3497 34.3834 50.9882 34.3939 50.4497C34.4044 49.9112 34.7989 49.5662 35.4679 49.5662C42.8879 49.5662 50.3084 49.5632 57.7294 49.5572C58.2199 49.5572 58.5229 49.7882 58.7929 50.1362L58.7899 51.3707Z" fill="#7D7D7D"/>
<path d="M48.8712 15.0784C49.0572 13.1074 49.2297 11.2654 49.4127 9.42342C49.4367 9.17742 49.4412 9.03492 49.1202 9.06792C47.2572 9.25392 45.3927 9.42642 43.3932 9.61542C43.8972 10.1164 44.3292 10.5409 44.7567 10.9654C45.3567 11.5654 45.3732 11.9989 44.7777 12.5959C42.2507 15.1329 39.7192 17.6599 37.1832 20.1769C36.6732 20.6854 36.1617 20.7289 35.7567 20.3269C35.3517 19.9249 35.4267 19.3984 35.9217 18.9034C38.1597 16.6634 40.4012 14.4294 42.6462 12.2014C42.9462 11.9014 43.0212 11.7139 42.6582 11.4244C42.363 11.1643 42.0821 10.8884 41.8167 10.5979C41.3217 10.1059 41.1312 9.52692 41.3817 8.86092C41.6322 8.19492 42.1497 7.90992 42.8097 7.85142C44.5437 7.68792 46.2777 7.53342 48.0132 7.37592C48.5352 7.32792 49.0632 7.26792 49.5807 7.24542C50.6067 7.19892 51.3312 7.87542 51.2502 8.89542C51.0627 11.2234 50.8257 13.5454 50.5947 15.8719C50.5347 16.4914 50.1567 16.9054 49.5852 17.1034C49.3207 17.2059 49.0322 17.2299 48.7544 17.1724C48.4766 17.115 48.2213 16.9785 48.0192 16.7794C47.6757 16.4599 47.3382 16.1344 47.0247 15.7879C46.8117 15.5494 46.6737 15.5524 46.4502 15.7879C45.8172 16.4509 45.1572 17.0884 44.5077 17.7379L30.4752 31.7419C29.5227 32.6944 29.2347 32.7019 28.2672 31.7419C26.3922 29.8839 24.5257 28.0169 22.6677 26.1409C22.3602 25.8304 22.2087 25.8409 21.9027 26.1409C19.4457 28.6039 16.9772 31.0574 14.4972 33.5014C14.3682 33.6372 14.232 33.7658 14.0892 33.8869C13.9197 34.0374 13.6996 34.1184 13.473 34.1137C13.2463 34.1089 13.0298 34.0188 12.8667 33.8614C12.5052 33.5044 12.4977 33.0214 12.8517 32.6029C12.9237 32.5174 13.0017 32.4424 13.0872 32.3629L21.4122 24.0874C22.1157 23.3899 22.4817 23.4064 23.1867 24.1129C25.1157 26.0479 27.0597 27.9694 28.9812 29.9134C29.2812 30.2134 29.4312 30.2464 29.7477 29.9254C35.0757 24.5854 40.4127 19.2544 45.7587 13.9324C46.5507 13.1419 46.8087 13.1389 47.6187 13.9024C48.0102 14.2684 48.4002 14.6374 48.8712 15.0784Z" fill="#FF8900"/>
<path d="M4.00167 34.9308C4.00167 30.9648 3.99417 27.0003 4.00167 23.0343C4.00167 20.7768 5.36517 19.0863 7.50267 18.6588C7.79974 18.6069 8.10115 18.5838 8.40267 18.5898C16.0677 18.5898 23.7327 18.5898 31.3977 18.5898C31.8672 18.5898 32.2632 18.6813 32.4642 19.1433C32.7027 19.6938 32.3337 20.2968 31.7142 20.3823C31.5271 20.3986 31.3392 20.4021 31.1517 20.3928C23.6742 20.3928 16.1967 20.4258 8.71917 20.3703C6.95517 20.3568 5.78367 21.5178 5.79267 23.2638C5.83317 31.1943 5.79267 39.1248 5.77617 47.0553C5.78534 47.2977 5.77027 47.5404 5.73117 47.7798C5.70271 47.9776 5.60175 48.1577 5.4479 48.2853C5.29405 48.4128 5.0983 48.4785 4.89867 48.4698C4.70013 48.4916 4.50061 48.4386 4.33896 48.3213C4.1773 48.2041 4.06509 48.0308 4.02417 47.8353C3.97271 47.5985 3.95204 47.356 3.96267 47.1138C3.96267 43.0548 3.96267 38.9963 3.96267 34.9383L4.00167 34.9308Z" fill="#7D7D7D"/>
<path d="M56.0523 35.1006V47.0466C56.0523 47.2146 56.0598 47.3841 56.0448 47.5506C55.9923 48.1356 55.6413 48.4791 55.1193 48.4686C54.6228 48.4581 54.2883 48.1206 54.2388 47.5686C54.2208 47.3826 54.2298 47.1951 54.2298 47.0076C54.2298 39.0626 54.2298 31.1166 54.2298 23.1696C54.2298 21.3696 53.2488 20.3961 51.4593 20.3931C50.7483 20.3931 50.0358 20.3931 49.3233 20.3931C49.0979 20.4118 48.872 20.3638 48.6738 20.2551C48.5131 20.1721 48.3829 20.0403 48.302 19.8785C48.2211 19.7167 48.1937 19.5335 48.2238 19.3551C48.2898 18.9486 48.5358 18.6231 48.9498 18.6051C50.1498 18.5766 51.3573 18.4461 52.5378 18.6621C54.6933 19.0581 56.0373 20.7891 56.0433 23.0916C56.0598 27.0981 56.0523 31.1016 56.0523 35.1006Z" fill="#7D7D7D"/>
<path d="M46.5857 33.6425V44.9135C46.5857 45.0635 46.5857 45.2135 46.5857 45.3635C46.5602 45.992 46.2302 46.3835 45.7142 46.4045C45.1982 46.4255 44.8037 45.9995 44.7722 45.3665C44.7722 45.236 44.7722 45.1055 44.7722 44.9735C44.7722 37.3845 44.7722 29.7965 44.7722 22.2095C44.7622 21.9672 44.7803 21.7246 44.8262 21.4865C44.9372 21.0245 45.2612 20.801 45.7337 20.825C45.933 20.823 46.1261 20.8944 46.2763 21.0255C46.4264 21.1566 46.5232 21.3382 46.5482 21.536C46.5813 21.7579 46.5933 21.9824 46.5842 22.2065C46.5872 26.0175 46.5877 29.8295 46.5857 33.6425Z" fill="#7D7D7D"/>
<path d="M40.8603 35.6624C40.8603 32.5404 40.8603 29.4189 40.8603 26.2979C40.855 26.0926 40.8625 25.8872 40.8828 25.6829C40.908 25.4781 41.004 25.2886 41.1543 25.1472C41.3046 25.0059 41.4996 24.9215 41.7055 24.9089C41.9115 24.8962 42.1153 24.9561 42.2818 25.078C42.4482 25.1999 42.5667 25.3762 42.6168 25.5764C42.6622 25.7766 42.6813 25.9818 42.6738 26.1869C42.6738 32.5029 42.6738 38.8204 42.6738 45.1394C42.6792 45.3255 42.6641 45.5116 42.6288 45.6944C42.5851 45.8967 42.4719 46.0773 42.3088 46.2047C42.1457 46.3322 41.9432 46.3985 41.7363 46.3921C41.5294 46.3856 41.3314 46.3069 41.1765 46.1696C41.0217 46.0323 40.9199 45.845 40.8888 45.6404C40.8635 45.4364 40.854 45.2308 40.8603 45.0254C40.8603 41.9044 40.8603 38.7834 40.8603 35.6624Z" fill="#7D7D7D"/>
<path d="M36.9513 37.6798V30.3298C36.9443 30.1426 36.9493 29.9553 36.9663 29.7688C36.9775 29.5699 37.0615 29.3821 37.2023 29.2413C37.3432 29.1004 37.531 29.0164 37.7298 29.0053C37.9258 28.9703 38.1279 29.006 38.3001 29.1059C38.4723 29.2059 38.6035 29.3637 38.6703 29.5513C38.7419 29.7428 38.7716 29.9474 38.7573 30.1513C38.7573 35.1803 38.7573 40.2093 38.7573 45.2383C38.7573 45.3133 38.7573 45.3883 38.7573 45.4633C38.7093 46.0168 38.3073 46.4098 37.8258 46.3933C37.3443 46.3768 36.9618 45.9868 36.9588 45.4123C36.9468 42.8398 36.9513 40.2598 36.9513 37.6798Z" fill="#7D7D7D"/>
<path d="M23.0668 38.3578C23.0668 40.5988 23.0668 42.8398 23.0668 45.0808C23.0718 45.2677 23.0633 45.4547 23.0413 45.6403C23.0236 45.8397 22.9339 46.0258 22.789 46.1638C22.644 46.3018 22.4538 46.3823 22.2538 46.3903C21.8203 46.4353 21.5038 46.2178 21.3328 45.8068C21.2627 45.5933 21.2362 45.3678 21.2548 45.1438C21.2548 40.6068 21.2548 36.0683 21.2548 31.5283C21.2478 31.3239 21.269 31.1195 21.3178 30.9208C21.3722 30.727 21.4913 30.5577 21.6553 30.4409C21.8192 30.3242 22.0182 30.267 22.2191 30.2789C22.4201 30.2908 22.6109 30.3711 22.7599 30.5064C22.9089 30.6417 23.0071 30.8239 23.0383 31.0228C23.0646 31.2262 23.0736 31.4314 23.0653 31.6363C23.0673 33.8793 23.0678 36.1198 23.0668 38.3578Z" fill="#7D7D7D"/>
<path d="M34.8314 39.6981C34.8314 41.6031 34.8314 43.5081 34.8314 45.4131C34.8314 45.9261 34.5824 46.2786 34.0724 46.3761C33.6059 46.4646 33.2759 46.2261 33.0929 45.8076C33.0408 45.6481 33.0204 45.4799 33.0329 45.3126C33.0329 41.5976 33.0329 37.8816 33.0329 34.1646C33.0329 33.4626 33.3794 33.0606 33.9479 33.0756C34.4894 33.0891 34.8299 33.4896 34.8329 34.1511C34.8344 36.0006 34.8314 37.8516 34.8314 39.6981Z" fill="#7D7D7D"/>
<path d="M17.3386 40.3265V35.4515C17.3386 35.1515 17.3491 34.8515 17.5546 34.604C17.6554 34.4797 17.7887 34.3859 17.9396 34.3329C18.0906 34.2799 18.2533 34.2699 18.4096 34.304C18.5693 34.3219 18.7197 34.3881 18.8409 34.4937C18.962 34.5992 19.0481 34.7392 19.0876 34.895C19.1441 35.1306 19.1683 35.3728 19.1596 35.615C19.1596 38.774 19.1596 41.9325 19.1596 45.0905C19.1596 45.1655 19.1596 45.2405 19.1596 45.3155C19.1371 46.001 18.7726 46.433 18.2266 46.4165C17.6806 46.4 17.3431 45.9845 17.3386 45.3275C17.3326 43.6535 17.3386 41.99 17.3386 40.3265Z" fill="#7D7D7D"/>
<path d="M25.1777 40.3709C25.1777 38.6909 25.1777 37.0094 25.1777 35.3279C25.1777 34.6229 25.5917 34.2209 26.1992 34.2899C26.7047 34.3469 26.9762 34.6979 26.9777 35.3399C26.9777 38.1039 26.9777 40.8684 26.9777 43.6334C26.9777 44.2334 26.9867 44.8334 26.9777 45.4334C26.9687 46.0334 26.6147 46.3964 26.1107 46.4129C25.6067 46.4294 25.1867 46.0079 25.1822 45.4244C25.1687 43.7339 25.1777 42.0509 25.1777 40.3709Z" fill="#7D7D7D"/>
<path d="M29.0996 41.4916C29.0996 40.2601 29.0996 39.0286 29.0996 37.7956C29.0996 37.1086 29.4596 36.6796 30.0101 36.6856C30.5606 36.6916 30.8996 37.1206 30.8996 37.8136C30.8996 40.3136 30.8996 42.8136 30.8996 45.3136C30.8996 45.9706 30.5561 46.3831 30.0236 46.3981C29.4911 46.4131 29.1026 45.9691 29.0996 45.2956C29.0996 44.0296 29.0996 42.7606 29.0996 41.4916Z" fill="#7D7D7D"/>
<path d="M30.056 27.3374C29.9027 27.3396 29.7514 27.3025 29.6165 27.2297C29.4816 27.157 29.3674 27.051 29.285 26.9218C29.2025 26.7926 29.1544 26.6444 29.1452 26.4914C29.136 26.3384 29.166 26.1856 29.2325 26.0474C29.3134 25.9005 29.4172 25.7673 29.54 25.6529C30.847 24.3419 32.156 23.0329 33.467 21.7259C33.7145 21.4784 33.986 21.2759 34.352 21.3329C34.5215 21.35 34.6826 21.4157 34.8156 21.5221C34.9487 21.6286 35.0482 21.7712 35.102 21.9329C35.1654 22.0908 35.1789 22.2644 35.1405 22.4302C35.1022 22.596 35.0139 22.746 34.8875 22.8599C33.4875 24.2669 32.0875 25.6669 30.6875 27.0599C30.5205 27.2302 30.2943 27.3296 30.056 27.3374Z" fill="#FF8900"/>
<path d="M13.4337 42.8009C13.4337 41.9609 13.4247 41.1224 13.4337 40.2824C13.4337 39.6224 13.7922 39.2324 14.3427 39.2444C14.8587 39.2549 15.2322 39.6494 15.2427 40.2599C15.2547 41.9759 15.2547 43.6919 15.2427 45.4079C15.2427 46.0079 14.8257 46.4114 14.3202 46.3994C13.8147 46.3874 13.4517 45.9884 13.4427 45.3734C13.4262 44.5199 13.4352 43.6619 13.4337 42.8009Z" fill="#7D7D7D"/>
<path d="M30.008 49.5658C30.5315 49.5658 31.058 49.5538 31.58 49.5658C32.15 49.5808 32.5325 49.9468 32.5385 50.4523C32.5374 50.5742 32.5118 50.6945 32.4632 50.8063C32.4147 50.9181 32.3442 51.0189 32.2559 51.1029C32.1676 51.1868 32.0633 51.2522 31.9493 51.295C31.8352 51.3379 31.7137 51.3574 31.592 51.3523C30.525 51.3703 29.4585 51.3703 28.3925 51.3523C28.2704 51.3548 28.149 51.3327 28.0356 51.2874C27.9222 51.2421 27.819 51.1745 27.7322 51.0886C27.6453 51.0028 27.5766 50.9003 27.53 50.7874C27.4834 50.6746 27.4599 50.5535 27.461 50.4313C27.4745 49.9303 27.8615 49.5748 28.436 49.5613C28.9595 49.5508 29.4845 49.5658 30.008 49.5658Z" fill="#7D7D7D"/>
</svg>
