<svg width="19" height="18" viewBox="0 0 19 18" fill="none" xmlns="http://www.w3.org/2000/svg">
<path d="M11.7802 1.48096C11.9602 1.54621 12.1524 1.49626 12.3364 1.53541C12.4521 1.554 12.5689 1.56467 12.6861 1.56736C12.894 1.58221 12.894 1.58176 12.894 1.79731C12.894 2.48086 12.8913 3.16486 12.8967 3.84841C12.8967 3.95326 12.8679 3.97396 12.7675 3.97486C12.2455 3.97981 11.7231 3.95371 11.2006 3.99556C10.3947 4.06036 10.198 4.49596 10.1742 5.04631C10.1472 5.65066 10.1683 6.25726 10.162 6.86296C10.162 6.96421 10.203 6.96871 10.2822 6.96871C11.0683 6.96871 11.8549 6.96871 12.6411 6.96556C12.7567 6.96556 12.8076 6.96556 12.786 7.11811C12.6739 7.90966 12.5781 8.70301 12.4813 9.49636C12.4674 9.61336 12.4305 9.65521 12.3013 9.65341C11.6421 9.64486 10.9828 9.65341 10.3213 9.64576C10.1814 9.64576 10.1593 9.69076 10.1598 9.81496C10.1634 11.979 10.1598 14.1426 10.1665 16.3062C10.1665 16.4655 10.1193 16.4921 9.97437 16.4907C9.16437 16.4835 8.35362 16.4835 7.54212 16.4907C7.41432 16.4907 7.39362 16.4534 7.39407 16.3364C7.39767 14.1629 7.39407 11.9894 7.39947 9.81586C7.39947 9.68761 7.37472 9.64396 7.23522 9.64576C6.56607 9.65431 5.89692 9.64576 5.22777 9.65251C5.11482 9.65251 5.09277 9.62101 5.09277 9.51346C5.09787 8.71246 5.09787 7.91146 5.09277 7.11046C5.09277 6.99931 5.11527 6.96331 5.23452 6.96421C5.90952 6.97051 6.58227 6.96421 7.25637 6.97006C7.37382 6.97006 7.39902 6.93676 7.39902 6.82471C7.39902 6.10696 7.37157 5.38831 7.41342 4.67146C7.46922 3.72331 7.77027 2.87866 8.51457 2.24146C9.01902 1.80946 9.61797 1.59841 10.2696 1.51246C10.3042 1.50796 10.3497 1.53046 10.3722 1.48141L11.7802 1.48096Z" fill="white"/>
</svg>
