<svg width="60" height="60" viewBox="0 0 60 60" fill="none" xmlns="http://www.w3.org/2000/svg">
<path d="M42.1079 51.4592C39.5429 51.4592 36.9779 51.4592 34.4144 51.4517C34.0949 51.4517 33.9404 51.5102 33.8339 51.8492C33.5825 52.6575 33.0788 53.364 32.3968 53.8654C31.7147 54.3667 30.89 54.6364 30.0435 54.6351C29.197 54.6337 28.3732 54.3614 27.6927 53.8579C27.0122 53.3544 26.5108 52.6463 26.2619 51.8372C26.1659 51.5372 26.0444 51.4487 25.7264 51.4502C22.4504 51.4632 19.1739 51.4632 15.8969 51.4502C15.4829 51.4502 15.4094 51.5417 15.4904 51.9452C15.6404 52.7042 15.7244 53.4782 15.8384 54.2462C15.8789 54.5072 15.8729 54.6497 15.5114 54.6467C12.2354 54.6287 8.95892 54.6287 5.68192 54.6467C5.30242 54.6467 5.29642 54.4967 5.33692 54.2162C5.82442 50.8682 6.26392 47.5127 6.81442 44.1737C7.05142 42.7442 6.77842 41.3882 6.57292 40.0097C6.20692 37.5617 5.76292 35.1227 5.45692 32.6687C5.22442 30.8102 5.89042 29.1917 7.43692 28.1342C8.39392 27.4787 8.66392 26.7602 8.62642 25.6547C8.54392 23.1917 8.59942 20.7227 8.60092 18.2567C8.60092 17.1347 9.22642 16.5107 10.3334 16.4942C10.8059 16.4942 11.4374 16.7042 11.7059 16.4027C11.9399 16.1417 11.7749 15.5237 11.7779 15.0632C11.7779 13.9472 12.4079 13.3202 13.5284 13.3202C17.7284 13.3202 21.9314 13.3202 26.1374 13.3202C27.5866 13.2928 28.9983 13.782 30.1199 14.7002C30.2956 14.8481 30.5205 14.9247 30.7499 14.9147C32.6699 14.9057 34.5899 14.9147 36.5084 14.9147C37.2074 14.9147 37.2074 14.9147 37.2044 14.2307C37.1894 10.1177 39.8249 6.6812 43.7999 5.6327C48.7679 4.3217 53.9099 7.7597 54.5999 12.8582C55.0109 15.9137 54.0464 18.4862 51.8174 20.5922C51.715 20.6814 51.6347 20.7931 51.5827 20.9185C51.5306 21.044 51.5083 21.1797 51.5174 21.3152C51.5234 30.7492 51.5234 40.1827 51.5174 49.6157C51.5174 50.8727 50.9294 51.4592 49.6694 51.4592H42.1079ZM29.2574 46.0502V40.2497C29.2574 32.3417 29.2574 24.4332 29.2574 16.5242C29.2702 16.3721 29.2398 16.2195 29.1697 16.084C29.0997 15.9484 28.9928 15.8353 28.8614 15.7577C28.1005 15.2212 27.1944 14.9287 26.2634 14.9192C22.0769 14.9027 17.8919 14.9192 13.7069 14.9042C13.4219 14.9042 13.3544 14.9852 13.3544 15.2612C13.3634 19.8272 13.3634 24.3937 13.3544 28.9607C13.3544 29.1797 13.3934 29.3072 13.6259 29.3957C14.5544 29.7467 15.0629 30.4457 15.2519 31.4102C15.5969 33.1727 15.9284 34.9397 16.3304 36.6902C16.8749 39.0572 16.3304 41.0717 14.5064 42.6902C14.1614 42.9977 14.2634 43.3157 14.3114 43.6757C14.3474 43.9427 14.4179 44.0477 14.7059 43.9922C15.1754 43.9022 15.6524 43.8557 16.1249 43.7777C18.9519 43.3 21.8483 43.4304 24.6209 44.1602C26.2375 44.5994 27.7945 45.2341 29.2574 46.0502ZM30.8459 31.5587C30.8459 36.4397 30.8459 41.3222 30.8354 46.2047C30.8354 46.6217 30.9389 46.7102 31.3469 46.7087C36.3109 46.6937 41.2749 46.6937 46.2389 46.7087C46.6544 46.7087 46.7459 46.6097 46.7459 46.2002C46.7329 38.6372 46.7294 31.0742 46.7354 23.5112C46.7354 22.8587 46.7354 22.8587 46.1024 22.8617C42.2024 22.8842 38.9129 20.5622 37.6619 16.8752C37.5509 16.5452 37.3919 16.4987 37.0949 16.5002C35.1749 16.5122 33.2549 16.5212 31.3364 16.5002C30.9089 16.5002 30.8354 16.6187 30.8369 17.0177C30.8519 21.8537 30.8459 26.7002 30.8459 31.5512V31.5587ZM38.7959 14.1137C38.7956 15.5268 39.214 16.9083 39.9983 18.0837C40.7826 19.2592 41.8976 20.1759 43.2025 20.7182C44.5074 21.2605 45.9437 21.4039 47.33 21.1305C48.7164 20.8571 49.9907 20.179 50.992 19.1819C51.9933 18.1848 52.6767 16.9133 52.9559 15.5281C53.2352 14.1429 53.0977 12.706 52.5609 11.3989C52.0241 10.0917 51.1121 8.9729 49.9399 8.18371C48.7677 7.39452 47.388 6.97033 45.9749 6.9647C44.0793 6.96897 42.2619 7.72059 40.9171 9.05647C39.5722 10.3924 38.8084 12.2047 38.7914 14.1002L38.7959 14.1137ZM14.9789 48.2807C15.0558 48.6617 15.1059 49.0477 15.1289 49.4357C15.1289 49.8362 15.3074 49.8767 15.6449 49.8767C19.3679 49.8647 23.0924 49.8692 26.8154 49.8692C27.6344 49.8692 27.6344 49.8692 27.6629 50.6642C27.7154 52.2017 29.0684 53.2952 30.5204 52.9742C31.7384 52.7057 32.4449 51.7742 32.4149 50.3897C32.4059 49.9502 32.5199 49.8572 32.9504 49.8587C38.4449 49.8752 43.9394 49.8587 49.4339 49.8782C49.8224 49.8782 49.9154 49.7822 49.9154 49.3967C49.9034 40.3967 49.9004 31.3932 49.9064 22.3862V21.9362C49.5423 22.099 49.1692 22.2407 48.7889 22.3607C48.3929 22.4597 48.3074 22.6607 48.3074 23.0537C48.3209 30.8537 48.3074 38.6447 48.3359 46.4402C48.3359 47.5052 47.5859 48.3017 46.4654 48.2972C36.1709 48.2657 25.8779 48.2792 15.5849 48.2792L14.9789 48.2807ZM11.7794 26.8502C10.4804 27.8552 9.16492 28.6847 8.02942 29.7347C7.19992 30.4982 6.89992 31.5107 7.08292 32.6597C7.26592 33.8087 7.43092 34.9772 7.60642 36.1352C7.87942 37.9352 8.15992 39.7232 8.42692 41.5187C8.47192 41.8187 8.57692 41.9447 8.92192 41.9342C9.91342 41.9042 10.9139 41.8547 11.8979 41.9447C12.7979 42.0272 13.3829 41.6852 13.9214 41.0327C14.6624 40.1327 15.1049 39.1292 14.9054 37.9757C14.5379 35.8502 14.0849 33.7382 13.6649 31.6202C13.6422 31.4723 13.585 31.3319 13.498 31.2102C13.4109 31.0885 13.2965 30.989 13.1639 30.9197C12.5039 30.5732 11.7914 31.0457 11.7824 31.8572C11.7689 33.2462 11.7824 34.6367 11.7824 36.0272C11.7824 37.1642 11.7824 37.1417 10.6274 37.1687C10.2269 37.1777 10.1774 37.0382 10.1774 36.6947C10.1954 35.0897 10.1939 33.4847 10.1774 31.8797C10.1774 30.8297 10.6094 30.0407 11.5184 29.5142C11.6444 29.4422 11.7779 29.4047 11.7749 29.2037C11.7719 28.4507 11.7794 27.6962 11.7794 26.8502ZM10.5374 53.0552C11.5874 53.0552 12.6224 53.0447 13.6649 53.0627C13.9649 53.0627 14.0234 52.9907 13.9784 52.7057C13.8284 51.7607 13.7069 50.8112 13.5704 49.8632C13.2824 47.8532 12.9854 45.8447 12.7079 43.8332C12.6734 43.5857 12.6014 43.5122 12.3494 43.5152C11.1754 43.5282 10.0004 43.5282 8.82442 43.5152C8.57392 43.5152 8.49892 43.5842 8.46592 43.8332C8.31592 45.0332 8.12392 46.2182 7.95292 47.4122C7.70092 49.1762 7.45792 50.9432 7.19542 52.7072C7.15342 52.9907 7.21642 53.0672 7.50892 53.0627C8.51842 53.0357 9.52792 53.0477 10.5374 53.0477V53.0552ZM26.7119 46.6982C24.6119 45.6887 22.4099 45.2237 20.1119 45.1247C18.3839 45.0497 16.6874 45.3317 14.9879 45.5747C14.7044 45.6152 14.5379 45.6602 14.6459 45.9752C14.7374 46.2497 14.4959 46.7087 15.0959 46.7012C16.6994 46.6817 18.3044 46.6937 19.9094 46.6937L26.7119 46.6982ZM10.1909 26.0162C10.6649 25.6607 11.0459 25.3502 11.4539 25.0802C11.5651 25.0153 11.6553 24.9199 11.7141 24.8054C11.7728 24.6908 11.7976 24.5619 11.7854 24.4337C11.7719 22.7162 11.7854 20.9987 11.7854 19.2812C11.7854 18.0287 11.7854 18.0347 10.4984 18.0812C10.2704 18.0902 10.1894 18.1367 10.1984 18.3812C10.1999 20.8892 10.1909 23.4002 10.1909 26.0162Z" fill="#A2A2A2"/>
<path d="M21.266 27.6227C19.2965 27.6227 17.3285 27.6152 15.359 27.6227C15.041 27.6227 14.909 27.5522 14.954 27.2192C15.0035 26.8322 14.783 26.3192 15.0455 26.0867C15.2675 25.8962 15.7715 26.0087 16.148 26.0327C16.472 26.0552 16.5575 25.9532 16.5545 25.6277C16.538 23.7752 16.5545 21.9212 16.538 20.0687C16.538 19.7462 16.6175 19.6562 16.9445 19.6607C18.2675 19.6797 19.591 19.6797 20.915 19.6607C21.239 19.6607 21.3245 19.7417 21.3215 20.0657C21.305 21.9197 21.3215 23.7722 21.305 25.6262C21.305 25.9487 21.386 26.0342 21.7115 26.0327C22.9025 26.0252 22.9025 26.0327 22.9025 24.8327C22.9025 22.2017 22.9025 19.5707 22.892 16.9397C22.892 16.5692 22.9775 16.4747 23.342 16.4807C24.6485 16.5062 25.9565 16.5032 27.263 16.4807C27.5885 16.4807 27.6695 16.5632 27.6695 16.8872C27.6575 20.3282 27.6575 23.7697 27.6695 27.2117C27.6695 27.5342 27.5915 27.6227 27.2645 27.6197C25.2695 27.6137 23.2685 27.6227 21.266 27.6227ZM26.0795 22.0592V19.2797C26.0795 18.0797 26.0795 18.0797 24.8885 18.0797C24.5615 18.0797 24.4805 18.1652 24.4835 18.4877C24.4985 20.6057 24.491 22.7237 24.491 24.8417C24.491 26.0657 24.491 26.0552 25.733 26.0417C26.015 26.0417 26.09 25.9637 26.087 25.6847C26.072 24.4757 26.0795 23.2682 26.0795 22.0592ZM19.724 23.7002V22.4597C19.724 21.2357 19.724 21.2447 18.4835 21.2597C18.203 21.2597 18.125 21.3362 18.1295 21.6167C18.1445 22.6742 18.1295 23.7332 18.1295 24.7922C18.1295 26.0987 18.1295 26.0912 19.421 26.0417C19.6565 26.0327 19.7285 25.9742 19.721 25.7417C19.715 25.0502 19.724 24.3782 19.724 23.7002Z" fill="#A2A2A2"/>
<path d="M24.5397 29.2109C25.4667 29.2109 26.3937 29.2214 27.3192 29.2109C27.5997 29.2109 27.6717 29.2844 27.6762 29.5649C27.6897 30.8069 27.7002 30.8054 26.4762 30.8054C24.8892 30.8054 23.3007 30.7964 21.7122 30.8144C21.3897 30.8144 21.3027 30.7334 21.3057 30.4079C21.3132 29.2169 21.3057 29.2169 22.5057 29.2169L24.5397 29.2109Z" fill="#A2A2A2"/>
<path d="M24.5397 32.3892C25.4667 32.3892 26.3937 32.3997 27.3192 32.3892C27.5997 32.3892 27.6717 32.4627 27.6762 32.7432C27.6897 33.9837 27.7002 33.9837 26.4762 33.9837C24.8892 33.9837 23.3007 33.9747 21.7122 33.9837C21.3882 33.9837 21.3027 33.9027 21.3057 33.5787C21.3132 32.3877 21.3057 32.3877 22.5057 32.3877L24.5397 32.3892Z" fill="#A2A2A2"/>
<path d="M24.4888 37.1562C23.5468 37.1562 22.6033 37.1457 21.6598 37.1562C21.3778 37.1562 21.3088 37.0797 21.3058 36.8007C21.2908 35.5617 21.2818 35.5617 22.5058 35.5617C24.0943 35.5617 25.6828 35.5707 27.2713 35.5527C27.5968 35.5527 27.6793 35.6367 27.6763 35.9607C27.6763 37.1502 27.6763 37.1502 26.4763 37.1502L24.4888 37.1562Z" fill="#A2A2A2"/>
<path d="M24.441 40.3349C23.514 40.3349 22.5885 40.3244 21.6615 40.3349C21.381 40.3349 21.309 40.2614 21.3045 39.9809C21.291 38.7389 21.2805 38.7389 22.5045 38.7389C24.0915 38.7389 25.68 38.7494 27.2685 38.7314C27.591 38.7314 27.678 38.8124 27.675 39.1364C27.675 40.3289 27.675 40.3289 26.475 40.3289L24.441 40.3349Z" fill="#A2A2A2"/>
<path d="M18.8998 30.7994C18.1318 30.7994 18.1318 30.7994 18.1318 30.0284C18.1318 29.2109 18.1318 29.2109 18.9523 29.2109C19.7203 29.2109 19.7203 29.2109 19.7203 29.9819C19.7233 30.7994 19.7233 30.7994 18.8998 30.7994Z" fill="#A2A2A2"/>
<path d="M18.8999 33.9782C18.1289 33.9782 18.1289 33.9781 18.1289 33.2101C18.1289 32.3896 18.1289 32.3896 18.9464 32.3896C19.7174 32.3896 19.7174 32.3897 19.7174 33.1577C19.7234 33.9782 19.7234 33.9782 18.8999 33.9782Z" fill="#A2A2A2"/>
<path d="M19.7233 36.3859C19.7233 37.1569 19.7233 37.1569 18.9553 37.1569C18.1348 37.1569 18.1348 37.1569 18.1348 36.3379C18.1348 35.5684 18.1348 35.5684 18.9028 35.5684C19.7233 35.5684 19.7233 35.5684 19.7233 36.3859Z" fill="#A2A2A2"/>
<path d="M18.9388 38.7452C19.7233 38.7452 19.7233 38.7452 19.7233 39.5507C19.7233 40.3562 19.7233 40.3352 18.9193 40.3352C18.1153 40.3352 18.1348 40.3352 18.1348 39.5297C18.1348 38.7242 18.1348 38.7452 18.9388 38.7452Z" fill="#A2A2A2"/>
<path d="M32.4348 38.7002C32.4429 37.4428 32.8236 36.2161 33.5288 35.1752C34.2341 34.1342 35.2321 33.3258 36.3969 32.8521C37.5616 32.3785 38.8406 32.2608 40.0722 32.5141C41.3037 32.7674 42.4326 33.3801 43.3159 34.275C44.1991 35.1698 44.7972 36.3065 45.0345 37.5412C45.2718 38.776 45.1375 40.0534 44.6488 41.2119C44.16 42.3703 43.3387 43.3578 42.2887 44.0495C41.2387 44.7412 40.0071 45.1059 38.7498 45.0977C37.9145 45.0943 37.0881 44.926 36.318 44.6023C35.548 44.2786 34.8495 43.8059 34.2627 43.2114C33.6758 42.6169 33.2123 41.9124 32.8986 41.1382C32.5849 40.364 32.4273 39.5354 32.4348 38.7002ZM37.9968 34.0502C37.7808 34.1012 37.6353 34.1297 37.4943 34.1687C36.2906 34.5101 35.2706 35.3134 34.6564 36.4035C34.0423 37.4936 33.8837 38.7822 34.2153 39.9887C34.2723 40.1882 34.2633 40.4387 34.6053 40.2302C35.6553 39.6062 36.7128 39.0047 37.7718 38.4002C37.8457 38.3669 37.9075 38.3115 37.9486 38.2417C37.9897 38.1718 38.0082 38.0909 38.0013 38.0102C37.9923 36.7157 37.9968 35.4107 37.9968 34.0592V34.0502ZM39.5868 34.0787C39.5868 35.4197 39.5868 36.7532 39.5868 38.0867C39.5868 38.2817 39.7143 38.3417 39.8388 38.4137C40.8783 39.0137 41.9268 39.6047 42.9603 40.2137C43.2093 40.3637 43.2843 40.2977 43.3623 40.0562C44.2053 37.4612 42.3693 34.5137 39.5868 34.0877V34.0787ZM38.7768 43.5077C40.1088 43.4567 41.2713 42.9962 42.2268 42.0257C42.4113 41.8382 42.4203 41.7482 42.1698 41.6072C41.1368 41.0282 40.1103 40.4352 39.0903 39.8282C39.0051 39.7663 38.9024 39.733 38.7971 39.733C38.6917 39.733 38.5891 39.7663 38.5038 39.8282C37.4838 40.4282 36.4593 41.0282 35.4258 41.6057C35.1693 41.7557 35.1888 41.8382 35.3703 42.0227C36.3003 42.9887 37.4448 43.4537 38.7768 43.5167V43.5077Z" fill="#A2A2A2"/>
<path d="M38.8247 26.033C40.7747 26.033 42.7247 26.0465 44.6822 26.0225C45.0857 26.0225 45.1637 26.141 45.1562 26.513C45.1337 27.6215 45.1487 27.623 44.0207 27.623C40.3142 27.623 36.6077 27.6155 32.9012 27.6335C32.4977 27.6335 32.4197 27.515 32.4272 27.143C32.4497 26.0345 32.4272 26.033 33.5627 26.033H38.8247Z" fill="#A2A2A2"/>
<path d="M38.7403 30.7996C36.7723 30.7996 34.8028 30.7921 32.8333 30.8086C32.5108 30.8086 32.4253 30.7261 32.4268 30.4021C32.4268 29.2111 32.4268 29.2112 33.6268 29.2112C37.3168 29.2112 41.0068 29.2111 44.6968 29.2021C45.0673 29.2021 45.1633 29.2861 45.1558 29.6521C45.1333 30.7921 45.1558 30.7921 44.0008 30.7921L38.7403 30.7996Z" fill="#A2A2A2"/>
<path d="M34.812 24.4495C34.134 24.4495 33.462 24.4345 32.778 24.4495C32.487 24.4585 32.4315 24.358 32.4285 24.088C32.415 22.8535 32.406 22.8535 33.6285 22.8535C34.6875 22.8535 35.7465 22.8535 36.804 22.8535C37.077 22.8535 37.206 22.8745 37.206 23.2135C37.206 24.448 37.2255 24.448 35.997 24.448L34.812 24.4495Z" fill="#A2A2A2"/>
<path d="M40.3755 24.4501H39.9795C38.6625 24.4501 38.6685 24.4501 38.7795 23.1001C38.796 22.9051 38.8515 22.8511 39.039 22.8526C39.932 22.8616 40.825 22.8616 41.718 22.8526C41.916 22.8526 41.988 22.9216 41.9625 23.1091C41.9625 23.1256 41.9625 23.1421 41.9625 23.1586C42.0225 24.4456 42.024 24.4456 40.7625 24.4456L40.3755 24.4501Z" fill="#A2A2A2"/>
<path d="M46.7356 9.5509C46.5991 10.0114 46.8361 10.3129 47.3281 10.6189C48.2446 11.1874 48.4006 12.1414 48.3271 13.1479C48.3181 13.2739 48.2731 13.3249 48.1486 13.3219C47.9986 13.3219 47.8486 13.3219 47.6986 13.3219C47.3986 13.3219 47.0461 13.4164 46.8241 13.2859C46.6021 13.1554 46.7656 12.7714 46.7296 12.5014C46.6471 11.9014 45.6886 11.4169 45.2086 11.7514C44.9311 11.9419 45.2251 13.0474 45.6046 13.2319C45.7561 13.2976 45.9195 13.3313 46.0846 13.3309C46.6842 13.3622 47.2493 13.6208 47.6648 14.0542C48.0804 14.4876 48.3151 15.063 48.3211 15.6634C48.3211 16.3744 48.3121 17.0869 48.3211 17.7979C48.3211 18.0379 48.2521 18.0979 48.0211 18.0979C47.5981 18.0979 47.0341 17.9089 46.7941 18.1849C46.5871 18.4234 46.7236 18.9724 46.7371 19.3849C46.7461 19.6279 46.6636 19.6849 46.4371 19.6849C45.1486 19.7329 45.1366 19.7404 45.1561 18.4849C45.1561 18.1159 45.0736 17.9134 44.7196 17.7259C43.8196 17.2489 43.3531 16.0909 43.5556 15.0844C43.5796 14.9644 43.6126 14.9089 43.7356 14.9119C43.8856 14.9119 44.0356 14.9119 44.1856 14.9119C44.4856 14.9119 44.8381 14.8174 45.0616 14.9479C45.2851 15.0784 45.1186 15.4624 45.1546 15.7324C45.2371 16.3324 46.1971 16.8154 46.6756 16.4824C46.9546 16.2919 46.6591 15.1864 46.2796 15.0004C46.1279 14.9353 45.9647 14.9017 45.7996 14.9014C45.2002 14.8701 44.6352 14.6114 44.2199 14.178C43.8047 13.7446 43.5703 13.1691 43.5646 12.5689C43.5646 11.8579 43.5721 11.1469 43.5646 10.4359C43.5646 10.1944 43.6336 10.1359 43.8646 10.1359C44.2861 10.1359 44.8501 10.3249 45.0916 10.0474C45.2971 9.8089 45.1621 9.2599 45.1471 8.8474C45.1381 8.6044 45.2206 8.5219 45.4546 8.5474C45.587 8.55491 45.7197 8.55491 45.8521 8.5474C46.7356 8.5504 46.7356 8.5504 46.7356 9.5509Z" fill="#FF8900"/>
</svg>
