<svg width="61" height="60" viewBox="0 0 61 60" fill="none" xmlns="http://www.w3.org/2000/svg">
<path d="M59.2386 47.7318C59.1246 47.7648 59.1321 47.8683 59.1051 47.9538C58.4166 50.0433 56.9526 51.0963 54.7341 51.0963H16.8591C13.2681 51.0963 9.6766 51.0963 6.0846 51.0963C3.8811 51.0963 2.1846 49.6518 1.8081 47.4963C1.6236 46.4148 1.9791 45.9813 3.0621 45.9813C10.3011 45.9813 17.5396 45.9813 24.7776 45.9813C24.9641 45.9756 25.1506 45.9897 25.3341 46.0233C25.5307 46.0647 25.7072 46.1722 25.8343 46.3278C25.9614 46.4834 26.0315 46.6778 26.0329 46.8787C26.0343 47.0796 25.967 47.275 25.842 47.4323C25.7171 47.5897 25.5421 47.6996 25.3461 47.7438C25.0889 47.7909 24.8273 47.8095 24.5661 47.7993C17.8661 47.7993 11.1701 47.7993 4.4781 47.7993H3.8586C4.0251 48.5688 4.8006 49.1718 5.7456 49.2798C5.93164 49.2958 6.11844 49.3013 6.3051 49.2963C22.4471 49.2963 38.5886 49.2963 54.7296 49.2963C55.7616 49.2963 56.5926 48.9678 57.1296 48.0408C57.1533 47.9929 57.1719 47.9426 57.1851 47.8908C57.1851 47.8743 57.1851 47.8548 57.1626 47.7843H36.3666C35.4501 47.7843 35.0166 47.5053 34.9971 46.9053C34.9776 46.3053 35.4351 45.9768 36.3741 45.9768C43.5191 45.9768 50.6641 45.9738 57.8091 45.9678C58.3716 45.9678 58.8591 46.0533 59.2386 46.4943V47.7318Z" fill="#A2A2A2"/>
<path d="M25.7886 40.0857C27.9957 40.9467 30.381 41.2506 32.7336 40.9707C38.9586 40.2432 43.8996 35.8812 45.4566 29.7822C47.5176 21.7077 42.2226 13.3182 34.0476 11.7087C32.5964 11.4237 31.1123 11.3444 29.6391 11.4732C29.3226 11.5002 29.2176 11.5632 29.3151 11.9067C29.8641 13.8657 30.4071 15.8247 30.9141 17.7942C31.0131 18.1797 31.2261 18.1812 31.5141 18.1962C33.3796 18.2828 35.1544 19.0267 36.5241 20.2962C36.9741 20.7012 37.0641 21.1812 36.7911 21.5877C36.7235 21.6957 36.6328 21.7874 36.5255 21.8562C36.4182 21.9249 36.2971 21.9691 36.1707 21.9854C36.0444 22.0018 35.9159 21.9899 35.7947 21.9507C35.6735 21.9115 35.5624 21.846 35.4696 21.7587C34.8227 21.1474 34.0584 20.6739 33.2229 20.3671C32.3874 20.0602 31.4983 19.9264 30.6096 19.9737C29.9991 19.9962 29.5596 19.6122 29.3856 19.0047C28.6966 16.5047 28.0186 14.0017 27.3516 11.4957C27.1161 10.6092 27.5856 9.93124 28.4886 9.80074C32.9886 9.14824 37.1436 10.0692 40.7961 12.7707C45.7221 16.4142 48.0186 21.3942 47.6391 27.4992C47.1606 35.2497 41.1501 41.5857 33.3996 42.7032C30.4996 43.1255 27.5394 42.763 24.8271 41.6532C23.7186 41.2107 23.4771 40.4907 24.0861 39.4347C25.2861 37.3277 26.4911 35.2212 27.7011 33.1152C28.1916 32.2587 28.5921 32.0907 29.5506 32.3187C30.5892 32.5775 31.6769 32.5655 32.7096 32.2839C33.7423 32.0023 34.6855 31.4606 35.4491 30.7104C36.2127 29.9602 36.771 29.0267 37.0709 27.9992C37.3707 26.9716 37.4019 25.8843 37.1616 24.8412C37.0116 24.1122 37.2381 23.6142 37.7916 23.4912C38.3451 23.3682 38.7501 23.6952 38.9076 24.3312C39.3355 26.1095 39.1478 27.9803 38.3751 29.6382C37.6025 31.296 36.2905 32.6428 34.6536 33.4587C33.1191 34.2232 31.3793 34.4735 29.6916 34.1727C29.4351 34.1307 29.2161 34.0692 29.0361 34.3902C27.9771 36.2832 26.9001 38.1582 25.7886 40.0857Z" fill="#A2A2A2"/>
<path d="M14.415 26.2241C14.4178 24.0668 14.847 21.9314 15.678 19.9406C16.0995 18.9251 16.824 18.6656 17.778 19.2101C19.959 20.4451 22.131 21.6866 24.294 22.9346C25.026 23.3546 25.206 23.7926 25.014 24.6161C24.4455 27.0431 25.0605 29.1161 26.8395 30.8591C27.3225 31.3346 27.381 31.8281 27.009 32.2346C26.637 32.6411 26.097 32.6411 25.5855 32.1461C23.499 30.1301 22.6755 27.6776 23.1345 24.8156C23.1915 24.4646 23.115 24.3236 22.8345 24.1646C21.111 23.1926 19.3845 22.2221 17.685 21.2111C17.2635 20.9606 17.16 21.0611 17.019 21.4706C14.949 27.4706 17.064 34.3106 22.1715 38.0981C22.9215 38.6516 23.1045 39.1781 22.7235 39.6581C22.3425 40.1381 21.837 40.1081 21.1095 39.5501C16.74 36.1796 14.5755 31.7036 14.415 26.2241Z" fill="#A2A2A2"/>
<path d="M56.5041 31.5108C56.5041 35.5308 56.5041 39.5508 56.5041 43.5708C56.5041 44.4708 56.2041 44.9208 55.6041 44.9208C55.0041 44.9208 54.6891 44.4708 54.6891 43.5858C54.6891 35.6018 54.6891 27.6168 54.6891 19.6308C54.6891 18.8328 54.5391 18.1113 53.9496 17.5308C53.7012 17.2892 53.4062 17.1007 53.0825 16.9769C52.7588 16.8531 52.4133 16.7966 52.0671 16.8108C50.2671 16.8168 48.4716 16.8168 46.6806 16.8108C46.4568 16.8185 46.2328 16.8004 46.0131 16.7568C45.8327 16.7078 45.6725 16.6028 45.5556 16.4569C45.4386 16.3111 45.3709 16.1319 45.3623 15.9452C45.3536 15.7585 45.4044 15.5738 45.5073 15.4177C45.6103 15.2617 45.76 15.1423 45.9351 15.0768C46.1498 15.0141 46.3731 14.9857 46.5966 14.9928C48.3746 14.9868 50.1511 14.9868 51.9261 14.9928C54.6771 15.0033 56.4951 16.8138 56.5011 19.5618C56.5116 23.5503 56.5041 27.5268 56.5041 31.5108Z" fill="#A2A2A2"/>
<path d="M4.54975 31.3501C4.54975 27.4426 4.61125 23.5336 4.52725 19.6276C4.47325 17.1571 6.26875 14.8981 9.21025 14.9776C10.5378 15.0151 11.8668 14.9776 13.1943 14.9776C13.7073 14.9776 14.1213 15.1531 14.2338 15.7126C14.3598 16.3336 13.9458 16.7836 13.2123 16.7911C11.7918 16.8046 10.3623 16.7911 8.94925 16.7911C7.66075 16.8016 6.69925 17.5111 6.42625 18.6766C6.36733 18.9885 6.34368 19.306 6.35575 19.6231C6.33975 27.5511 6.32575 35.4791 6.31375 43.4071C6.32007 43.6314 6.31205 43.8559 6.28975 44.0791C6.22675 44.5786 5.91025 44.8426 5.42725 44.8816C4.97725 44.9176 4.58725 44.5546 4.51975 44.0641C4.49898 43.8593 4.49246 43.6533 4.50025 43.4476C4.50025 39.4076 4.50025 35.3686 4.50025 31.3306L4.54975 31.3501Z" fill="#A2A2A2"/>
<path d="M23.9259 20.9313C23.6676 20.9354 23.414 20.8628 23.1969 20.7228C20.9934 19.4613 18.7854 18.2058 16.5879 16.9353C15.7464 16.4508 15.5889 15.6993 16.1544 14.8983C18.0134 12.248 20.6151 10.2073 23.6319 9.03327C24.4974 8.68977 25.2144 9.03327 25.4649 9.93327C26.1589 12.4333 26.8389 14.9358 27.5049 17.4408C27.6699 18.0528 27.4779 18.5688 26.9304 18.8838C26.149 19.326 25.4444 19.8918 24.8439 20.5593C24.7287 20.6862 24.5863 20.7856 24.4274 20.85C24.2684 20.9144 24.097 20.9422 23.9259 20.9313ZM25.6479 17.4168C25.6269 17.3523 25.6074 17.2998 25.5939 17.2458C25.0494 15.2298 24.4974 13.2183 23.9664 11.1993C23.8674 10.8198 23.6799 10.9683 23.4879 11.0583C21.3949 12.0259 19.5566 13.4686 18.1194 15.2718C17.9124 15.5283 17.9259 15.6378 18.2154 15.8013C19.9854 16.8013 21.7494 17.8113 23.5074 18.8313C23.7309 18.9603 23.8794 18.9813 24.0729 18.7698C24.4606 18.3654 24.8987 18.0125 25.3764 17.7198C25.4919 17.6433 25.6704 17.6073 25.6479 17.4168Z" fill="#FF8900"/>
<path d="M30.5004 47.7889C29.9769 47.7889 29.4504 47.8024 28.9299 47.7889C28.3494 47.7694 27.9684 47.4184 27.9489 46.9204C27.9294 46.4224 28.3299 46.0024 28.9314 45.9904C29.9764 45.9694 31.0229 45.9694 32.0709 45.9904C32.6709 46.0024 33.0699 46.4074 33.0519 46.9204C33.0339 47.4334 32.6529 47.7694 32.0709 47.7889C31.5504 47.8024 31.0269 47.7889 30.5004 47.7889Z" fill="#A2A2A2"/>
</svg>
