<svg width="60" height="60" viewBox="0 0 60 60" fill="none" xmlns="http://www.w3.org/2000/svg">
<path d="M29.5022 19.8135C23.4192 19.8135 17.3367 19.8105 11.2547 19.8045C10.8452 19.8045 10.7102 19.881 10.7117 20.328C10.7277 25.991 10.7277 31.654 10.7117 37.317C10.7117 37.8345 10.8737 37.896 11.3237 37.8945C14.8667 37.8765 18.4097 37.884 21.9542 37.884C22.8797 37.884 23.0732 38.0505 23.2022 38.943C23.3027 39.642 23.7887 40.1595 24.4952 40.215C25.2017 40.2705 25.8812 40.2555 26.5742 40.2585C28.1447 40.2585 29.7242 40.2585 31.2872 40.2585C31.4695 40.2516 31.6519 40.2637 31.8317 40.2945C32.0329 40.3324 32.213 40.4431 32.3377 40.6054C32.4624 40.7678 32.5229 40.9703 32.5077 41.1744C32.4924 41.3786 32.4026 41.5699 32.2552 41.712C32.1078 41.854 31.9133 41.9368 31.7087 41.9445C29.2442 41.952 26.7752 42.006 24.3122 41.9175C23.0732 41.8725 22.1942 41.0865 21.7112 39.942C21.5777 39.627 21.4232 39.5565 21.1112 39.5565C16.6372 39.5655 12.1622 39.5655 7.68621 39.5565C7.27671 39.5565 7.16421 39.648 7.17921 40.0695C7.26471 42.6195 9.29421 44.5695 11.9327 44.58C16.3157 44.592 20.7002 44.58 25.0832 44.58H31.5497C32.2742 44.58 32.6402 44.868 32.6387 45.4275C32.6372 45.987 32.2652 46.284 31.5422 46.2885C30.4637 46.2975 29.3867 46.2885 28.3082 46.2885C22.9202 46.2885 17.5322 46.2885 12.1442 46.2885C9.61221 46.2885 7.64421 45.27 6.30921 43.0785C5.46471 41.685 5.37921 40.146 5.47971 38.586C5.50821 38.145 5.83971 37.881 6.31371 37.8795C7.04421 37.8795 7.77621 37.848 8.50521 37.8885C8.95521 37.9125 9.03921 37.7505 9.03771 37.3365C9.02771 29.8095 9.02371 22.2835 9.02571 14.7585C9.02571 13.818 9.19521 12.9465 9.81171 12.2085C10.5887 11.274 11.5937 10.8945 12.8012 10.8975C17.4407 10.9155 22.0802 10.8975 26.7197 10.8975C33.2397 10.8975 39.7602 10.8975 46.2812 10.8975C48.0932 10.8975 49.3862 11.7825 49.8887 13.3395C50.007 13.7042 50.0662 14.0855 50.0642 14.469C50.0642 18.854 50.0642 23.238 50.0642 27.621C50.0642 28.296 49.7642 28.671 49.2272 28.671C48.6902 28.671 48.3422 28.3005 48.3407 27.5985C48.3407 25.17 48.3257 22.74 48.3512 20.31C48.3512 19.8675 48.2237 19.7835 47.8097 19.785C41.7057 19.812 35.6032 19.8215 29.5022 19.8135ZM29.5697 18.102H35.4317C39.5582 18.102 43.6817 18.0945 47.8127 18.114C48.2507 18.114 48.3587 17.9925 48.3452 17.571C48.3137 16.5855 48.3377 15.5985 48.3347 14.613C48.3287 13.3275 47.6222 12.6 46.3502 12.6C35.1352 12.6 23.9217 12.6 12.7097 12.6C11.4797 12.6 10.7342 13.35 10.7237 14.58C10.7237 15.5655 10.7477 16.5525 10.7117 17.538C10.6937 17.988 10.8077 18.111 11.2712 18.1095C17.3722 18.0965 23.4717 18.094 29.5697 18.102Z" fill="#A2A2A2"/>
<path d="M40.5709 31.7494C40.9592 31.7227 41.3442 31.8366 41.6554 32.0704C41.9554 32.2834 42.1054 32.2954 42.2014 31.8634C42.4279 30.8449 43.1014 30.3109 44.1514 30.2779C44.8084 30.2589 45.4659 30.2589 46.1239 30.2779C47.1739 30.3109 47.8519 30.8494 48.0739 31.8604C48.1669 32.2909 48.3064 32.2669 48.6199 32.0749C49.5094 31.5304 50.3584 31.6249 51.1144 32.3524C51.5644 32.7814 51.9979 33.2239 52.4314 33.6679C53.2249 34.4779 53.3314 35.2834 52.7314 36.2389C52.5349 36.5569 52.5814 36.6589 52.9369 36.7534C54.0859 37.0534 54.5509 37.6939 54.5539 38.8924C54.5539 39.4924 54.5629 40.0924 54.5539 40.7014C54.5374 41.6854 53.9539 42.4174 52.9984 42.6094C52.5769 42.6949 52.5214 42.8134 52.7599 43.1794C53.3089 44.0239 53.2099 44.8999 52.5079 45.6244C52.0389 46.1104 51.5609 46.5884 51.0739 47.0584C50.3524 47.7574 49.4809 47.8609 48.6319 47.3134C48.2779 47.0869 48.1609 47.1079 48.0664 47.5444C47.8474 48.5524 47.1454 49.0819 46.1014 49.0924C45.4624 49.1004 44.8234 49.1004 44.1844 49.0924C43.1449 49.0819 42.4339 48.5479 42.2134 47.5489C42.1204 47.1259 42.0184 47.0749 41.6524 47.3119C40.8034 47.8609 39.9274 47.7619 39.2089 47.0599C38.7239 46.5889 38.2464 46.1114 37.7764 45.6274C37.0789 44.9074 36.9724 44.0209 37.5169 43.1824C37.7509 42.8239 37.7149 42.6964 37.2844 42.6094C36.3274 42.4174 35.7424 41.6854 35.7244 40.7044C35.7139 40.0654 35.7244 39.4264 35.7244 38.7874C35.7244 37.7089 36.2479 37.0279 37.2874 36.7729C37.6819 36.6769 37.7644 36.5689 37.5184 36.1954C36.9784 35.3734 37.0684 34.4989 37.7374 33.7954C38.2249 33.2779 38.7364 32.7799 39.2479 32.2849C39.4173 32.1063 39.6231 31.966 39.8513 31.8736C40.0795 31.7813 40.3249 31.7389 40.5709 31.7494ZM45.1504 47.4244C45.4249 47.4244 45.6994 47.4139 45.9724 47.4244C46.2454 47.4349 46.3879 47.3434 46.4569 47.0449C46.7929 45.5779 48.0889 45.0319 49.3954 45.8104C49.6819 45.9814 49.8529 45.9244 50.0554 45.7114C50.4214 45.3289 50.7949 44.9524 51.1804 44.5894C51.4054 44.3764 51.4204 44.2084 51.2494 43.9324C50.4874 42.7039 51.0439 41.3599 52.4599 41.0029C52.7464 40.9309 52.8634 40.8319 52.8574 40.5409C52.8439 39.9754 52.8454 39.4084 52.8574 38.8429C52.8574 38.5879 52.7944 38.4244 52.5154 38.3929C51.1039 38.2129 50.4394 36.4939 51.2764 35.4019C51.4459 35.1814 51.4054 35.0149 51.2164 34.8334C50.8084 34.4404 50.4049 34.0429 50.0164 33.6334C49.8214 33.4294 49.6744 33.4024 49.4164 33.5674C48.1549 34.3609 46.7899 33.8014 46.4659 32.3599C46.3984 32.0599 46.2769 31.9654 45.9904 31.9744C45.4789 31.9879 44.9659 31.9954 44.4559 31.9744C44.0749 31.9579 43.8874 32.0389 43.8004 32.4799C43.5889 33.5644 42.3574 34.3294 41.4199 33.8029C40.5199 33.3034 40.1269 33.6874 39.6469 34.2679C39.5187 34.4226 39.3761 34.5648 39.2209 34.6924C38.9029 34.9489 38.8429 35.1694 39.0949 35.5594C39.7099 36.5074 39.3334 37.8979 38.2744 38.2069C37.4389 38.4514 37.3639 38.8954 37.4299 39.5734C37.4524 39.8835 37.4524 40.1948 37.4299 40.5049C37.4149 40.8049 37.5079 40.9369 37.8334 41.0164C39.2449 41.3629 39.7939 42.7129 39.0334 43.9489C38.8534 44.2399 38.9119 44.3989 39.1264 44.5984C39.4849 44.9374 39.8419 45.2809 40.1764 45.6484C40.4389 45.9484 40.6444 45.9814 41.0089 45.7534C42.0589 45.0964 43.4524 45.5809 43.7479 46.7569C43.9054 47.3809 44.1979 47.4979 44.7274 47.4334C44.8681 47.4227 45.0093 47.4197 45.1504 47.4244Z" fill="#FF8900"/>
<path d="M24.6858 29.2172C23.4078 29.2172 22.1358 29.2172 20.8503 29.2172C20.1573 29.2172 19.7583 28.8827 19.7688 28.3352C19.7793 27.7877 20.1678 27.4922 20.8278 27.4922C23.4038 27.4922 25.9793 27.4922 28.5543 27.4922C29.2158 27.4922 29.5788 27.8132 29.5698 28.3652C29.5698 28.8902 29.2053 29.2097 28.5768 29.2157C27.2808 29.2247 25.9833 29.2172 24.6858 29.2172Z" fill="#A2A2A2"/>
<path d="M24.6916 33.8508C23.3776 33.8508 22.0651 33.8508 20.7511 33.8508C20.1301 33.8508 19.7641 33.5238 19.7686 33.0033C19.7731 32.4828 20.1241 32.1723 20.7151 32.1708C23.3611 32.1618 26.0066 32.1618 28.6516 32.1708C29.2411 32.1708 29.5756 32.5068 29.5696 33.0213C29.5636 33.5358 29.2276 33.8463 28.6321 33.8493C27.3196 33.8553 26.0056 33.8508 24.6916 33.8508Z" fill="#A2A2A2"/>
<path d="M24.6228 24.5328C23.3448 24.5328 22.0728 24.5328 20.7903 24.5328C20.1528 24.5328 19.7898 24.2328 19.7703 23.7228C19.7508 23.2128 20.1213 22.8408 20.7843 22.8378C23.3763 22.8288 25.9673 22.8288 28.5573 22.8378C29.2308 22.8378 29.5833 23.1678 29.5698 23.7153C29.5563 24.2628 29.1993 24.5328 28.5093 24.5343C27.2133 24.5358 25.9173 24.5328 24.6228 24.5328Z" fill="#A2A2A2"/>
<path d="M15.6694 24.5266C15.4144 24.5266 15.1579 24.5446 14.9059 24.5266C14.7021 24.5196 14.5094 24.4328 14.3691 24.2849C14.2288 24.137 14.1522 23.9399 14.1559 23.7361C14.1427 23.6355 14.1497 23.5332 14.1766 23.4354C14.2035 23.3375 14.2497 23.246 14.3124 23.1662C14.3752 23.0864 14.4532 23.0199 14.542 22.9707C14.6307 22.9215 14.7285 22.8905 14.8294 22.8796C15.4066 22.7927 15.9936 22.7927 16.5709 22.8796C17.0434 22.9501 17.2669 23.2996 17.2444 23.7361C17.2496 23.9405 17.1736 24.1386 17.033 24.2871C16.8924 24.4356 16.6987 24.5222 16.4944 24.5281C16.2184 24.5461 15.9439 24.5266 15.6694 24.5266Z" fill="#A2A2A2"/>
<path d="M15.7318 27.4917C15.9508 27.4917 16.1698 27.4797 16.3888 27.4917C16.8718 27.5232 17.2558 27.8742 17.2483 28.3152C17.2483 28.7922 16.9798 29.1387 16.5058 29.1867C15.9616 29.24 15.4135 29.24 14.8693 29.1867C14.6573 29.1625 14.463 29.0568 14.3275 28.8919C14.1921 28.727 14.126 28.5159 14.1433 28.3032C14.2063 27.8367 14.4793 27.5397 14.9653 27.4977C15.2188 27.4752 15.4753 27.4932 15.7318 27.4917Z" fill="#A2A2A2"/>
<path d="M15.6739 33.8445C15.4189 33.8445 15.1624 33.8625 14.9089 33.8445C14.6976 33.831 14.4998 33.7361 14.3571 33.5797C14.2144 33.4233 14.138 33.2176 14.1439 33.006C14.1799 32.568 14.4004 32.223 14.8744 32.193C15.4193 32.157 15.966 32.157 16.5109 32.193C16.7241 32.208 16.9227 32.3069 17.0633 32.4679C17.2038 32.629 17.2749 32.8392 17.2609 33.0525C17.2507 33.2638 17.1609 33.4634 17.0095 33.6112C16.8581 33.759 16.6564 33.844 16.4449 33.849C16.1914 33.864 15.9364 33.849 15.6814 33.849L15.6739 33.8445Z" fill="#A2A2A2"/>
<path d="M35.2505 16.2005C32.2505 16.2005 29.255 16.2005 26.264 16.2005C25.7 16.2005 25.316 15.8495 25.304 15.3635C25.292 14.8775 25.682 14.5205 26.234 14.4845C26.384 14.4755 26.5265 14.4845 26.672 14.4845H44.0465C44.1926 14.4782 44.3389 14.4817 44.4845 14.495C44.9855 14.5685 45.2795 14.912 45.2615 15.395C45.2612 15.5052 45.2386 15.6142 45.195 15.7154C45.1513 15.8166 45.0876 15.9079 45.0077 15.9837C44.9278 16.0596 44.8333 16.1185 44.7299 16.1568C44.6266 16.195 44.5165 16.2119 44.4065 16.2065C43.385 16.2215 42.362 16.2065 41.339 16.2065L35.2505 16.2005Z" fill="#A2A2A2"/>
<path d="M13.9351 14.4775C14.165 14.4978 14.3784 14.6056 14.5311 14.7787C14.6838 14.9517 14.7642 15.1769 14.7556 15.4075C14.7323 15.632 14.6221 15.8383 14.4486 15.9826C14.2751 16.1269 14.0521 16.1975 13.8272 16.1795C13.6023 16.1615 13.3934 16.0562 13.2451 15.8861C13.0968 15.7161 13.0209 15.4948 13.0336 15.2695C13.062 15.0505 13.1692 14.8494 13.3351 14.7036C13.501 14.5579 13.7143 14.4775 13.9351 14.4775Z" fill="#A2A2A2"/>
<path d="M20.5936 16.1911C20.3733 16.1826 20.1648 16.0897 20.0112 15.9316C19.8576 15.7736 19.7707 15.5625 19.7686 15.3421C19.7705 15.1118 19.8634 14.8917 20.0269 14.7296C20.1904 14.5675 20.4113 14.4766 20.6416 14.4766C20.8619 14.4881 21.0695 14.5836 21.2215 14.7435C21.3736 14.9033 21.4586 15.1154 21.4591 15.3361C21.4605 15.4496 21.439 15.5623 21.3959 15.6674C21.3528 15.7725 21.2889 15.8678 21.2081 15.9476C21.1273 16.0274 21.0312 16.0901 20.9256 16.132C20.8201 16.1738 20.7071 16.1939 20.5936 16.1911Z" fill="#A2A2A2"/>
<path d="M18.0764 15.3552C18.0748 15.5753 17.9871 15.786 17.8321 15.9422C17.677 16.0983 17.4669 16.1876 17.2469 16.1907C17.1331 16.1927 17.0202 16.1713 16.915 16.1278C16.8099 16.0844 16.7148 16.0198 16.6356 15.9381C16.5564 15.8564 16.4949 15.7593 16.4547 15.6529C16.4146 15.5464 16.3968 15.4328 16.4024 15.3192C16.4071 15.0972 16.4999 14.8862 16.6602 14.7326C16.8206 14.579 17.0354 14.4954 17.2574 14.5002C17.4793 14.505 17.6903 14.5977 17.8439 14.7581C17.9975 14.9184 18.0811 15.1332 18.0764 15.3552Z" fill="#A2A2A2"/>
<path d="M45.1622 35.5743C45.9766 35.5835 46.7699 35.8336 47.4423 36.2931C48.1147 36.7526 48.6359 37.401 48.9403 38.1563C49.2447 38.9117 49.3186 39.7403 49.1527 40.5376C48.9868 41.3349 48.5885 42.0652 48.0081 42.6365C47.4277 43.2077 46.6911 43.5943 45.8912 43.7475C45.0914 43.9006 44.2641 43.8135 43.5136 43.4971C42.7632 43.1807 42.1233 42.6492 41.6746 41.9696C41.2259 41.29 40.9884 40.4927 40.9922 39.6783C41.0021 38.5815 41.4468 37.5334 42.2285 36.764C43.0103 35.9946 44.0654 35.5667 45.1622 35.5743ZM42.7022 39.7098C42.7036 40.3551 42.9613 40.9734 43.4186 41.4287C43.8758 41.884 44.4952 42.139 45.1405 42.1376C45.7858 42.1362 46.404 41.8785 46.8593 41.4212C47.3146 40.964 47.5696 40.3446 47.5682 39.6993C47.5668 39.054 47.3092 38.4358 46.8519 37.9805C46.3946 37.5252 45.7753 37.2702 45.13 37.2716C44.4847 37.273 43.8664 37.5306 43.4111 37.9879C42.9558 38.4451 42.7008 39.0645 42.7022 39.7098Z" fill="#FF8900"/>
</svg>
