<svg width="58" height="58" viewBox="0 0 58 58" fill="none" xmlns="http://www.w3.org/2000/svg">
<circle cx="28.8922" cy="28.8922" r="28.3922" fill="#FFE7CC" stroke="white"/>
<g clip-path="url(#clip0_1564_16431)">
<path fill-rule="evenodd" clip-rule="evenodd" d="M32.5197 14.4316C32.7861 14.4316 32.9366 14.4664 33.093 14.559C33.2146 14.6285 33.4289 14.7849 33.5737 14.9007C33.7184 15.0223 33.9906 15.1903 34.1817 15.2829C34.5002 15.4277 34.5871 15.4451 35.1662 15.4451C35.7627 15.4451 35.8264 15.4335 36.2086 15.254C36.4344 15.1497 36.6603 15.0687 36.7124 15.0687C36.7703 15.0687 36.8745 15.0976 36.944 15.1381C37.0193 15.1729 37.1062 15.2424 37.1467 15.2945C37.1873 15.3466 37.222 15.474 37.222 15.5725C37.222 15.6767 37.1815 15.9547 37.1351 16.1863C37.083 16.4122 36.9904 16.7712 36.9267 16.9797C36.8572 17.1882 36.6834 17.5877 36.5329 17.8773C36.3476 18.2421 36.1391 18.5259 35.8322 18.8502C35.531 19.1687 35.2936 19.3598 35.0504 19.4756C34.8593 19.5683 34.5639 19.6667 34.0948 19.7304L34.4365 19.0355C34.6276 18.6533 34.8766 18.0684 34.9925 17.7325C35.1256 17.3387 35.1894 17.0723 35.1662 16.9797C35.143 16.8986 35.0735 16.777 35.004 16.7017C34.9114 16.6091 34.8129 16.5743 34.6566 16.5743C34.506 16.5743 34.396 16.6149 34.3091 16.7017C34.2338 16.777 34.0891 17.0839 33.9848 17.3851C33.8806 17.6862 33.6779 18.1726 33.5389 18.4564C33.3999 18.7402 33.1799 19.1397 32.8208 19.7015H32.5313C32.2475 19.7015 32.2417 19.6957 32.0448 19.3945C31.9406 19.2324 31.7205 18.8328 31.5584 18.5143C31.402 18.1958 31.1878 17.6862 31.0835 17.3851C30.9735 17.0666 30.8345 16.777 30.7592 16.7017C30.6666 16.6168 30.5469 16.5743 30.4002 16.5743C30.2438 16.5743 30.1454 16.6091 30.0411 16.7249C29.9369 16.8291 29.8964 16.9334 29.9022 17.0839C29.9079 17.1997 30.0064 17.5588 30.128 17.8773C30.2438 18.1958 30.487 18.7402 30.9735 19.7304L30.6666 19.6841C30.4986 19.6609 30.2149 19.5741 30.0411 19.493C29.8674 19.4119 29.5952 19.2382 29.4389 19.105C29.2825 18.9718 29.0393 18.7054 28.9003 18.5143C28.7555 18.3232 28.5528 17.9989 28.4486 17.7904C28.3444 17.582 28.188 17.194 28.1069 16.9218C28.0201 16.6496 27.9158 16.2326 27.8753 15.9952C27.8232 15.6767 27.8174 15.5146 27.8637 15.3929C27.8985 15.3003 27.9795 15.1903 28.0432 15.1439C28.1069 15.1034 28.2228 15.0687 28.3038 15.0687C28.3849 15.0687 28.6281 15.1497 28.854 15.254C29.1725 15.3987 29.3578 15.4451 29.7226 15.4624C30.0527 15.4798 30.2902 15.4624 30.5334 15.3872C30.7245 15.335 30.9735 15.2366 31.0835 15.1729C31.1936 15.1034 31.3673 14.976 31.4599 14.8891C31.5526 14.8023 31.7495 14.6633 31.8943 14.5822C32.0969 14.4664 32.2359 14.4316 32.5139 14.4316H32.5197ZM25.1072 19.0702C25.1188 19.0645 25.1246 19.881 25.1188 22.6838L24.6844 23.205C24.4412 23.4888 24.1806 23.842 24.0996 23.9868C24.0011 24.1605 23.9664 24.2937 23.9895 24.3806C24.0069 24.4501 24.088 24.5717 24.169 24.6528C24.2617 24.7454 24.3775 24.7976 24.4991 24.7976C24.6034 24.7976 24.7308 24.7686 24.7887 24.7281C24.8408 24.6875 25.0493 24.4443 25.2462 24.1895C25.4489 23.9347 25.8369 23.4772 26.109 23.1761C26.387 22.8749 26.8503 22.4175 27.1456 22.1626C27.441 21.9078 27.8753 21.5546 28.1069 21.3809C28.3444 21.2071 28.7497 20.9234 29.4968 20.4485L30.3365 20.7149L29.7863 21.2535C29.2709 21.7515 29.2362 21.8036 29.2362 22.0179C29.2362 22.2032 29.2709 22.2785 29.4099 22.3943C29.5084 22.4754 29.6589 22.5391 29.7574 22.5391C29.8848 22.5391 30.0238 22.458 30.2786 22.2379C30.4697 22.07 30.8924 21.6762 31.2167 21.3693C31.5468 21.0566 31.8595 20.8075 31.9116 20.8018C32.0043 20.8018 32.0159 20.8828 32.0159 21.6704C32.0159 22.5101 32.0217 22.5449 32.1607 22.7128C32.2765 22.8518 32.3518 22.8865 32.5313 22.8865C32.6992 22.8865 32.7919 22.846 32.9077 22.7302C33.064 22.568 33.064 22.568 33.0583 21.6878C33.0583 20.8828 33.0698 20.8018 33.1567 20.8018C33.2146 20.8075 33.5042 21.0334 33.7995 21.3114C34.0948 21.5893 34.5176 21.9773 34.7434 22.18C35.0446 22.4522 35.1836 22.5391 35.3168 22.5391C35.4152 22.5391 35.5658 22.4754 35.6642 22.3943C35.809 22.2727 35.8379 22.209 35.8379 22.0063C35.8322 21.7689 35.809 21.7341 34.7261 20.7149L35.5773 20.4485L36.0117 20.7207C36.2491 20.8655 36.6834 21.1666 36.9672 21.3809C37.251 21.5951 37.7374 21.9947 38.0385 22.2669C38.3397 22.5391 38.7566 22.9502 38.9651 23.1819C39.1736 23.4135 39.4805 23.7725 39.6542 23.981C39.8222 24.1895 40.1117 24.5717 40.2912 24.8265C40.4708 25.0813 40.7719 25.5388 40.963 25.8399C41.1483 26.1411 41.4958 26.7955 41.739 27.2877C41.9822 27.7799 42.3065 28.5154 42.4571 28.9266C42.6076 29.3319 42.8335 30.0095 42.9551 30.4322C43.0767 30.8492 43.2447 31.5209 43.3315 31.9205C43.4126 32.3201 43.5226 33.0092 43.5747 33.4551C43.6384 34.0111 43.6616 34.5033 43.6384 35.0187C43.6211 35.4299 43.5516 36.0379 43.4879 36.368C43.4184 36.6923 43.2852 37.1556 43.1925 37.393C43.0999 37.6304 42.9088 38.0069 42.7698 38.2327C42.6366 38.4528 42.3934 38.7829 42.237 38.9624C42.0749 39.1477 41.7679 39.4315 41.5421 39.5994C41.3162 39.7615 40.9282 40.0048 40.6734 40.1322C40.4186 40.2538 40.0422 40.4159 39.8337 40.4912C39.6253 40.5607 39.2199 40.6765 38.9361 40.7402C38.4323 40.856 38.2586 40.8618 27.7884 40.8966L27.7595 34.7292L27.6089 34.4686C27.522 34.3238 27.3309 34.0921 27.1746 33.9532C27.0182 33.8142 26.746 33.6289 26.5723 33.542C26.3986 33.4551 26.0685 33.3277 25.8484 33.2582C25.6226 33.1887 25.1825 33.0903 24.864 33.044C24.5397 32.9918 24.0011 32.9629 23.0108 32.9861L22.9819 28.7876C22.9529 24.786 22.9471 24.5833 22.8429 24.3922C22.7792 24.2822 22.6113 24.0737 22.4665 23.9347C22.3217 23.7957 21.9916 23.5814 21.7368 23.4598C21.482 23.3324 21.0651 23.1819 20.8103 23.1182C20.5555 23.0545 20.1617 22.985 19.9416 22.9676C19.7158 22.9502 19.4783 22.9271 19.2756 22.8865V21.0044C19.2756 19.9679 19.293 19.1224 19.3162 19.1224C19.3451 19.1224 19.5941 19.215 19.8837 19.3193C20.1675 19.4293 20.6365 19.5625 20.9261 19.6146C21.3372 19.6899 21.6673 19.7073 22.4607 19.6899C23.3467 19.6609 23.5378 19.6436 23.9953 19.5046C24.2791 19.4177 24.6439 19.2845 24.8061 19.2092C24.9624 19.1339 25.1014 19.0702 25.1072 19.0702ZM32.0217 25.7183L32.0159 26.0716C31.5873 26.1179 31.3094 26.2048 31.1183 26.2974C30.9272 26.3843 30.6608 26.5696 30.5218 26.7028C30.3886 26.8302 30.2033 27.1024 30.1048 27.3051C30.0122 27.502 29.9195 27.8089 29.8964 27.9826C29.8732 28.1969 29.8906 28.4227 29.9601 28.6775C30.0122 28.886 30.1338 29.1814 30.238 29.3377C30.3423 29.4941 30.516 29.7025 30.626 29.7952C30.7361 29.8937 30.9735 30.0384 31.1472 30.1195C31.321 30.1948 31.5873 30.2759 31.7437 30.2932L32.0159 30.328C32.0159 32.3548 32.0101 32.4417 31.9116 32.4417C31.8595 32.4417 31.709 32.3954 31.5815 32.3375C31.4541 32.2796 31.2804 32.1406 31.1935 32.0305C31.0893 31.9031 31.014 31.712 30.9735 31.4862C30.933 31.2661 30.8635 31.0924 30.7824 31.0055C30.6897 30.9129 30.5913 30.8723 30.4233 30.8723C30.2612 30.8723 30.1512 30.9129 30.0585 31.0055C29.989 31.0808 29.9137 31.2024 29.9022 31.2835C29.8848 31.3646 29.8964 31.573 29.9311 31.7468C29.9659 31.9205 30.0469 32.1811 30.1164 32.3259C30.1859 32.4707 30.3654 32.7023 30.5102 32.8529C30.655 32.9976 30.9156 33.1829 31.0893 33.2698C31.263 33.3567 31.5468 33.4435 31.7147 33.4725L32.0159 33.513C32.0101 34.1558 32.0332 34.2311 32.1607 34.3701C32.2707 34.4917 32.3575 34.5265 32.5371 34.5265C32.7166 34.5265 32.8035 34.4917 32.9135 34.3701C33.0409 34.2311 33.064 34.1558 33.0583 33.8605V33.513C33.5273 33.4435 33.8053 33.3625 33.9674 33.2814C34.1354 33.2003 34.4018 33.015 34.5523 32.8644C34.7029 32.7081 34.8882 32.4707 34.9577 32.3259C35.0272 32.1811 35.1141 31.9089 35.1488 31.7178C35.1951 31.4688 35.1951 31.2777 35.1488 31.0403C35.1141 30.855 35.0214 30.577 34.9403 30.4148C34.8593 30.2585 34.6855 30.0153 34.5465 29.8763C34.4134 29.7431 34.1875 29.5694 34.0427 29.4999C33.898 29.4304 33.62 29.3377 33.4173 29.2972L33.0583 29.2277C33.0583 27.6583 33.0756 27.1835 33.0988 27.1603C33.122 27.1371 33.2378 27.1487 33.3478 27.1835C33.4578 27.2182 33.62 27.2935 33.7069 27.3514C33.7995 27.4151 33.9153 27.5599 33.979 27.6815C34.0369 27.7973 34.1006 28.0174 34.1238 28.1737C34.147 28.3822 34.1991 28.4806 34.3323 28.5907C34.4249 28.6717 34.5581 28.7354 34.6218 28.7354C34.6855 28.7354 34.8071 28.7007 34.894 28.6544C34.9867 28.6138 35.0909 28.4864 35.1372 28.3822C35.2067 28.22 35.2067 28.1274 35.143 27.8378C35.1083 27.6467 35.0156 27.3746 34.9403 27.2298C34.8708 27.085 34.7029 26.8592 34.5697 26.726C34.4423 26.587 34.1701 26.4017 33.9674 26.3032C33.7705 26.2106 33.4868 26.1179 33.3304 26.1005L33.0583 26.0716C33.0583 25.4172 33.0409 25.3593 32.8845 25.2029C32.7687 25.0871 32.6529 25.0292 32.5313 25.0292C32.4097 25.0292 32.2996 25.0813 32.1896 25.1971C32.0448 25.3477 32.0217 25.4172 32.0217 25.7183ZM41.6695 34.7465C41.5653 34.8739 41.5305 35.0013 41.4958 35.3951C41.4784 35.6673 41.4089 36.0437 41.351 36.2348C41.2931 36.4259 41.1483 36.7618 41.0325 36.9876C40.9167 37.2135 40.6966 37.5146 40.546 37.6652C40.3897 37.8158 40.1117 38.03 39.9206 38.1458C39.7295 38.2559 39.3763 38.4122 39.1388 38.4933C38.9014 38.5686 38.5481 38.6555 38.357 38.6902C38.1659 38.7192 37.8127 38.7655 37.5752 38.7887C37.2104 38.8234 37.1178 38.8524 37.0077 38.9798C36.9267 39.0724 36.8745 39.2056 36.8803 39.3214C36.8803 39.4315 36.9324 39.5704 37.0193 39.6689C37.1583 39.8195 37.1757 39.8252 37.7027 39.8137C37.998 39.8079 38.4902 39.75 38.7914 39.6805C39.0925 39.6168 39.55 39.4778 39.8048 39.3735C40.0596 39.2693 40.4476 39.0666 40.6734 38.9161C40.8993 38.7713 41.2294 38.4875 41.4147 38.2848C41.6348 38.0416 41.849 37.7173 42.0343 37.3351C42.1907 37.0166 42.3586 36.5996 42.4107 36.4085C42.4629 36.2174 42.5208 35.8005 42.5381 35.482C42.5671 34.9666 42.5555 34.8855 42.4571 34.7581C42.3934 34.677 42.2718 34.6017 42.1907 34.5844C42.1096 34.567 41.988 34.5612 41.9243 34.5728C41.8548 34.5844 41.7448 34.6597 41.6695 34.7465ZM17.104 39.3562C17.851 39.3735 18.1927 39.4083 18.5228 39.4952C18.7602 39.5589 19.073 39.6689 19.2177 39.7384C19.3625 39.8079 19.5478 39.9353 19.6405 40.0221C19.7563 40.1322 19.7968 40.2306 19.7968 40.3754C19.7968 40.5202 19.7563 40.6244 19.6405 40.7344C19.5478 40.8213 19.3335 40.9545 19.1598 41.0356C18.9861 41.1166 18.656 41.2267 18.4359 41.2846C18.1232 41.3599 17.7816 41.383 16.9592 41.3888C16.0906 41.3888 15.7952 41.3657 15.3957 41.273C15.1235 41.2093 14.7471 41.0819 14.556 40.9834C14.3069 40.856 14.1738 40.7518 14.0927 40.5954C13.9827 40.3928 13.9827 40.3754 14.0753 40.1785C14.139 40.0511 14.278 39.9121 14.4228 39.831C14.5618 39.75 14.7992 39.6457 14.9613 39.5936C15.1177 39.5415 15.4478 39.4662 15.6852 39.4199C15.9921 39.362 16.4149 39.3446 17.104 39.3562ZM14.0464 41.8811C14.0753 41.8811 14.3127 41.9737 14.5849 42.0779C14.8571 42.188 15.2972 42.3212 15.5694 42.3791C15.9053 42.4486 16.328 42.4775 16.9013 42.4775C17.3646 42.4833 17.909 42.4486 18.1174 42.408C18.3259 42.3733 18.7023 42.2748 18.9571 42.1938C19.2119 42.1069 19.4899 42.0085 19.5768 41.9621C19.6694 41.9158 19.7621 41.8811 19.7968 41.8811C19.8316 41.8811 19.8489 42.1185 19.8374 42.5123C19.8258 43.0972 19.8142 43.1609 19.681 43.3056C19.5999 43.3925 19.3509 43.5431 19.1309 43.6473C18.905 43.7516 18.4823 43.8905 18.1869 43.96C17.7931 44.0469 17.4631 44.0816 16.9129 44.0816C16.4496 44.0816 16.0269 44.0469 15.7721 43.989C15.5462 43.9427 15.2103 43.8442 15.0192 43.7805C14.8281 43.7168 14.5791 43.6068 14.4691 43.5431C14.3591 43.4736 14.2085 43.352 14.1332 43.2709C14.0116 43.1377 14 43.074 14.0058 42.5065C14.0058 42.159 14.0232 41.8811 14.0464 41.8811ZM38.3802 15.7057C38.4323 15.7057 38.6292 15.7809 38.8203 15.8736C39.0172 15.9663 39.3183 16.1921 39.5037 16.3832C39.7237 16.6033 39.9206 16.8697 40.0538 17.1476C40.2565 17.553 40.2681 17.6167 40.2681 18.1321C40.2681 18.5664 40.2391 18.7575 40.1407 19.0065C40.0712 19.1803 39.8917 19.464 39.7353 19.632C39.5847 19.7999 39.4689 19.9447 39.4863 19.9563C39.5037 19.9621 39.6832 20.02 39.8917 20.0721C40.1001 20.13 40.5518 20.3095 40.9051 20.4833C41.2525 20.657 41.6753 20.906 41.8432 21.045C42.0112 21.184 42.2139 21.3867 42.2949 21.4967C42.376 21.6067 42.4397 21.7689 42.4397 21.8615C42.4397 21.9542 42.376 22.0874 42.2718 22.1916C42.1675 22.2958 42.0401 22.3653 41.9533 22.3653C41.8722 22.3653 41.7506 22.3422 41.6869 22.3074C41.6232 22.2785 41.461 22.1395 41.322 22.0063C41.1831 21.8673 40.8761 21.653 40.6387 21.5314C40.4013 21.404 40.0422 21.2477 39.8337 21.1782C39.6253 21.1087 39.3126 21.0218 39.1388 20.9813C38.9651 20.9465 38.6408 20.8944 38.4149 20.8712C38.0327 20.8249 37.969 20.796 37.4015 20.3906C37.0656 20.1532 36.724 19.9157 36.6313 19.8578C36.5444 19.8057 36.4807 19.7478 36.4865 19.7304C36.4981 19.7188 36.805 19.6957 37.1699 19.6899C37.7721 19.6725 37.8706 19.6551 38.2123 19.493C38.4207 19.3945 38.6929 19.215 38.8145 19.0876C38.9419 18.966 39.0925 18.7575 39.1504 18.6301C39.2025 18.5027 39.2546 18.2942 39.2546 18.1668C39.2546 18.0221 39.1909 17.802 39.0867 17.5877C38.994 17.3908 38.8203 17.1592 38.6929 17.055C38.5713 16.9565 38.386 16.8349 38.2818 16.7944C38.1775 16.7538 38.1022 16.6959 38.1138 16.6612C38.1312 16.6322 38.1717 16.4006 38.2181 16.1574C38.2702 15.8157 38.3107 15.7057 38.3802 15.7057ZM22.3738 16.5975C23.2135 16.6149 23.5031 16.6438 23.8795 16.7423C24.1343 16.8117 24.4702 16.9392 24.6265 17.026C24.7829 17.1129 24.9566 17.2519 25.0145 17.3445C25.0782 17.4314 25.1246 17.5414 25.1246 17.5877C25.1246 17.6341 25.0898 17.7441 25.0493 17.8252C25.0145 17.9062 24.8813 18.0337 24.7597 18.1147C24.6439 18.19 24.3544 18.3174 24.1227 18.3927C23.8969 18.468 23.4568 18.5664 23.1556 18.607C22.8082 18.6533 22.3333 18.6649 21.8526 18.6417C21.4067 18.6185 20.9029 18.5548 20.6192 18.4854C20.3586 18.4217 20.0227 18.3058 19.8663 18.2305C19.7158 18.1553 19.5362 18.0279 19.461 17.9526C19.3915 17.8831 19.3278 17.7383 19.3162 17.6341C19.3104 17.5067 19.3451 17.4082 19.4494 17.2982C19.5304 17.2113 19.6694 17.0955 19.7679 17.0376C19.8605 16.9797 20.069 16.887 20.2312 16.8349C20.3875 16.7828 20.7002 16.7017 20.9261 16.6554C21.204 16.6033 21.6557 16.5859 22.3738 16.5975ZM19.015 23.9926C19.6521 23.9926 20.0227 24.0158 20.4049 24.0968C20.6886 24.1548 21.094 24.2764 21.2967 24.369C21.4994 24.4617 21.731 24.6065 21.8063 24.6991C21.8816 24.786 21.9395 24.9308 21.9395 25.0292C21.9395 25.145 21.8816 25.2666 21.7484 25.394C21.65 25.4983 21.4067 25.643 21.2156 25.7183C21.0245 25.7878 20.7002 25.8921 20.4918 25.9442C20.2196 26.0137 19.8316 26.0368 19.073 26.0368C18.2564 26.0426 17.9321 26.0195 17.5673 25.9384C17.3125 25.8747 16.9419 25.7531 16.7392 25.6604C16.5423 25.5678 16.328 25.423 16.2643 25.3361C16.1948 25.2435 16.1427 25.0871 16.1485 24.9887C16.1485 24.8381 16.2006 24.757 16.3917 24.5949C16.5539 24.4617 16.8029 24.3343 17.104 24.2416C17.3588 24.1605 17.6947 24.0737 17.8568 24.0505C18.0132 24.0216 18.5344 23.9984 19.015 23.9926ZM21.9221 26.4827C21.9337 26.477 21.9395 27.9826 21.9453 33.1656L21.5226 33.3219C21.2909 33.4088 20.9666 33.5652 20.8103 33.6636C20.6481 33.7621 20.4338 33.9242 20.3296 34.0226C20.2196 34.1269 20.069 34.3296 19.8547 34.7581V36.8139C19.8547 38.1458 19.8316 38.8697 19.7968 38.8697C19.7621 38.8697 19.6694 38.835 19.5768 38.7887C19.4899 38.7423 19.2119 38.6439 18.9571 38.557C18.7023 38.4759 18.3259 38.3775 18.1174 38.3427C17.909 38.3022 17.382 38.2675 16.1485 38.2617V32.4012C16.1485 29.1756 16.1659 26.5349 16.189 26.5349C16.218 26.5349 16.4554 26.6275 16.7276 26.7375C16.9998 26.8418 17.4515 26.975 17.741 27.0271C18.1522 27.1082 18.4765 27.1198 19.2756 27.0966C20.0748 27.0734 20.3875 27.0387 20.7523 26.9402C21.0072 26.8707 21.372 26.7375 21.5631 26.6507C21.7542 26.558 21.9163 26.4827 21.9221 26.4827ZM23.7347 34.0111C23.9085 34.0111 24.2849 34.0342 24.5744 34.0632C24.8582 34.0979 25.252 34.1616 25.4431 34.2138C25.6342 34.2601 25.9179 34.3585 26.0801 34.4338C26.2364 34.5091 26.4449 34.6423 26.5318 34.7349C26.6418 34.8508 26.6939 34.9608 26.6881 35.094C26.6881 35.2098 26.636 35.3314 26.5434 35.4241C26.4623 35.5051 26.2364 35.6441 26.0338 35.7368C25.8369 35.8352 25.4547 35.9568 25.1825 36.0148C24.8234 36.09 24.4412 36.1132 23.7637 36.1132C23.144 36.1074 22.7039 36.0785 22.4317 36.0148C22.2059 35.9684 21.87 35.8642 21.6789 35.7947C21.4878 35.7252 21.2388 35.5746 21.1172 35.4588C20.9898 35.3314 20.9029 35.1924 20.8971 35.1056C20.8971 35.0245 20.955 34.8855 21.0245 34.7929C21.0998 34.7002 21.262 34.567 21.3894 34.4917C21.5168 34.4222 21.8179 34.3064 22.0553 34.2427C22.2928 34.1732 22.6981 34.0979 22.9529 34.069C23.2077 34.0458 23.561 34.0169 23.7347 34.0111ZM20.874 36.5707L21.3662 36.7618C21.6326 36.866 22.1248 37.005 22.4607 37.0745C22.9877 37.1845 23.1962 37.1961 24.0243 37.173C24.7192 37.1556 25.0956 37.115 25.4141 37.0282C25.6515 36.9645 26.0395 36.8313 26.6881 36.5533V39.3041C26.6881 40.8155 26.665 42.1011 26.636 42.159C26.6129 42.2111 26.4623 42.3385 26.3059 42.437C26.1496 42.5354 25.8137 42.686 25.5589 42.7671C25.3041 42.8482 24.8003 42.9466 24.4296 42.9813C23.9316 43.0335 23.6189 43.0393 23.1846 42.9871C22.8661 42.9524 22.4491 42.8829 22.258 42.8366C22.0669 42.7845 21.7658 42.6802 21.592 42.5991C21.4183 42.5181 21.1867 42.3733 20.8971 42.0837L20.874 36.5707ZM31.9695 27.1603C32.0043 27.1719 32.0217 27.612 32.0217 28.22C32.0159 29.1698 32.0043 29.2566 31.9116 29.2566C31.8537 29.2566 31.709 29.2103 31.5815 29.1466C31.4541 29.0887 31.292 28.9787 31.2225 28.9034C31.153 28.8281 31.0661 28.6949 31.0314 28.608C30.9967 28.5212 30.9735 28.3301 30.9735 28.1853C30.9735 28.0405 31.0198 27.8263 31.0893 27.6931C31.153 27.5657 31.2746 27.4151 31.3615 27.3514C31.4484 27.2935 31.6105 27.2182 31.7205 27.1892C31.8248 27.1603 31.9406 27.1429 31.9695 27.1603ZM33.0698 30.2932L33.2494 30.328C33.3478 30.3511 33.5331 30.438 33.6605 30.5249C33.7821 30.6059 33.9327 30.7681 33.9964 30.8781C34.0775 31.0287 34.1006 31.1735 34.0891 31.4341C34.0717 31.7178 34.0369 31.8279 33.898 32.0074C33.7995 32.1348 33.62 32.2796 33.4926 32.3375C33.3652 32.3954 33.2146 32.4417 33.1567 32.4417C33.064 32.4417 33.0583 32.3548 33.064 31.3704L33.0698 30.2932Z" fill="#FF8900"/>
</g>
<defs>
<clipPath id="clip0_1564_16431">
<rect width="29.65" height="29.65" fill="white" transform="translate(14 14.4316)"/>
</clipPath>
</defs>
</svg>
