<svg width="58" height="58" viewBox="0 0 58 58" fill="none" xmlns="http://www.w3.org/2000/svg">
<circle cx="28.8922" cy="28.8922" r="28.3922" fill="#FFE7CC" stroke="white"/>
<path d="M26.4218 19.0904C26.1033 19.1773 25.6979 19.3105 25.5242 19.3916C25.3504 19.4726 25.0377 19.6522 24.8292 19.7911C24.6208 19.9301 24.2965 20.2023 24.0996 20.3934C23.9085 20.5903 23.6363 20.9146 23.4973 21.1231C23.3583 21.3315 23.173 21.6616 23.0804 21.8585C22.9935 22.0612 22.8603 22.4492 22.7908 22.7272C22.6982 23.121 22.6692 23.3989 22.6692 23.9317C22.675 24.4413 22.7097 24.7482 22.7966 25.0899C22.8661 25.3447 23.0109 25.7501 23.1267 25.9875C23.2425 26.225 23.4452 26.5782 23.5784 26.7693C23.7174 26.9604 24.0127 27.2847 24.2328 27.4932C24.4586 27.7017 24.7829 27.9565 24.9509 28.0549C25.1246 28.1592 25.4721 28.3329 25.7269 28.4429C25.9875 28.5587 26.4276 28.6861 26.7403 28.744C27.1341 28.8135 27.4584 28.8309 27.8695 28.8077C28.188 28.7846 28.6455 28.7151 28.883 28.6514C29.1204 28.5819 29.4968 28.4429 29.7227 28.3329C29.9485 28.2286 30.2554 28.0491 30.4176 27.9333C30.5739 27.8175 30.8693 27.5627 31.072 27.3658C31.2746 27.1631 31.5526 26.833 31.6916 26.6245C31.8306 26.4161 32.0101 26.0975 32.0912 25.9122C32.1723 25.7327 32.2939 25.391 32.3576 25.1594C32.4271 24.9336 32.4908 24.4819 32.5139 24.1634C32.5371 23.7522 32.5197 23.4279 32.4502 23.0341C32.3923 22.7214 32.2649 22.2813 32.1491 22.0207C32.0391 21.7659 31.8653 21.4184 31.7611 21.2447C31.6626 21.0767 31.4078 20.7524 31.1994 20.5266C30.9909 20.3065 30.6666 20.0112 30.4755 19.8722C30.2844 19.739 29.9311 19.5305 29.6937 19.4205C29.4563 19.3047 28.9988 19.1483 28.6803 19.0673C28.2517 18.963 27.9564 18.9225 27.551 18.9283C27.1514 18.9341 26.8387 18.9804 26.4218 19.0904ZM39.0751 30.0123C38.8493 30.0876 38.4613 30.4524 35.9654 32.9483L33.1104 35.8033C31.6974 34.3961 31.1936 33.9444 31.0835 33.8865C30.9619 33.8228 30.7535 33.7822 30.5624 33.7822C30.3539 33.7822 30.1628 33.8228 30.0122 33.9038C29.8848 33.9733 29.7227 34.0892 29.6532 34.1644C29.5837 34.2339 29.4852 34.3961 29.4389 34.5119C29.3868 34.6335 29.3462 34.8536 29.3462 35.0041C29.3462 35.1605 29.3926 35.3748 29.4505 35.4964C29.5026 35.6122 30.1744 36.3476 30.9388 37.1236C32.1259 38.334 32.3749 38.5656 32.6645 38.693C32.844 38.7741 33.0467 38.8436 33.1104 38.8436C33.1741 38.8436 33.371 38.7799 33.5447 38.6988C33.8169 38.5714 34.3207 38.0965 37.1525 35.2474C39.6137 32.7746 40.4708 31.877 40.5634 31.6743C40.6387 31.5237 40.6966 31.321 40.6966 31.2284C40.6966 31.1357 40.6677 30.9562 40.6387 30.8346C40.604 30.7188 40.4708 30.4987 40.3376 30.3539C40.1581 30.1628 40.0075 30.0702 39.799 30.0065C39.6427 29.9602 39.4689 29.9254 39.4226 29.9312C39.3763 29.9312 39.2199 29.9717 39.0751 30.0123ZM25.9585 31.4021C25.6052 31.4484 24.9335 31.5585 24.4528 31.6569C23.978 31.7496 23.2599 31.9233 22.8603 32.0391C22.4607 32.155 21.899 32.3461 21.6152 32.4561C21.3315 32.5661 20.8624 32.7746 20.5729 32.9136C20.2891 33.0526 19.8432 33.3016 19.5884 33.4637C19.3336 33.6317 18.9166 33.9791 18.6618 34.2339C18.407 34.4945 18.129 34.8304 18.0422 34.9925C17.9553 35.1489 17.8453 35.4385 17.799 35.6296C17.7237 35.8959 17.7063 36.2897 17.7063 37.3495V38.7278C26.2191 38.7278 28.7092 38.7104 28.7266 38.6814C28.7498 38.6583 28.4486 38.3166 28.0548 37.917C27.5337 37.3842 27.2904 37.0889 27.1341 36.7878C27.0183 36.5619 26.8677 36.1739 26.7982 35.9191C26.7345 35.6527 26.6824 35.2705 26.6824 35.0215C26.6824 34.7725 26.7345 34.3903 26.7982 34.1239C26.8677 33.8691 27.0183 33.4811 27.1341 33.2552C27.2904 32.9599 27.5337 32.6588 28.0548 32.126L28.7613 31.4021C28.4718 31.3326 27.9854 31.3153 27.4931 31.321C27.0009 31.3268 26.3117 31.3616 25.9585 31.4021Z" fill="#FF8900"/>
</svg>
