<svg width="58" height="58" viewBox="0 0 58 58" fill="none" xmlns="http://www.w3.org/2000/svg">
<circle cx="28.8922" cy="28.8922" r="28.3922" fill="#FFE7CC" stroke="white"/>
<path d="M27.8694 18.3274C27.6493 18.3853 27.2961 18.4953 27.0876 18.5822C26.8791 18.6632 26.5722 18.8196 26.3985 18.9238C26.2305 19.0223 25.8946 19.2945 25.6572 19.5145C25.414 19.7346 25.1013 20.1052 24.9507 20.3253C24.8059 20.5453 24.6033 20.9507 24.5048 21.2229C24.4006 21.4951 24.2847 21.9236 24.2442 22.1784C24.2037 22.4448 24.1863 22.8502 24.2095 23.1339C24.2268 23.4061 24.2847 23.7941 24.3369 24.0026C24.389 24.211 24.5453 24.6164 24.6843 24.9002C24.8233 25.1839 25.0839 25.5951 25.2576 25.8152C25.4372 26.0294 25.7209 26.3132 25.8831 26.4406C26.051 26.5738 26.3463 26.7707 26.5375 26.8807C26.7286 26.9907 27.1223 27.1645 27.4061 27.2629C27.9041 27.4366 27.9678 27.4482 28.8249 27.4482C29.6878 27.4482 29.7399 27.4366 30.2727 27.2571C30.5738 27.1529 31.0023 26.9502 31.2282 26.8112C31.454 26.678 31.7725 26.4348 31.9463 26.2842C32.1142 26.1279 32.3748 25.8441 32.5196 25.653C32.6643 25.4619 32.8786 25.0971 33.0002 24.8423C33.116 24.5875 33.2608 24.2226 33.3071 24.0315C33.3593 23.8404 33.4172 23.4235 33.4346 23.105C33.4577 22.717 33.4403 22.3753 33.3824 22.0626C33.3361 21.8078 33.2261 21.414 33.1392 21.1939C33.0466 20.9739 32.8844 20.6322 32.7744 20.4411C32.6643 20.25 32.3343 19.8562 32.0447 19.5724C31.5872 19.1149 31.4367 19.0049 30.9097 18.7501C30.5738 18.588 30.0758 18.4027 29.792 18.3332C29.4619 18.2521 29.1145 18.2116 28.7786 18.2173C28.5006 18.2173 28.0952 18.2695 27.8694 18.3274ZM19.7909 28.2242C19.5187 28.2821 19.1307 28.3979 18.9223 28.4848C18.7138 28.5717 18.3779 28.7396 18.1694 28.8612C17.961 28.9828 17.6077 29.255 17.3876 29.4577C17.1618 29.6662 16.8491 30.0252 16.6869 30.2627C16.5248 30.5001 16.3337 30.7954 16.27 30.9228C16.2063 31.0502 16.102 31.3108 16.0383 31.5019C15.9688 31.693 15.8299 32.33 15.714 32.9207C15.5403 33.8473 15.5229 34.021 15.5809 34.2237C15.6214 34.3743 15.7604 34.5712 15.9804 34.7854C16.2352 35.0402 16.4611 35.1908 16.907 35.4051C17.2371 35.5614 17.7119 35.741 17.9667 35.8104C18.2216 35.8741 18.679 35.9668 18.9802 36.0131C19.2813 36.0595 19.7909 36.1058 20.1036 36.1174L20.6827 36.1347C21.0649 33.4882 21.2445 32.4574 21.3255 32.1389C21.4182 31.7741 21.5977 31.2992 21.8178 30.8649C22.0031 30.4827 22.2868 30.0021 22.449 29.7936C22.6054 29.5851 22.8659 29.2724 23.0281 29.0987C23.1902 28.9249 23.3176 28.7744 23.3061 28.7744C23.3003 28.7686 23.1555 28.6991 22.9876 28.6122C22.8254 28.5311 22.4606 28.3922 22.1768 28.3111C21.8004 28.2011 21.4993 28.1547 20.9781 28.1374C20.4395 28.12 20.1731 28.1374 19.7909 28.2242ZM27.2324 28.1953C27.0123 28.2358 26.6706 28.3169 26.4795 28.3748C26.2884 28.4269 25.9641 28.5485 25.7557 28.647C25.5472 28.7396 25.1708 28.9539 24.916 29.1276C24.6612 29.2956 24.2732 29.6141 24.0531 29.8341C23.8388 30.0484 23.5435 30.3843 23.4103 30.5754C23.2713 30.7665 23.0513 31.1313 22.9239 31.3861C22.7965 31.6409 22.6285 32.0868 22.5474 32.3706C22.4548 32.6775 22.2521 33.8762 22.0494 35.295C21.7599 37.3161 21.7135 37.7331 21.7657 37.93C21.8062 38.0689 21.922 38.2485 22.0552 38.3759C22.1768 38.4975 22.4837 38.6944 22.727 38.8218C22.976 38.9434 23.3871 39.1113 23.6419 39.1924C23.8967 39.2793 24.2732 39.3835 24.4816 39.4298C24.6901 39.4819 25.1071 39.5572 25.4082 39.6036C25.7093 39.6557 26.3637 39.731 26.856 39.7831C27.3482 39.8294 28.2516 39.8699 28.8539 39.8699C29.4561 39.8699 30.3306 39.8294 30.7938 39.7831C31.2571 39.7368 31.9057 39.6557 32.2416 39.6036C32.5775 39.5514 33.1334 39.4356 33.4867 39.3488C33.8399 39.2561 34.3206 39.0997 34.558 38.9955C34.7954 38.8971 35.1197 38.7291 35.2819 38.6249C35.4382 38.5206 35.6178 38.3874 35.6699 38.3295C35.722 38.2716 35.8089 38.1211 35.8552 37.9994C35.9421 37.7968 35.9305 37.6694 35.6004 35.3356C35.4093 33.9921 35.2124 32.7412 35.1661 32.5559C35.1197 32.3764 35.0039 32.0231 34.9055 31.7741C34.8128 31.5309 34.5812 31.0908 34.3959 30.807C34.2048 30.5232 33.8573 30.0947 33.6257 29.8573C33.3882 29.6199 33.0002 29.2956 32.7628 29.1392C32.5254 28.977 32.1316 28.757 31.8941 28.647C31.6567 28.5369 31.2108 28.3806 30.9097 28.2995C30.4116 28.1663 30.2379 28.1547 28.9986 28.1374C28.0431 28.1258 27.5161 28.1431 27.2324 28.1953ZM36.0637 28.1721C35.9189 28.1953 35.6467 28.259 35.4556 28.3111C35.2645 28.369 34.9344 28.4906 34.7144 28.5833L34.3264 28.7512C34.9692 29.4924 35.2703 29.8862 35.4151 30.1121C35.5599 30.3379 35.7915 30.7549 35.9305 31.0386C36.0637 31.3224 36.2432 31.8204 36.3243 32.1389C36.4053 32.4574 36.5849 33.4882 36.7238 34.4264L36.9671 36.1347C37.8589 36.1058 38.4438 36.0479 38.8434 35.9784C39.2429 35.9147 39.7641 35.7989 40.0016 35.7178C40.239 35.6425 40.6444 35.4688 40.8992 35.3356C41.1656 35.1908 41.4956 34.9592 41.6867 34.7739C41.9242 34.5364 42.0226 34.3916 42.0747 34.1948C42.1153 34.021 42.1211 33.8531 42.0863 33.7025C42.0574 33.5751 41.9531 33.0655 41.8605 32.5733C41.762 32.0694 41.6115 31.4846 41.513 31.2413C41.4146 31.0039 41.1829 30.5869 41.0034 30.3206C40.8181 30.0484 40.4822 29.6604 40.2506 29.4519C40.0247 29.2434 39.6715 28.9713 39.4688 28.8496C39.2719 28.7338 38.9013 28.5543 38.658 28.4616C38.409 28.3632 37.9805 28.2474 37.6967 28.2011C37.4188 28.1547 36.996 28.1142 36.7586 28.12C36.5212 28.1258 36.2084 28.1489 36.0637 28.1721ZM20.0515 20.7828C19.8604 20.8233 19.5187 20.9507 19.2987 21.0549C19.0033 21.1939 18.7659 21.3734 18.4242 21.7151C18.0942 22.0394 17.903 22.2884 17.7756 22.5548C17.6772 22.7633 17.5556 23.0876 17.5035 23.2787C17.4571 23.4698 17.4166 23.8288 17.4166 24.0721C17.4166 24.3211 17.4456 24.6627 17.4803 24.8249C17.515 24.9928 17.6425 25.3461 17.7699 25.6067C17.9436 25.9715 18.0942 26.1858 18.4011 26.4927C18.708 26.7996 18.9223 26.9502 19.2871 27.1239C19.5477 27.2513 19.9009 27.3787 20.0631 27.4135C20.231 27.4482 20.5727 27.4772 20.8159 27.4772C21.0649 27.4772 21.424 27.4366 21.6151 27.3903C21.8062 27.3382 22.1305 27.2166 22.339 27.1181C22.5822 27.0023 22.8659 26.788 23.1323 26.5274L23.5551 26.1163C23.1555 25.3055 22.9702 24.8365 22.8891 24.5527C22.808 24.2632 22.7154 23.7593 22.6806 23.4235C22.6459 23.0181 22.6401 22.6533 22.6806 22.3232C22.7096 22.051 22.7559 21.7267 22.7791 21.5993C22.8196 21.3677 22.8138 21.3677 22.5359 21.1939C22.3795 21.1013 22.0842 20.9623 21.8757 20.887C21.6093 20.7886 21.3371 20.7422 20.9491 20.7249C20.6075 20.7133 20.2658 20.7306 20.0515 20.7828ZM36.2084 20.7596C36.081 20.7828 35.8436 20.858 35.6873 20.916C35.5251 20.9739 35.2703 21.1013 35.1139 21.1939C34.836 21.3677 34.8302 21.3677 34.8707 21.5993C34.8939 21.7267 34.9402 22.051 34.9692 22.3232C35.0097 22.6533 35.0039 23.0181 34.9692 23.4235C34.9344 23.7593 34.8418 24.2632 34.7607 24.5527C34.6738 24.8365 34.4943 25.3055 34.3553 25.5951L34.1005 26.1163C34.7839 26.788 35.0676 27.0023 35.3108 27.1181C35.5193 27.2166 35.8436 27.3382 36.0347 27.3903C36.2258 27.4366 36.5849 27.4772 36.8339 27.4772C37.0771 27.4772 37.4188 27.4482 37.5867 27.4135C37.7489 27.3787 38.1021 27.2513 38.3685 27.1239C38.7275 26.9502 38.9418 26.7996 39.2487 26.4927C39.5557 26.1858 39.7062 25.9715 39.88 25.6067C40.0074 25.3461 40.1348 24.9928 40.1695 24.8249C40.2042 24.6627 40.2332 24.3211 40.2332 24.0721C40.2332 23.8288 40.1927 23.4698 40.1463 23.2787C40.0942 23.0876 39.9726 22.7633 39.8742 22.5548C39.7525 22.3 39.5557 22.0394 39.2545 21.7383C38.965 21.4487 38.687 21.2345 38.438 21.1071C38.2295 21.0028 37.9458 20.8812 37.801 20.8349C37.6562 20.7886 37.2914 20.7422 36.9902 20.7306C36.6891 20.7191 36.3358 20.7306 36.2084 20.7596Z" fill="#FF8900"/>
</svg>
