<svg width="19" height="18" viewBox="0 0 19 18" fill="none" xmlns="http://www.w3.org/2000/svg">
<path d="M16.8857 5.60649V12.3286C16.8407 12.3484 16.8569 12.3893 16.8555 12.4222C16.8419 12.7486 16.7999 13.0732 16.73 13.3924C16.4298 14.764 15.6788 15.7864 14.39 16.3817C13.6286 16.7332 12.815 16.8209 11.9883 16.8421C11.933 16.8421 11.8673 16.8119 11.8209 16.8718H11.2359C10.9826 16.8216 10.722 16.8216 10.4687 16.8718H7.64494C7.402 16.8212 7.15123 16.8212 6.90829 16.8718H6.26569C6.22474 16.8115 6.16309 16.8439 6.11224 16.8421C5.62129 16.8277 5.13349 16.7912 4.65244 16.6859C2.86774 16.2962 1.67119 15.0475 1.35034 13.252C1.22569 12.5536 1.20904 11.8493 1.20364 11.1446C1.19239 9.72804 1.19014 8.30964 1.20364 6.89394C1.21129 6.08394 1.21714 5.26764 1.41469 4.47204C1.71754 3.25299 2.40019 2.32194 3.52069 1.73784C4.30819 1.32789 5.16544 1.21854 6.04069 1.18659C7.48789 1.13304 8.93554 1.15959 10.3827 1.15824C11.3484 1.15824 12.315 1.15194 13.2735 1.30809C15.1784 1.61859 16.5518 3.04779 16.7957 4.96614C16.824 5.17989 16.8195 5.39859 16.8857 5.60649ZM9.05164 15.4538C9.62449 15.4538 10.1973 15.4655 10.7702 15.4511C11.5509 15.4313 12.3362 15.4624 13.1102 15.308C14.2109 15.0884 14.9498 14.453 15.2787 13.369C15.4389 12.8402 15.4587 12.2921 15.4718 11.7467C15.5123 10.1669 15.5171 8.58654 15.4862 7.00554C15.4731 6.33054 15.4862 5.65554 15.3512 4.98909C15.123 3.83619 14.462 3.08019 13.3091 2.78004C12.6494 2.60814 11.9721 2.61084 11.2989 2.60004C10.0871 2.58384 8.87479 2.58879 7.66249 2.59239C6.79894 2.59509 5.93134 2.56809 5.07724 2.72199C3.90724 2.93259 3.12784 3.59319 2.81734 4.76679C2.66929 5.32614 2.65624 5.89944 2.64499 6.46959C2.61169 8.16789 2.61169 9.86604 2.64499 11.564C2.65399 12.0536 2.66974 12.5441 2.76154 13.0288C2.91004 13.8109 3.27139 14.4584 3.94909 14.8985C4.47199 15.2383 5.06689 15.3584 5.67799 15.3935C6.80119 15.4651 7.92664 15.4615 9.05164 15.4538Z" fill="white"/>
<path d="M10.4688 16.8736C10.722 16.8234 10.9827 16.8234 11.236 16.8736H10.4688Z" fill="white"/>
<path d="M6.9082 16.8734C7.15114 16.8228 7.40191 16.8228 7.64485 16.8734H6.9082Z" fill="white"/>
<path d="M13.0999 9.01718C13.0999 11.2411 11.2752 13.0627 9.05399 13.06C6.83279 13.0573 5.00984 11.2366 5.01074 9.01403C5.01164 6.79148 6.83639 4.96898 9.05759 4.97168C11.2788 4.97438 13.1013 6.79373 13.0999 9.01718ZM9.05309 11.6272C9.57009 11.6276 10.0756 11.4746 10.5056 11.1876C10.9356 10.9006 11.2708 10.4924 11.4687 10.0148C11.6665 9.53717 11.7183 9.01157 11.6172 8.50453C11.5162 7.9975 11.267 7.53184 10.9012 7.16652C10.5354 6.8012 10.0694 6.55264 9.5622 6.45233C9.05503 6.35201 8.52949 6.40445 8.05214 6.603C7.57478 6.80154 7.16708 7.13727 6.88065 7.56767C6.59421 7.99807 6.44193 8.50379 6.44309 9.02078C6.44286 9.36343 6.51023 9.70276 6.64135 10.0193C6.77248 10.3359 6.96478 10.6235 7.20723 10.8656C7.44969 11.1077 7.73753 11.2996 8.05428 11.4303C8.37103 11.561 8.71045 11.6279 9.05309 11.6272Z" fill="white"/>
<path d="M13.2506 5.75873C13.1269 5.75969 13.0043 5.73604 12.8899 5.68917C12.7754 5.64229 12.6714 5.57312 12.5839 5.48569C12.4965 5.39825 12.4272 5.2943 12.3803 5.17986C12.3334 5.06543 12.3097 4.94281 12.3106 4.81913C12.3094 4.56927 12.4072 4.32911 12.5826 4.15117C12.758 3.97323 12.9967 3.87201 13.2466 3.86963C13.4992 3.86963 13.7415 3.97 13.9202 4.14865C14.0989 4.32731 14.1992 4.56962 14.1992 4.82228C14.1985 4.94608 14.1734 5.06853 14.1253 5.18261C14.0773 5.2967 14.0072 5.4002 13.9191 5.48717C13.831 5.57415 13.7266 5.6429 13.6119 5.6895C13.4972 5.73609 13.3744 5.75962 13.2506 5.75873Z" fill="white"/>
</svg>
