<svg width="19" height="18" viewBox="0 0 19 18" fill="none" xmlns="http://www.w3.org/2000/svg">
<path d="M9.75979 7.9759C10.4271 6.92065 11.3667 6.48325 12.5354 6.48145C13.1397 6.48145 13.7297 6.5602 14.2805 6.82795C15.0522 7.20325 15.4662 7.85665 15.6903 8.65495C15.8568 9.24715 15.9153 9.856 15.9212 10.4666C15.9324 12.2284 15.9257 13.9906 15.9306 15.7528C15.9306 15.8743 15.8937 15.8986 15.7799 15.8981C14.9271 15.8936 14.0739 15.8923 13.2212 15.8981C13.0862 15.8981 13.0574 15.8617 13.0578 15.7321C13.0608 14.2003 13.0598 12.6683 13.0547 11.1362C13.0604 10.7719 13.0235 10.408 12.9449 10.0522C12.7455 9.2188 12.1605 8.92225 11.3649 8.99335C10.347 9.08335 10.0532 9.74664 9.93619 10.463C9.88715 10.8017 9.86548 11.1438 9.87139 11.4859C9.87139 12.9056 9.87139 14.3258 9.87544 15.7456C9.87544 15.8806 9.84709 15.922 9.70399 15.9206C8.85664 15.9125 8.00929 15.9139 7.16194 15.9206C7.03819 15.9206 7.00444 15.8941 7.00489 15.7658C7.00879 12.7958 7.00879 9.8272 7.00489 6.8599C7.00489 6.7249 7.03954 6.6943 7.17094 6.6952C7.97854 6.7015 8.78659 6.7015 9.59509 6.6952C9.72784 6.6952 9.76654 6.7285 9.76294 6.8626C9.75304 7.21765 9.75979 7.57405 9.75979 7.9759Z" fill="white"/>
<path d="M2.35659 11.3027C2.35659 9.8272 2.35884 8.35165 2.35254 6.8761C2.35254 6.7267 2.38854 6.69205 2.53614 6.6934C3.37764 6.7009 4.21914 6.7009 5.06064 6.6934C5.19564 6.6934 5.22534 6.73075 5.22489 6.8608C5.22129 9.8233 5.22129 12.7856 5.22489 15.7478C5.22489 15.8905 5.18754 15.9206 5.04939 15.9197C4.20249 15.9131 3.35544 15.9131 2.50824 15.9197C2.38134 15.9197 2.35209 15.8878 2.35254 15.7627C2.35839 14.2763 2.35659 12.7895 2.35659 11.3027Z" fill="white"/>
<path d="M3.77209 5.44584C2.86669 5.44359 2.12284 4.67859 2.12599 3.76014C2.13089 3.43203 2.23288 3.11272 2.41908 2.84252C2.60528 2.57231 2.86734 2.36331 3.1722 2.2419C3.47706 2.12048 3.81106 2.09209 4.13204 2.16031C4.45302 2.22853 4.7466 2.39029 4.97573 2.6252C5.20486 2.8601 5.35928 3.15761 5.4195 3.48019C5.47971 3.80276 5.44303 4.13595 5.31407 4.4377C5.18512 4.73944 4.96967 4.99623 4.69491 5.17566C4.42016 5.35508 4.09842 5.4491 3.77029 5.44584H3.77209Z" fill="white"/>
</svg>
