<svg width="46" height="17" viewBox="0 0 46 17" fill="none" xmlns="http://www.w3.org/2000/svg">
<path d="M6.43359 11.1934H2.54492V8.28223H6.43359C6.96354 8.28223 7.39323 8.19271 7.72266 8.01367C8.05208 7.83464 8.29199 7.58757 8.44238 7.27246C8.59993 6.9502 8.67871 6.58854 8.67871 6.1875C8.67871 5.75781 8.59993 5.36035 8.44238 4.99512C8.29199 4.62988 8.05208 4.33626 7.72266 4.11426C7.39323 3.88509 6.96354 3.77051 6.43359 3.77051H3.96289V16.5H0.192383V0.859375H6.43359C7.68685 0.859375 8.76465 1.08854 9.66699 1.54688C10.5765 2.00521 11.2747 2.63542 11.7617 3.4375C12.2487 4.23242 12.4922 5.14193 12.4922 6.16602C12.4922 7.17578 12.2487 8.05664 11.7617 8.80859C11.2747 9.56055 10.5765 10.1478 9.66699 10.5703C8.76465 10.9857 7.68685 11.1934 6.43359 11.1934ZM16.3916 0.859375H19.4639L22.9551 11.7412L26.4463 0.859375H29.5186L24.2012 16.5H21.709L16.3916 0.859375ZM14.5225 0.859375H17.7021L18.293 12.8477V16.5H14.5225V0.859375ZM28.208 0.859375H31.3984V16.5H27.6172V12.8477L28.208 0.859375Z" fill="#1E1E1E"/>
<path d="M41.0664 0.859375V16.5H37.2959V0.859375H41.0664ZM45.7715 0.859375V3.77051H32.6982V0.859375H45.7715Z" fill="#FF8900"/>
</svg>
