<svg width="9" height="13" viewBox="0 0 9 13" fill="none" xmlns="http://www.w3.org/2000/svg">
<path d="M5.05547 12.2C6.25781 10.6953 9 7.04844 9 5C9 2.51562 6.98438 0.5 4.5 0.5C2.01562 0.5 0 2.51562 0 5C0 7.04844 2.74219 10.6953 3.94453 12.2C4.23281 12.5586 4.76719 12.5586 5.05547 12.2ZM4.5 3.5C4.89782 3.5 5.27936 3.65804 5.56066 3.93934C5.84196 4.22064 6 4.60218 6 5C6 5.39782 5.84196 5.77936 5.56066 6.06066C5.27936 6.34196 4.89782 6.5 4.5 6.5C4.10218 6.5 3.72064 6.34196 3.43934 6.06066C3.15804 5.77936 3 5.39782 3 5C3 4.60218 3.15804 4.22064 3.43934 3.93934C3.72064 3.65804 4.10218 3.5 4.5 3.5Z" fill="#898989"/>
</svg>
