<svg width="48" height="48" viewBox="0 0 48 48" fill="none" xmlns="http://www.w3.org/2000/svg">
<path d="M23.9999 41.33H3.2399C2.7239 41.324 2.3999 41.0636 2.4071 40.6556C2.4143 40.2476 2.7107 40.0076 3.2099 40.004C4.2395 39.9968 5.2691 39.9752 6.2963 40.0136C6.7607 40.0316 6.8819 39.8936 6.8507 39.4448C6.8111 38.8532 6.8303 38.258 6.8507 37.6652C6.8591 37.3976 6.7691 37.316 6.5039 37.3196C6.0395 37.3256 5.5727 37.3604 5.1119 37.232C3.7523 36.8528 2.8679 35.7248 2.8679 34.3196C2.8679 26.1196 2.8679 17.9196 2.8679 9.71957C2.8679 7.96277 4.1807 6.66797 5.9543 6.66797C13.6551 6.66797 21.3551 6.66797 29.0543 6.66797H41.9591C43.8791 6.66797 45.1427 7.93277 45.1427 9.85997C45.1427 17.9504 45.1211 26.0408 45.1619 34.1312C45.1703 35.7464 43.9427 37.4288 41.9291 37.3364C41.1659 37.3004 41.1647 37.3364 41.1647 38.0888C41.1647 38.5688 41.1851 39.0584 41.1575 39.5408C41.1371 39.9008 41.2307 40.0208 41.6147 40.0148C42.5963 39.986 43.5779 40.0052 44.5607 40.0064C44.7011 40.0064 44.8415 40.0064 44.9807 40.0172C45.0634 40.0172 45.1452 40.0341 45.2212 40.0667C45.2972 40.0993 45.3658 40.1471 45.4228 40.207C45.4798 40.2669 45.524 40.3378 45.5528 40.4153C45.5816 40.4928 45.5944 40.5754 45.5903 40.658C45.5987 41.0312 45.3671 41.258 44.9987 41.3264C44.8591 41.3402 44.7187 41.3426 44.5787 41.3336L23.9999 41.33ZM23.9999 7.99277H6.1487C4.8287 7.99277 4.1771 8.64917 4.1771 9.97877V32.0456C4.1771 32.7956 4.1687 33.5444 4.1771 34.2944C4.1891 35.1284 4.7375 35.8196 5.5307 35.9684C5.8319 36.0248 6.1523 35.9684 6.4619 36.002C6.7715 36.0356 6.8531 35.9312 6.8495 35.6216C6.8315 34.3256 6.8375 33.0296 6.8435 31.7324C6.8435 31.058 7.0679 30.8444 7.7459 30.8444C9.4451 30.8444 11.1439 30.8444 12.8423 30.8444C13.5623 30.8444 13.7831 31.0664 13.7843 31.8044C13.7843 33.0848 13.7939 34.3652 13.7843 35.6444C13.7843 35.924 13.8407 36.0296 14.1443 36.0104C14.5954 35.9792 15.048 35.9792 15.4991 36.0104C15.8783 36.0404 15.9887 35.942 15.9875 35.5388C15.9695 31.37 15.9755 27.2 15.9767 23.03C15.9767 22.3556 16.1999 22.1336 16.8695 22.1324C18.5991 22.1324 20.3291 22.1324 22.0595 22.1324C22.6787 22.1324 22.8995 22.3508 22.8995 22.9724C22.8995 24.4712 22.8995 25.9724 22.8995 27.47C22.8995 30.1712 22.8995 32.87 22.8995 35.5748C22.8995 35.8664 22.9163 36.038 23.2847 36.0104C23.7669 35.9768 24.2509 35.9768 24.7331 36.0104C25.0775 36.0332 25.1363 35.906 25.1339 35.5904C25.1183 33.6536 25.1243 31.718 25.1267 29.7812C25.1267 29.1068 25.3439 28.892 26.0231 28.8908C27.7031 28.8908 29.3863 28.8908 31.0727 28.8908C31.8347 28.8908 32.0507 29.1032 32.0507 29.8508C32.0507 31.7708 32.0567 33.6908 32.0447 35.6108C32.0447 35.8988 32.0927 36.0308 32.4179 36.0044C32.8055 35.972 33.1967 35.996 33.5867 35.996C34.2311 35.996 34.2311 35.996 34.2311 35.3732C34.2311 30.7492 34.2311 26.1264 34.2311 21.5048C34.2311 20.7476 34.4447 20.5364 35.2031 20.5364C36.8399 20.5364 38.4763 20.5364 40.1123 20.5364C41.0063 20.5364 41.1743 20.702 41.1743 21.5972V35.42C41.1743 35.54 41.1743 35.6696 41.1743 35.7944C41.1743 35.9192 41.2055 35.9864 41.3519 35.9996C42.7919 36.1316 43.8551 35.6732 43.8503 33.932C43.8299 25.952 43.8419 17.972 43.8407 9.99197C43.8407 8.63837 43.1927 7.99277 41.8331 7.99277H23.9999ZM39.8219 30.9344C39.8219 28.0544 39.8159 25.1864 39.8291 22.3124C39.8291 21.98 39.7739 21.854 39.4031 21.8624C38.2655 21.89 37.1231 21.8828 35.9903 21.8624C35.6735 21.8624 35.5667 21.932 35.5667 22.2704C35.5779 28.0496 35.5779 33.8284 35.5667 39.6068C35.5667 39.9572 35.6927 40.0088 35.9975 40.0052C37.1195 39.9884 38.2427 39.9836 39.3647 40.0052C39.7247 40.0124 39.8339 39.9296 39.8315 39.5504C39.8135 36.6812 39.8219 33.8072 39.8219 30.9344ZM17.2979 31.6796C17.2979 34.3196 17.2979 36.9536 17.2907 39.5912C17.2907 39.9164 17.3723 40.016 17.7047 40.01C18.8567 39.9892 20.0091 39.9892 21.1619 40.01C21.4739 40.01 21.5843 39.9536 21.5843 39.6092C21.5723 34.3508 21.5723 29.092 21.5843 23.8328C21.5843 23.5364 21.5219 23.4332 21.2051 23.4392C20.0531 23.4596 18.8999 23.4656 17.7479 23.4392C17.3651 23.4308 17.2907 23.5592 17.2931 23.9108C17.3051 26.4992 17.2979 29.0888 17.2979 31.6796ZM26.4335 35.1056C26.4335 36.6188 26.4407 38.132 26.4263 39.644C26.4263 39.9308 26.4971 40.0136 26.7863 40.01C27.9695 39.992 29.1527 39.9896 30.3359 40.01C30.6671 40.016 30.7127 39.89 30.7115 39.6032C30.7035 36.608 30.7035 33.6128 30.7115 30.6176C30.7115 30.2948 30.6059 30.2288 30.3107 30.2324C29.1435 30.2476 27.9759 30.2476 26.8079 30.2324C26.5091 30.2324 26.4167 30.3008 26.4203 30.6128C26.4419 32.1104 26.4335 33.608 26.4335 35.1056ZM8.1863 36.0872C8.1863 37.2728 8.1959 38.4596 8.1863 39.644C8.1863 39.9332 8.2631 40.0124 8.5463 40.004C9.7295 39.9872 10.9127 39.9896 12.0959 40.004C12.3611 40.004 12.4403 39.9296 12.4391 39.6632C12.4303 37.2752 12.4303 34.888 12.4391 32.5016C12.4391 32.2328 12.3575 32.1596 12.0947 32.162C10.9115 32.1752 9.7283 32.1776 8.5451 32.162C8.2535 32.162 8.1779 32.2424 8.1851 32.522C8.1959 33.7196 8.1863 34.9016 8.1863 36.0872ZM25.1159 38.6672C25.1159 38.324 25.1015 37.9796 25.1159 37.6376C25.1291 37.3892 25.0415 37.3124 24.7967 37.3196C24.2675 37.3364 23.7371 37.334 23.2079 37.3196C22.9739 37.3136 22.8755 37.3724 22.8827 37.6292C22.8983 38.3156 22.8971 39.0032 22.8827 39.6896C22.8827 39.9368 22.9571 40.0136 23.2019 40.0064C23.7311 39.9908 24.2615 39.986 24.7895 40.0064C25.0775 40.0184 25.1279 39.8948 25.1147 39.6464C25.1027 39.3236 25.1159 38.9996 25.1159 38.6672ZM15.9431 38.69H15.9683C15.9683 38.33 15.9587 37.97 15.9683 37.616C15.9767 37.3976 15.9131 37.3136 15.6815 37.3196C15.1535 37.3348 14.6255 37.3348 14.0975 37.3196C13.8575 37.3124 13.7687 37.3856 13.7771 37.634C13.7927 38.132 13.7771 38.63 13.7771 39.128C13.7771 40.0028 13.7771 40.0136 14.6459 39.9992C15.0743 39.9908 15.6491 40.1924 15.8903 39.9092C16.1063 39.668 15.9431 39.1088 15.9431 38.69ZM32.0387 38.654C32.0387 38.996 32.0495 39.3392 32.0387 39.6812C32.0291 39.9092 32.0795 40.0184 32.3411 40.0088C32.8691 39.9896 33.3971 39.9956 33.9251 40.0088C34.1363 40.0088 34.2335 39.9632 34.2299 39.7268C34.2179 39.0272 34.2155 38.3264 34.2299 37.6268C34.2299 37.364 34.1267 37.3172 33.8975 37.3232C33.3863 37.3364 32.8727 37.3436 32.3603 37.3232C32.0735 37.31 32.0243 37.4324 32.0375 37.6832C32.0519 37.9988 32.0399 38.3264 32.0399 38.654H32.0387Z" fill="#414141"/>
<path d="M37.6501 12.2601C38.1909 12.2506 38.722 12.4037 39.1748 12.6996C39.6275 12.9955 39.9809 13.4206 40.1893 13.9197C40.3989 14.4181 40.4576 14.967 40.3579 15.4985C40.2583 16.0299 40.0048 16.5203 39.6289 16.9089C38.8453 17.7021 37.6201 17.9685 36.6181 17.5017C36.3169 17.3613 36.1729 17.4021 35.9557 17.6217C34.3805 19.1977 32.7953 20.7669 31.2001 22.3293C31.0045 22.5213 30.9241 22.6509 31.0573 22.9473C31.3 23.5009 31.3499 24.12 31.1989 24.7053C31.0479 25.2906 30.7047 25.8082 30.2245 26.1753C29.7477 26.5463 29.1611 26.7483 28.557 26.7493C27.9529 26.7504 27.3656 26.5506 26.8876 26.1812C26.4095 25.8119 26.0678 25.2941 25.9164 24.7093C25.7649 24.1244 25.8122 23.5059 26.0509 22.9509C26.1637 22.6905 26.1385 22.5501 25.9381 22.3509C24.3101 20.7589 22.6901 19.1589 21.0781 17.5509C20.9101 17.3841 20.7889 17.3481 20.5669 17.4561C20.2122 17.6371 19.8197 17.7314 19.4215 17.7314C19.0233 17.7314 18.6308 17.6371 18.2761 17.4561C18.0577 17.3505 17.9353 17.3745 17.7649 17.5449C16.1529 19.1553 14.5337 20.7577 12.9073 22.3521C12.7105 22.5453 12.6817 22.6845 12.7969 22.9521C12.9807 23.3869 13.0485 23.8619 12.9937 24.3307C12.9388 24.7996 12.7632 25.2461 12.4839 25.6267C12.2047 26.0073 11.8315 26.3088 11.4007 26.5019C10.97 26.6949 10.4965 26.7728 10.0266 26.7279C9.55671 26.6831 9.10652 26.517 8.72008 26.2459C8.33364 25.9749 8.0242 25.6081 7.82204 25.1816C7.61987 24.755 7.53192 24.2833 7.56677 23.8126C7.60162 23.3418 7.75809 22.8882 8.02087 22.4961C8.74087 21.4161 10.1809 20.9637 11.3545 21.5049C11.6641 21.6477 11.8045 21.5937 12.0169 21.3849C13.5841 19.8185 15.1593 18.2609 16.7425 16.7121C16.9621 16.4973 17.0425 16.3353 16.9021 16.0113C16.6729 15.4591 16.6328 14.8467 16.788 14.2693C16.9432 13.692 17.285 13.1822 17.7601 12.8193C18.2349 12.4515 18.8181 12.251 19.4188 12.249C20.0194 12.2471 20.6039 12.4439 21.0811 12.8086C21.5583 13.1734 21.9015 13.6858 22.0572 14.2659C22.2129 14.846 22.1724 15.4614 21.9421 16.0161C21.8161 16.3101 21.8521 16.4661 22.0741 16.6821C23.6829 18.2501 25.2829 19.8277 26.8741 21.4149C27.0625 21.6021 27.1921 21.6549 27.4597 21.5241C27.8093 21.3499 28.1952 21.2609 28.5858 21.2642C28.9764 21.2675 29.3607 21.3632 29.7073 21.5433C29.9329 21.6549 30.0517 21.6165 30.2185 21.4497C31.8417 19.8297 33.4713 18.2157 35.1073 16.6077C35.2765 16.4421 35.3005 16.3281 35.2021 16.1001C35.0141 15.6883 34.9321 15.2361 34.9636 14.7845C34.9951 14.3329 35.139 13.8964 35.3823 13.5147C35.6257 13.133 35.9606 12.8183 36.3567 12.5991C36.7528 12.38 37.1974 12.2635 37.6501 12.2601ZM28.5493 25.4109C28.9183 25.4104 29.2726 25.2662 29.5369 25.0087C29.8013 24.7513 29.955 24.401 29.9653 24.0321C29.9628 23.6536 29.8125 23.2911 29.5463 23.0221C29.2801 22.753 28.9193 22.5987 28.5409 22.5921C28.1711 22.6003 27.8195 22.7539 27.5623 23.0197C27.3051 23.2854 27.163 23.6419 27.1669 24.0117C27.1642 24.1948 27.1979 24.3766 27.2662 24.5464C27.3346 24.7163 27.436 24.8709 27.5647 25.0012C27.6934 25.1314 27.8467 25.2347 28.0158 25.3051C28.1848 25.3754 28.3662 25.4114 28.5493 25.4109ZM20.8261 14.9877C20.8184 14.622 20.6684 14.2737 20.4079 14.0168C20.1475 13.76 19.7972 13.6148 19.4314 13.6121C19.0656 13.6095 18.7132 13.7495 18.4491 14.0026C18.1849 14.2557 18.0299 14.6017 18.0169 14.9673C18.0102 15.1551 18.0412 15.3423 18.1082 15.5178C18.1751 15.6934 18.2765 15.8537 18.4065 15.9894C18.5365 16.1251 18.6923 16.2333 18.8649 16.3077C19.0374 16.382 19.2231 16.4211 19.411 16.4224C19.5989 16.4238 19.7851 16.3875 19.9587 16.3156C20.1323 16.2437 20.2897 16.1378 20.4216 16.004C20.5536 15.8703 20.6573 15.7114 20.7268 15.5368C20.7963 15.3623 20.83 15.1755 20.8261 14.9877ZM37.6801 13.5885C37.311 13.592 36.9575 13.7381 36.6936 13.9962C36.4297 14.2543 36.2758 14.6044 36.2641 14.9733C36.2718 15.3427 36.4189 15.6955 36.676 15.9608C36.9331 16.2262 37.2811 16.3844 37.6501 16.4037C37.8369 16.4039 38.022 16.3671 38.1946 16.2955C38.3672 16.2239 38.524 16.1189 38.6559 15.9866C38.7879 15.8542 38.8923 15.6971 38.9633 15.5242C39.0343 15.3514 39.0705 15.1662 39.0697 14.9793C39.0706 14.7965 39.0353 14.6153 38.9659 14.4462C38.8964 14.2771 38.7941 14.1235 38.6649 13.9942C38.5357 13.8648 38.3821 13.7624 38.2131 13.6928C38.044 13.6231 37.8629 13.5877 37.6801 13.5885ZM10.3117 25.4109C10.4943 25.4104 10.675 25.3737 10.8432 25.3029C11.0115 25.232 11.1641 25.1285 11.292 24.9982C11.4199 24.8679 11.5207 24.7135 11.5885 24.5439C11.6563 24.3744 11.6897 24.1931 11.6869 24.0105C11.6879 23.6412 11.5438 23.2862 11.2857 23.0221C11.0276 22.7579 10.6761 22.6056 10.3069 22.5981C9.9295 22.6032 9.56951 22.7575 9.3057 23.0274C9.04189 23.2973 8.89575 23.6607 8.89927 24.0381C8.90622 24.4069 9.0585 24.758 9.32301 25.0151C9.58751 25.2722 9.94283 25.4144 10.3117 25.4109Z" fill="#F6891F"/>
</svg>
