<svg width="40" height="46" viewBox="0 0 40 46" fill="none" xmlns="http://www.w3.org/2000/svg">
<path d="M1.81162 45.9911C1.77922 45.8507 1.64122 45.8867 1.55602 45.8531C0.566021 45.4559 0.018821 44.6723 0.017621 43.6103C0.017621 40.3791 0.017621 37.1467 0.017621 33.9131C0.0126439 32.611 0.441596 31.3444 1.23673 30.3133C2.03186 29.2822 3.14784 28.5453 4.40842 28.2191C6.36202 27.6911 8.31202 27.1391 10.2632 26.6063C10.5884 26.5163 10.9052 26.4143 11.1812 26.0939C9.89678 26.0049 8.6857 25.4626 7.76393 24.5637C6.84216 23.6648 6.26963 22.4677 6.14842 21.1859C6.12082 20.9231 6.06922 20.8427 5.78842 20.8427C4.50082 20.8403 3.80002 20.1203 3.80002 18.8435C3.80002 16.8035 3.79402 14.7731 3.80002 12.7379C3.81922 6.69354 7.78522 1.69794 13.6592 0.323939C20.2892 -1.23126 27.2 3.15234 28.6544 9.82674C29.0348 11.5703 29.0396 13.3355 28.9052 15.0935C28.8164 16.2587 28.088 17.0579 26.9852 17.4611C26.7176 17.5583 26.6648 17.6807 26.6612 17.9351C26.6408 19.0859 26.7392 20.2391 26.5976 21.3875C26.4474 22.5966 25.8904 23.7185 25.0181 24.569C24.1458 25.4195 23.0101 25.948 21.7976 26.0675C21.7564 26.0772 21.7162 26.0909 21.6776 26.1083C21.8612 26.4287 22.1864 26.5019 22.4804 26.5883C24.3724 27.1131 26.2676 27.6291 28.166 28.1363C29.6636 28.5347 30.9044 29.2991 31.7792 30.5999C31.9112 30.7979 32.0672 30.8135 32.2688 30.8123C33.4364 30.8123 34.6052 30.8567 35.7692 30.7979C37.0952 30.7307 37.9844 31.6787 37.9712 32.9867C37.9436 35.8595 37.9712 38.7335 37.9556 41.6063C37.9556 41.9411 38.0264 42.0863 38.3768 42.1859C39.266 42.4463 39.7904 43.3319 39.6908 44.2823C39.6415 44.692 39.4586 45.074 39.1703 45.3693C38.882 45.6645 38.5044 45.8565 38.096 45.9155C38.0504 45.9155 38.006 45.9071 37.9616 45.9071C26.0624 45.9071 14.1636 45.9071 2.26522 45.9071C2.13802 45.9071 1.99162 45.8507 1.89562 45.9947L1.81162 45.9911ZM27.1076 42.0503C30.1292 42.0503 33.152 42.0503 36.1736 42.0563C36.4568 42.0563 36.5876 42.0311 36.5852 41.6843C36.5696 38.7527 36.578 35.8199 36.5756 32.8871C36.5756 32.3363 36.4004 32.1671 35.8556 32.1671C30.0508 32.1671 24.2464 32.1671 18.4424 32.1671C17.8832 32.1671 17.7008 32.3543 17.6996 32.9219C17.6996 34.0583 17.6996 35.1959 17.6996 36.3323C17.6996 36.7919 17.3912 37.1087 16.9976 37.0943C16.604 37.0799 16.3556 36.7823 16.346 36.3335C16.3376 35.9291 16.322 35.5235 16.346 35.1215C16.3676 34.8143 16.2464 34.7615 15.9692 34.7447C15.3728 34.7182 14.7787 34.6529 14.1908 34.5491C10.882 33.9131 8.26322 32.2107 6.33442 29.4419C6.20002 29.2403 6.08002 29.1563 5.83282 29.2499C5.48602 29.3783 5.11282 29.4515 4.75882 29.5523C2.69482 30.1283 1.37362 31.8239 1.36642 33.9599C1.35562 37.1315 1.36642 40.3031 1.36642 43.4747C1.36642 44.2511 1.71442 44.6039 2.48002 44.6123C3.30322 44.6207 4.12642 44.6027 4.94842 44.6207C5.23882 44.6279 5.33002 44.5523 5.32522 44.2499C5.30602 43.1879 5.31562 42.1259 5.31802 41.0639C5.31802 40.4939 5.59162 40.1519 6.02722 40.1651C6.44482 40.1783 6.69082 40.4987 6.69322 41.0567C6.69322 42.1043 6.70882 43.1519 6.68722 44.1983C6.68002 44.5355 6.77482 44.6267 7.11202 44.6231C8.83282 44.6015 10.5524 44.6063 12.272 44.6015C12.9752 44.6015 13.6784 44.5919 14.3804 44.5907C14.546 44.5907 14.6456 44.5991 14.6132 44.3507C14.4644 43.2479 14.9948 42.4499 16.0808 42.1283C16.3076 42.0611 16.3424 41.9471 16.34 41.7443C16.3304 41.0423 16.3316 40.3379 16.34 39.6359C16.34 39.1439 16.6004 38.8667 17.0192 38.8703C17.438 38.8739 17.69 39.1655 17.6948 39.6491C17.6948 40.3067 17.7188 40.9691 17.6864 41.6231C17.6696 41.9831 17.7812 42.0587 18.1268 42.0575C21.1232 42.0443 24.116 42.0503 27.1076 42.0503ZM13.5296 9.62274C12.7568 11.1395 12.0332 11.7431 10.382 12.2399C10.1492 12.3107 10.1348 12.4415 10.142 12.6359C10.154 14.0123 10.1504 15.3887 10.1696 16.7651C10.1897 17.2278 10.2741 17.6854 10.4204 18.1247C10.4696 18.2879 10.5248 18.3311 10.6976 18.3143C11.6816 18.2219 12.6692 18.2855 13.6556 18.2783C13.8791 18.2819 14.1005 18.3225 14.3108 18.3983C14.6937 18.5328 15.025 18.7836 15.2584 19.1156C15.4919 19.4475 15.6158 19.8441 15.6128 20.2499C15.59 21.1487 15.0332 21.8195 13.9964 22.1531C14.8364 22.5887 15.6548 22.9931 16.6004 22.9199C17.8352 22.8179 18.8648 22.2059 19.832 21.4955C21.3632 20.3723 22.4144 18.9215 22.592 16.9811C22.73 15.5063 22.6184 14.0207 22.646 12.5411C22.646 12.3191 22.502 12.3575 22.3736 12.3575C21.626 12.3575 20.8784 12.3491 20.1296 12.3575C19.3232 12.3671 18.5192 12.3719 17.7296 12.1787C16.0921 11.7984 14.6198 10.9025 13.5296 9.62274ZM19.5824 23.3159L18.776 23.7071C17.2688 24.4367 15.7544 24.5183 14.216 23.8019C13.8908 23.6507 13.5992 23.4035 13.2152 23.3879C13.208 23.7611 13.196 24.1343 13.1948 24.5063C13.1864 26.2475 12.2792 27.4607 10.616 27.9335C9.60682 28.2191 8.59522 28.4927 7.55002 28.7807C7.68202 28.9571 7.78162 29.1035 7.89322 29.2415C9.95602 31.7687 12.602 33.1571 15.8684 33.3659C16.28 33.3923 16.3928 33.2867 16.3484 32.8931C16.2284 31.7147 17.2196 30.7403 18.4676 30.7895C19.9892 30.8507 21.5168 30.8051 23.042 30.8027C23.2016 30.8027 23.366 30.8363 23.5064 30.7055C24.1364 30.1187 24.7388 29.5055 25.2284 28.7567C24.1184 28.4483 23.036 28.1771 21.9728 27.8459C20.6756 27.4439 19.9076 26.5499 19.6652 25.2059C19.5536 24.5963 19.6532 23.9819 19.5824 23.3159ZM25.082 10.9871C25.0878 10.8132 25.0643 10.6396 25.0124 10.4735C23.7776 5.77194 19.28 2.98674 14.48 3.96234C13.1864 4.22514 12.9944 4.48314 13.2392 5.77434C13.7396 8.41434 15.3308 10.0511 17.8772 10.8035C18.3225 10.932 18.7842 10.9947 19.2476 10.9895C21.1916 10.9835 23.1356 10.9871 25.082 10.9871ZM26.6852 16.1123C27.2096 15.8387 27.5516 15.4379 27.5636 14.9123C27.6008 13.3907 27.6836 11.8619 27.3704 10.3523C26.2832 5.19234 21.866 1.63554 17.006 1.42554C13.2164 1.26474 10.1 2.66154 7.67122 5.56314C5.37682 8.30514 4.97242 11.5631 5.22802 14.9687C5.26762 15.4871 5.58802 15.8723 6.12322 16.1003C6.12322 15.7919 6.12322 15.5375 6.12322 15.2843C6.15082 13.8803 6.00322 12.4667 6.23602 11.0723C6.46142 9.62644 6.99323 8.24542 7.79581 7.02179C8.59839 5.79816 9.65321 4.76018 10.8896 3.97739C12.126 3.19461 13.5154 2.6851 14.9647 2.48299C16.4141 2.28089 17.8899 2.39086 19.2932 2.80554C23.2916 3.96834 26.2532 7.57914 26.6048 11.6855C26.7284 13.1375 26.6192 14.5883 26.6852 16.1123ZM27.1304 44.6195H37.4096C38.0372 44.6195 38.3396 44.4323 38.3516 44.0375C38.3636 43.6247 38.0552 43.4255 37.3916 43.4255H16.88C16.7157 43.4221 16.5514 43.4337 16.3892 43.4603C16.2614 43.4801 16.1456 43.547 16.0646 43.6478C15.9835 43.7486 15.9431 43.8761 15.9512 44.0051C15.9452 44.2823 16.0712 44.5055 16.3616 44.5715C16.537 44.606 16.7157 44.6212 16.8944 44.6171C20.308 44.6195 23.72 44.6203 27.1304 44.6195ZM25.28 19.6895V18.7163C25.28 17.5991 25.28 17.6087 24.1748 17.6363C24.1314 17.6303 24.0872 17.6333 24.045 17.6452C24.0029 17.6571 23.9636 17.6777 23.9298 17.7055C23.8959 17.7334 23.8683 17.768 23.8485 17.8071C23.8287 17.8462 23.8172 17.889 23.8148 17.9327C23.4548 19.6127 22.5356 20.9615 21.2636 22.0835C21.1699 22.1534 21.0951 22.2455 21.0459 22.3515C20.9966 22.4575 20.9746 22.5741 20.9816 22.6907C21.002 23.2571 21.0056 23.8259 20.9816 24.3923C20.9708 24.6779 21.062 24.7343 21.3344 24.7295C22.2142 24.7107 23.0638 24.4053 23.7542 23.8597C24.4446 23.3142 24.9382 22.5583 25.16 21.7067C25.3352 20.9999 25.262 20.2823 25.28 19.6895ZM11.8124 5.00754C9.62962 6.41154 8.25442 8.28714 7.69042 10.7507C7.63282 11.0015 7.74322 10.9907 7.90642 10.9907C8.42962 10.9907 8.95162 10.9907 9.47482 10.9907C10.1352 10.9863 10.7759 10.7652 11.2983 10.3613C11.8208 9.95741 12.1962 9.39311 12.3668 8.75514C12.4388 8.48754 12.566 8.19834 12.4472 7.92474C12.0482 7.00278 11.8326 6.01193 11.8124 5.00754ZM7.51162 20.8475C7.64242 23.0315 9.30562 24.6647 11.3996 24.7319C11.7596 24.7439 11.8196 24.6275 11.804 24.3119C11.7788 23.8055 11.7968 23.2967 11.7968 22.7879C11.7968 22.1879 11.7968 22.1747 11.2064 22.1819C10.3064 22.1939 9.61162 21.8567 9.20122 21.0299C9.14002 20.9099 9.08122 20.8439 8.94202 20.8463C8.46562 20.8535 7.98922 20.8499 7.51162 20.8499V20.8475ZM8.78362 14.3315H8.75362C8.75362 13.9715 8.75362 13.6115 8.75362 13.2515C8.75362 12.3323 8.74642 12.3467 7.83322 12.3455C7.52482 12.3455 7.46482 12.4559 7.47322 12.7343C7.48882 13.5863 7.47322 14.4383 7.47322 15.2903C7.47322 16.3451 7.47322 16.3367 8.51722 16.2791C8.74162 16.2671 8.78962 16.1891 8.78482 15.9863C8.77642 15.4403 8.78362 14.8859 8.78362 14.3339V14.3315ZM25.2836 14.3315V13.2515C25.2836 12.3131 25.2836 12.3215 24.3236 12.3419C24.0752 12.3419 23.99 12.4115 23.9948 12.6695C24.008 13.5515 23.9948 14.4323 23.9948 15.3095C23.9948 16.3187 23.9948 16.3103 25.0208 16.2695C25.2464 16.2599 25.2944 16.1891 25.2896 15.9827C25.28 15.4463 25.28 14.8931 25.28 14.3399L25.2836 14.3315ZM30.1676 30.7823C30.0992 30.6947 30.0692 30.6467 30.0296 30.6071C29.1284 29.7107 27.9368 29.4755 26.7728 29.1755C26.7302 29.1634 26.6847 29.1661 26.6437 29.1831C26.6028 29.2001 26.5688 29.2304 26.5472 29.2691C26.18 29.7647 25.8104 30.2579 25.4192 30.7823H30.1676ZM12.3008 19.6643C11.8676 19.6643 11.4332 19.6643 11 19.6643C10.64 19.6643 10.424 19.8311 10.4 20.1887C10.3796 20.5667 10.5872 20.7887 10.9664 20.7887C11.8484 20.7995 12.7304 20.7983 13.6064 20.7887C13.9664 20.7887 14.2064 20.6075 14.2064 20.2163C14.2064 19.8251 13.9664 19.6619 13.5956 19.6631L12.3008 19.6643ZM8.29402 19.5035H8.83042C9.24922 19.5035 9.38122 19.3151 9.25402 18.9227C9.14842 18.5987 9.03082 18.2771 8.95522 17.9459C8.90362 17.7215 8.82562 17.6399 8.57962 17.6375C7.47442 17.6267 7.47562 17.6171 7.47562 18.7043C7.47562 19.5035 7.47562 19.5035 8.29402 19.5035ZM5.19802 17.2403C5.19802 17.8823 5.17762 18.4895 5.20402 19.0955C5.22442 19.5443 5.58682 19.5011 5.90362 19.5107C6.26362 19.5227 6.10882 19.2527 6.11602 19.1027C6.13522 18.6863 6.12562 18.2687 6.11602 17.8523C6.11602 17.7323 6.16042 17.5883 5.96722 17.5307C5.72002 17.4503 5.48002 17.3423 5.19802 17.2403Z" fill="#414141"/>
</svg>
