<svg width="48" height="48" viewBox="0 0 48 48" fill="none" xmlns="http://www.w3.org/2000/svg">
<path d="M46.98 10.6274C46.86 11.1386 46.7652 11.6558 46.626 12.1622C46.1003 14.1102 44.9243 15.8199 43.2931 17.0075C41.662 18.1951 39.6737 18.7893 37.6584 18.6914C36.9572 18.6551 36.263 18.5343 35.5908 18.3314C35.4504 18.2894 35.3172 18.2258 35.1456 18.2822C36.03 19.4006 36.9456 20.4818 37.5588 21.7742C38.9496 24.7118 39.1752 27.7274 38.1756 30.8234C38.076 31.1294 38.0736 31.2242 38.4492 31.3034C39.4656 31.5146 40.1448 32.1602 40.422 33.1658C40.7052 34.1906 40.4628 35.1254 39.654 35.8058C37.8624 37.3214 36.0252 38.7818 34.2144 40.2758C34.0104 40.445 33.9252 40.409 33.7692 40.2194C33.1032 39.413 33.0948 39.4166 33.8976 38.759C35.448 37.4902 36.9996 36.223 38.5524 34.9574C39.1968 34.4318 39.3456 33.7466 38.9364 33.1574C38.5272 32.5682 37.8048 32.4374 37.0764 32.8838C33.9428 34.7886 30.8116 36.6974 27.6828 38.6102C27.5367 38.7155 27.3661 38.7819 27.1872 38.8029C27.0083 38.8239 26.827 38.7988 26.6604 38.7302C24.3228 37.8902 21.9804 37.0754 19.6332 36.2474C19.5322 36.2061 19.4237 36.1863 19.3147 36.1892C19.2056 36.1921 19.0983 36.2176 18.9996 36.2642C18.5808 36.455 18.1404 36.5978 17.7204 36.7886C17.532 36.8738 17.448 36.8342 17.3892 36.6578C17.3796 36.629 17.3712 36.6014 17.3592 36.5738C16.9524 35.6138 16.9536 35.621 17.9124 35.219C20.5332 34.1198 23.1504 33.0146 25.7748 31.9226C26.0268 31.8182 26.1432 31.7342 26.0016 31.4486C25.8907 31.1886 25.7934 30.9231 25.71 30.653C25.3212 29.6282 24.3612 29.1722 23.3244 29.5454C21.8428 30.0806 20.3628 30.6282 18.8844 31.1882C18.6048 31.295 18.4404 31.2494 18.228 31.0394C17.1396 29.9594 15.858 29.2058 14.3172 29.045C12.1404 28.8158 10.5444 29.8238 9.39722 31.5962C9.15122 31.9754 8.91722 32.129 8.48642 32.0954C8.00642 32.0582 7.52642 32.0954 7.04642 32.0822C6.80642 32.0726 6.75002 32.1518 6.75002 32.3834C6.75722 35.629 6.75722 38.8758 6.75002 42.1238C6.75002 42.3638 6.81842 42.4238 7.05002 42.4202C7.89002 42.407 8.73002 42.4358 9.56282 42.4106C11.304 42.3566 13.0164 42.6506 14.7396 42.8222C16.5528 43.001 18.3624 43.2098 20.1732 43.4066L25.6512 44.0066C25.992 44.0438 26.3352 44.069 26.6736 44.1266C27.0984 44.1986 27.4284 44.0798 27.7632 43.7966C29.0832 42.6794 30.4488 41.6006 31.7772 40.4858C32.0316 40.2722 32.1372 40.3202 32.3208 40.5494C32.946 41.321 32.9508 41.309 32.1708 41.9438C30.7804 43.075 29.3932 44.2122 28.0092 45.3554C27.9238 45.436 27.8217 45.4967 27.7101 45.5332C27.5984 45.5697 27.4801 45.5811 27.3636 45.5666C25.5528 45.3638 23.7408 45.1754 21.93 44.981L16.4964 44.393C14.6856 44.1962 12.8772 43.9466 11.0616 43.8182C9.69242 43.721 8.31242 43.781 6.93722 43.7666C6.67442 43.7666 6.75842 43.955 6.75842 44.0822C6.75122 45.0542 6.75842 46.0274 6.75842 46.9994H1.02002C1.02842 46.8362 1.04282 46.6718 1.04282 46.5086C1.04282 40.5534 1.03962 34.5978 1.03322 28.6418C1.03322 28.2194 1.15322 28.1306 1.55162 28.1366C3.16682 28.1582 4.78202 28.1522 6.39842 28.1366C6.67802 28.1366 6.78722 28.1906 6.77402 28.4966C6.74882 29.1242 6.77402 29.753 6.76082 30.3818C6.75362 30.6434 6.81362 30.7178 7.09802 30.7418C7.87322 30.8126 8.39522 30.593 8.94362 29.9486C10.3488 28.2962 12.168 27.4202 14.4072 27.6854C14.7468 27.7262 14.8224 27.6482 14.8092 27.2954C14.7795 26.339 14.8706 25.3826 15.0804 24.449C15.1392 24.179 15.2484 24.1562 15.4728 24.209C16.446 24.4178 16.446 24.4142 16.2936 25.385C16.1652 26.2022 16.1736 27.0242 16.1868 27.8474C16.1868 28.0658 16.2828 28.1558 16.47 28.2326C17.2579 28.5536 17.9877 29.0019 18.63 29.5598C18.8088 29.7158 18.96 29.7002 19.1568 29.6258C20.3568 29.177 21.5568 28.7378 22.7568 28.295C24.5904 27.6194 26.3568 28.4306 27.0264 30.2618C27.2556 30.8906 27.456 31.5314 27.708 32.1506C27.828 32.4518 27.7764 32.5742 27.4788 32.699C25.5012 33.5234 23.532 34.3646 21.5604 35.2034C21.468 35.2418 21.348 35.2418 21.294 35.3894C23.0268 35.9966 24.7632 36.5894 26.49 37.2194C26.6547 37.2916 26.8353 37.32 27.0142 37.3019C27.1931 37.2839 27.3643 37.2199 27.5112 37.1162C30.3408 35.3698 33.1808 33.639 36.0312 31.9238C36.2385 31.8082 36.3996 31.6247 36.4872 31.4042C38.0892 27.485 37.65 23.8214 35.0916 20.4374C34.2 19.259 33.246 18.1274 32.544 16.8146C32.4757 16.6999 32.3875 16.5984 32.2836 16.5146C31.6164 15.9346 31.0428 15.255 30.5832 14.4998C30.5416 14.4093 30.4734 14.3336 30.3876 14.283C30.3018 14.2324 30.2026 14.2092 30.1032 14.2166C27.5432 14.2374 24.9856 14.249 22.4304 14.2514C22.1352 14.2514 21.9504 14.3042 21.864 14.6474C21.3348 16.6562 20.16 18.3098 18.8964 19.907C18.12 20.8802 17.4 21.8798 16.9548 23.0498C16.8768 23.2526 16.7952 23.2694 16.5948 23.2022C15.5064 22.829 15.5148 22.8422 16.0056 21.8006C16.5792 20.5874 17.4276 19.5614 18.2352 18.5078C19.1376 17.3318 19.9404 16.1006 20.4288 14.6834C20.556 14.3138 20.4636 14.2298 20.1168 14.2718C19.9971 14.2815 19.8769 14.2851 19.7568 14.2826C18.6576 14.2994 18.6648 14.3006 18.7008 13.2026C18.708 12.9734 18.7644 12.8834 19.0044 12.8918C19.452 12.9086 19.9008 12.8918 20.4084 12.8918L17.6892 6.45618C18.7992 6.38898 19.8396 6.40578 20.754 7.06938C21.0072 7.25418 21.252 7.45218 21.5064 7.63458C21.8838 7.90764 22.3368 8.05644 22.8026 8.06031C23.2683 8.06418 23.7238 7.92293 24.1056 7.65618C24.3012 7.52058 24.4872 7.36818 24.678 7.22418C26.064 6.17658 27.762 6.16938 29.154 7.20618C29.568 7.51458 29.568 7.51458 29.7252 7.04658C30.3493 5.16668 31.5888 3.552 33.2436 2.46333C34.8984 1.37465 36.8718 0.875537 38.8452 1.04658C41.4264 1.27338 43.5252 2.44818 45.1356 4.49418C45.3036 4.70898 45.3216 4.82418 45.0708 4.97418C44.7888 5.13858 44.5308 5.47578 44.2548 5.48418C43.9788 5.49258 43.8528 5.05458 43.6356 4.83138C41.5272 2.67138 38.9856 1.86018 36.0756 2.68338C33.1656 3.50658 31.3512 5.52018 30.7596 8.49618C29.8092 13.2746 33.8016 17.6846 38.652 17.2934C42.9 16.9514 45.954 13.2962 45.5364 9.04218C45.4748 8.32735 45.2909 7.62841 44.9928 6.97578C44.8512 6.67698 44.9196 6.54258 45.2076 6.45738C45.249 6.44255 45.2891 6.42449 45.3276 6.40338C46.1244 6.02898 46.1304 6.02658 46.428 6.88338C46.6821 7.56965 46.838 8.28834 46.8912 9.01818C46.8912 9.08898 46.8804 9.17058 46.9776 9.19578L46.98 10.6274ZM5.41802 37.5602C5.41802 35.003 5.41802 32.4446 5.42522 29.8862C5.42522 29.5826 5.36402 29.4746 5.03882 29.4866C4.29082 29.5122 3.54322 29.5122 2.79602 29.4866C2.48882 29.477 2.41082 29.5814 2.43002 29.867C2.45282 30.1946 2.43602 30.5246 2.43602 30.8534C2.43602 35.6398 2.43322 40.427 2.42762 45.215C2.42762 45.5642 2.51162 45.6662 2.86442 45.6518C3.58442 45.623 4.30442 45.6218 5.01722 45.6518C5.36162 45.6662 5.42762 45.5618 5.42642 45.2342C5.41202 42.6782 5.41802 40.1198 5.41802 37.5602ZM20.0112 8.22258L19.9416 8.26698C20.4456 9.45338 20.95 10.6402 21.4548 11.8274C21.9024 12.8798 21.9036 12.881 23.0604 12.8786C25.1832 12.8786 27.306 12.8618 29.4288 12.8654C29.7216 12.8654 29.7768 12.8186 29.6772 12.5198C29.3435 11.4952 29.2111 10.4158 29.2872 9.34098C29.298 9.17058 29.3412 9.00498 29.1312 8.87658C28.8012 8.67498 28.506 8.41698 28.1868 8.19738C27.8106 7.93649 27.3628 7.7987 26.905 7.80299C26.4472 7.80729 26.002 7.95347 25.6308 8.22138C25.3908 8.39418 25.1508 8.58138 24.9108 8.75778C24.3013 9.19556 23.5697 9.43104 22.8192 9.43104C22.0687 9.43104 21.3372 9.19556 20.7276 8.75778C20.4876 8.58138 20.2512 8.40018 20.0112 8.22258Z" fill="#414141"/>
<path d="M27.78 28.3574C27.9768 28.0574 28.1856 27.767 28.3596 27.4574C28.4796 27.2402 28.584 27.2714 28.7712 27.3794C29.0563 27.5443 29.3718 27.6495 29.6988 27.6887C30.0258 27.7279 30.3573 27.7002 30.6732 27.6074C30.9713 27.5276 31.2355 27.3536 31.4267 27.1114C31.6178 26.8692 31.7256 26.5718 31.734 26.2634C31.7556 25.6226 31.5036 25.2674 30.81 25.0034C30.1416 24.7502 29.472 24.503 28.8504 24.143C28.0692 23.6894 27.6504 23.0162 27.702 22.115C27.7596 21.173 28.1904 20.405 29.0772 20.0186C29.4708 19.847 29.6028 19.6682 29.5764 19.2506C29.5356 18.6194 29.5656 18.6182 30.1908 18.6182C30.9108 18.6182 30.9384 18.6182 30.9108 19.3298C30.8952 19.6766 30.996 19.8182 31.338 19.8986C31.68 19.979 32.2296 20.1386 32.2476 20.4398C32.2668 20.7782 31.7676 21.029 31.518 21.3386C31.4076 21.4754 31.3068 21.3686 31.2072 21.3122C30.8461 21.1244 30.4332 21.0612 30.0324 21.1322C29.8075 21.1505 29.5951 21.2429 29.4283 21.3949C29.2615 21.5469 29.1499 21.7499 29.1108 21.9722C29.0136 22.5038 29.124 22.7222 29.6508 23.0186C30.1778 23.2943 30.7245 23.5305 31.2864 23.7254C32.4744 24.1802 33.1272 25.0382 33.1344 26.1554C33.1416 27.2726 32.406 28.4258 31.3416 28.8194C30.9708 28.9574 30.9024 29.135 30.912 29.4866C30.9372 30.3818 30.9192 30.3602 30.0168 30.3902C29.6388 30.4034 29.5176 30.299 29.562 29.927C29.5944 29.6618 29.6496 29.3498 29.544 29.1314C29.4384 28.913 29.064 28.9934 28.824 28.8998C28.4506 28.7728 28.0986 28.5899 27.78 28.3574Z" fill="#F6891F"/>
<path d="M37.9116 7.06848C37.9255 7.41211 37.868 7.7549 37.7429 8.07523C37.6177 8.39556 37.4275 8.68649 37.1844 8.92968C36.2832 9.85848 34.8828 9.81048 34.02 8.83368C33.6181 8.35787 33.3896 7.75981 33.3717 7.13728C33.3539 6.51475 33.5477 5.90457 33.9216 5.40648C34.5156 4.64808 35.4072 4.34688 36.264 4.61448C37.1508 4.89168 37.8492 5.79888 37.9104 6.75528C37.92 6.85848 37.9116 6.96048 37.9116 7.06848ZM34.7508 7.15488C34.7616 7.28314 34.7861 7.40986 34.824 7.53288C34.9656 7.91808 35.1972 8.21808 35.658 8.21328C36.1188 8.20848 36.3432 7.90848 36.48 7.51968C36.5293 7.37984 36.5576 7.23344 36.564 7.08528C36.5844 6.46128 36.1572 5.89728 35.6676 5.88528C35.178 5.87328 34.7532 6.39288 34.7508 7.15488Z" fill="#F6891F"/>
<path d="M38.28 12.9212C38.28 11.5244 39.2808 10.4192 40.5348 10.418C41.8548 10.418 42.972 11.738 42.8148 13.136C42.7747 13.6435 42.5989 14.1308 42.306 14.5472C41.7396 15.3164 40.8336 15.6572 39.99 15.41C39.5251 15.2654 39.1141 14.9853 38.8094 14.6056C38.5047 14.2259 38.3204 13.7639 38.28 13.2788C38.268 13.16 38.28 13.04 38.28 12.9212ZM41.4372 12.9212C41.4354 12.8309 41.429 12.7408 41.418 12.6512C41.3388 12.1856 40.9704 11.8112 40.578 11.792C40.1856 11.7728 39.8484 12.0392 39.6972 12.5324C39.656 12.6594 39.6318 12.7914 39.6252 12.9248C39.606 13.5536 40.0236 14.1128 40.5156 14.1248C41.0076 14.1368 41.4288 13.616 41.4324 12.9176L41.4372 12.9212Z" fill="#F6891F"/>
<path d="M40.56 5.95072C40.524 6.03352 40.4868 6.11512 40.452 6.19072C39.3324 8.85832 38.2116 11.5199 37.1088 14.1839C36.9888 14.4683 36.8784 14.4719 36.6288 14.3639C35.7108 13.9655 35.7084 13.9739 36.1032 13.0343C37.122 10.6079 38.154 8.18752 39.144 5.75032C39.3084 5.34472 39.4728 5.35792 39.7788 5.51032C39.978 5.61232 40.188 5.69032 40.3944 5.77312C40.4796 5.81032 40.56 5.83672 40.56 5.95072Z" fill="#F6891F"/>
</svg>
