<svg width="36" height="36" viewBox="0 0 36 36" fill="none" xmlns="http://www.w3.org/2000/svg">
<path d="M3.39037 33.8602C3.14917 33.7324 2.88277 33.6532 2.67667 33.457C2.30317 33.1015 2.14747 32.6713 2.14837 32.1574C2.15377 27.5848 2.15377 23.0119 2.14837 18.4387C2.14837 13.5976 2.16367 8.75653 2.13577 3.91543C2.13037 2.86963 2.91157 2.13793 3.90607 2.14063C10.8361 2.16133 17.758 2.15143 24.6844 2.15143C25.8148 2.15143 26.4673 2.79943 26.4682 3.93433C26.4682 7.10353 26.4682 10.2724 26.4682 13.441C26.4713 13.5747 26.4546 13.7082 26.4187 13.837C26.3909 13.9375 26.331 14.0262 26.2481 14.0894C26.1653 14.1526 26.0639 14.187 25.9597 14.1871C25.851 14.1988 25.7416 14.1742 25.6483 14.1173C25.555 14.0603 25.4832 13.9741 25.444 13.8721C25.3917 13.726 25.3705 13.5706 25.3819 13.4158C25.3819 10.2784 25.3819 7.14073 25.3819 4.00273C25.3819 3.36733 25.2316 3.21343 24.607 3.21343H3.98887C3.38677 3.21343 3.20857 3.38893 3.20857 3.98023C3.20857 13.3324 3.20857 22.684 3.20857 32.035C3.20857 32.6272 3.38857 32.8036 3.98797 32.8036H24.6115C25.2262 32.8036 25.3855 32.6479 25.3864 32.0458C25.3864 30.436 25.3864 28.8259 25.3864 27.2155C25.3795 27.0814 25.3959 26.9471 25.435 26.8186C25.4678 26.7088 25.5379 26.6138 25.6331 26.5499C25.7284 26.486 25.8429 26.4572 25.957 26.4685C26.0667 26.4662 26.1737 26.5022 26.2597 26.5704C26.3456 26.6386 26.405 26.7347 26.4277 26.842C26.4581 26.9718 26.4729 27.1047 26.4718 27.238C26.4718 28.7761 26.452 30.3151 26.4817 31.8523C26.5006 32.8351 26.1712 33.5434 25.1911 33.8602H3.39037Z" fill="#7D7D7D"/>
<path d="M33.8609 10.4488C33.7286 10.708 33.6017 10.9699 33.4622 11.2255C33.4364 11.2564 33.4239 11.2962 33.4272 11.3363C33.4306 11.3764 33.4496 11.4135 33.4802 11.4397C33.7106 11.6827 33.6602 11.9374 33.5036 12.2011C33.1499 12.8041 32.8187 13.4215 32.4479 14.0137C32.2796 14.2837 32.2967 14.4052 32.5892 14.5537C33.2336 14.8876 33.5504 15.4294 33.4892 16.1737C33.4655 16.4096 33.3892 16.6372 33.266 16.8397C32.5904 18.0175 31.9127 19.1938 31.2329 20.3686C31.088 20.6179 30.8909 20.7916 30.5768 20.6998C30.2078 20.5918 30.0935 20.2363 30.3113 19.8484C30.6713 19.2121 31.0376 18.5812 31.4021 17.9485C31.7099 17.4139 32.0222 16.882 32.3255 16.3447C32.3855 16.2447 32.4193 16.1312 32.4238 16.0147C32.4282 15.8982 32.4031 15.7825 32.3509 15.6782C32.2986 15.574 32.2209 15.4847 32.1249 15.4185C32.0289 15.3523 31.9177 15.3115 31.8017 15.2998C31.6586 15.2827 31.6577 15.424 31.6127 15.5023C30.5372 17.3626 29.432 19.2076 28.4015 21.094C27.597 22.5682 26.6268 23.9457 25.5098 25.1998C25.1363 25.6201 24.9095 26.134 24.5792 26.5804C24.2264 27.0574 23.7521 27.2869 23.1635 27.2293C23.0643 27.2125 22.9624 27.226 22.871 27.268C22.7796 27.3101 22.7031 27.3788 22.6514 27.4651C22.3454 27.8791 22.0214 28.2805 21.6974 28.6819C21.1079 29.4136 20.1674 29.2822 19.7975 28.4191C19.7003 28.1941 19.613 27.9691 19.5014 27.6919C19.4231 27.808 19.3655 27.8962 19.3043 27.9826C19.0109 28.3948 18.5591 28.5766 18.1217 28.4578C17.6843 28.339 17.3675 27.9385 17.327 27.43C17.2844 26.8966 17.2406 26.3623 17.1956 25.8271C17.1884 25.7371 17.2055 25.6408 17.1056 25.5571C16.721 26.7133 16.3388 27.8641 15.959 29.0095C15.927 29.1179 15.887 29.2238 15.8393 29.3263C15.725 29.5468 15.5468 29.6764 15.2885 29.6224C15.1592 29.6026 15.0422 29.5346 14.9609 29.4321C14.8796 29.3296 14.8401 29.2002 14.8502 29.0698C14.8594 28.9471 14.8845 28.8261 14.9249 28.7098C15.3119 27.5398 15.7061 26.3743 16.0949 25.2052C16.2011 24.8821 16.3541 24.6013 16.6673 24.4366C17.408 24.0487 18.1865 24.5347 18.2513 25.4266C18.2963 26.0386 18.3485 26.6506 18.4025 27.3247C18.5204 27.1672 18.5987 27.0547 18.686 26.9467C18.7912 26.8126 18.9279 26.7066 19.0839 26.638C19.2399 26.5694 19.4105 26.5403 19.5804 26.5534C19.7504 26.5665 19.9144 26.6213 20.0581 26.713C20.2018 26.8047 20.3206 26.9304 20.4041 27.079C20.5688 27.3715 20.6804 27.6946 20.8235 28.0222C21.1835 27.5812 21.5336 27.1474 21.8927 26.7235C21.9881 26.611 21.9557 26.5354 21.8981 26.4247C21.6461 25.9486 21.6029 25.4401 21.8711 24.9757C22.5344 23.8282 22.9205 22.5691 23.3867 21.3424C23.5667 20.8762 23.8205 20.4586 24.0662 20.032C25.3262 17.8486 26.5862 15.6676 27.8462 13.489C28.0001 13.2253 28.0199 13.0795 27.7076 12.949C27.4646 12.8509 27.2963 12.6592 27.317 12.3757C27.3449 11.9869 27.7445 11.7907 28.127 11.9617C28.28 12.031 28.4285 12.2317 28.577 12.1525C28.7093 12.0823 28.7687 11.8717 28.8569 11.7214C29.1854 11.1625 29.5148 10.6045 29.8406 10.0438C29.9873 9.7909 30.1808 9.6271 30.4922 9.7009C30.6263 9.7324 30.6722 9.664 30.7298 9.5668C30.8299 9.3626 30.9557 9.17206 31.1042 8.9998C31.2926 8.79727 31.5304 8.64723 31.7943 8.5644C32.0582 8.48157 32.3392 8.4688 32.6095 8.52735C32.8798 8.5859 33.1303 8.71376 33.3363 8.89836C33.5423 9.08297 33.6967 9.31797 33.7844 9.5803C33.806 9.6415 33.7646 9.7333 33.8609 9.7603V10.4488ZM30.7703 14.7688C30.7577 14.6788 30.6803 14.6599 30.6227 14.6248C30.134 14.3422 29.6417 14.0641 29.1566 13.7743C29.027 13.6969 28.9658 13.696 28.8866 13.8418C27.5516 16.1674 26.2121 18.4897 24.8681 20.8087C24.788 20.9464 24.7898 21.0103 24.9365 21.0913C25.4306 21.3613 25.9265 21.6448 26.4035 21.9391C26.5673 22.0399 26.6168 21.9814 26.6951 21.8446C28.0217 19.5382 29.3513 17.2336 30.6839 14.9308C30.71 14.8813 30.7388 14.8273 30.7703 14.7724V14.7688ZM31.2851 13.7716C31.3706 13.7851 31.3832 13.7095 31.4111 13.6618C31.7108 13.1479 32.0015 12.6286 32.3111 12.1192C32.4092 11.9572 32.294 11.9284 32.2013 11.8753C31.7216 11.5981 31.2374 11.329 30.7613 11.0428C30.6191 10.9573 30.5462 10.9456 30.4571 11.1076C30.1871 11.6017 29.9018 12.0895 29.6129 12.5737C29.5328 12.7078 29.5373 12.7735 29.6831 12.8545C30.1772 13.1245 30.6632 13.4134 31.1519 13.6951L31.2851 13.7716ZM25.9643 22.9201C25.4432 22.6177 24.9374 22.3261 24.4343 22.0318C24.3047 21.9562 24.2867 22.0453 24.2543 22.138C24.1418 22.4458 24.0194 22.75 23.9078 23.0578C23.7962 23.3656 23.5478 23.7193 23.6378 23.9353C23.7413 24.1792 24.1571 24.2953 24.437 24.4609C24.4457 24.4664 24.4542 24.4724 24.4622 24.4789C24.5594 24.55 24.6278 24.5446 24.7133 24.4393C25.1183 23.9344 25.535 23.4385 25.9643 22.9201ZM32.7863 10.0843C32.7866 10.0176 32.7739 9.95156 32.7487 9.88984C32.7235 9.82812 32.6864 9.77197 32.6395 9.72458C32.5926 9.67719 32.5369 9.63951 32.4754 9.61367C32.414 9.58783 32.3481 9.57435 32.2814 9.574C32.0348 9.574 31.5614 10.024 31.5812 10.2454C31.5857 10.2895 32.3705 10.7674 32.4308 10.7629C32.5289 10.7557 32.7854 10.2643 32.7863 10.0843ZM23.3165 26.1799C23.5721 26.1871 23.9465 25.8658 23.9879 25.5499C24.0158 25.3483 23.7683 25.3618 23.6603 25.2592C23.6293 25.232 23.5932 25.2112 23.5541 25.198C23.4047 25.1413 23.2445 24.928 23.1302 25.018C23.04 25.0944 22.9661 25.1883 22.9129 25.2939C22.8597 25.3995 22.8283 25.5147 22.8206 25.6327C22.8192 25.6534 22.8192 25.6741 22.8206 25.6948C22.8239 25.8243 22.8775 25.9474 22.9701 26.038C23.0627 26.1286 23.187 26.1795 23.3165 26.1799Z" fill="#7D7D7D"/>
<path d="M14.3271 5.30957H20.8917C20.9745 5.30957 21.0573 5.30957 21.1392 5.30957C21.474 5.33387 21.7107 5.55797 21.7116 5.84957C21.7116 6.12497 21.4938 6.34277 21.1716 6.37967C21.0584 6.38898 20.9449 6.39198 20.8314 6.38867C16.6638 6.38927 12.4941 6.38957 8.32229 6.38957C8.05859 6.38957 7.95239 6.43007 7.96229 6.72977C7.98749 7.42547 7.97038 7.42637 8.67058 7.42637H20.9016C21.4362 7.42637 21.717 7.61897 21.7116 7.97897C21.7062 8.33897 21.4326 8.51897 20.9178 8.51897H7.69499C7.06499 8.51897 6.90569 8.35517 6.90479 7.73507C6.90479 7.18787 6.90479 6.64067 6.90479 6.09347C6.90479 5.48687 7.07039 5.32037 7.66979 5.32037L14.3271 5.30957Z" fill="#7D7D7D"/>
<path d="M8.69925 22.7702C9.62006 22.7564 10.5227 23.027 11.284 23.5451C11.662 23.798 11.7611 24.0635 11.5793 24.3623C11.3974 24.6611 11.095 24.6944 10.7234 24.4523C10.2425 24.1329 9.69414 23.9293 9.12135 23.8574C7.02525 23.5928 5.13795 25.4234 5.34765 27.5285C5.52765 29.3195 6.82365 30.5588 8.64975 30.6785C10.2139 30.7838 11.7034 29.6345 12.0931 28.0118C12.1417 27.7802 12.1718 27.5452 12.1831 27.3089C12.211 26.9426 12.409 26.7257 12.7295 26.7302C13.0499 26.7347 13.2442 26.9597 13.2433 27.3296C13.2433 29.4986 11.5693 31.4039 9.41475 31.6928C7.04595 32.0114 4.93095 30.5732 4.38105 28.2728C3.82035 25.9238 5.29095 23.4947 7.63005 22.9061C7.97796 22.8091 8.33814 22.7633 8.69925 22.7702Z" fill="#FF8900"/>
<path d="M16.9324 14.3149H11.3947C10.8709 14.3149 10.6108 14.1421 10.6027 13.7902C10.5946 13.4383 10.8628 13.2412 11.4046 13.2412H22.5736C23.0533 13.2412 23.3026 13.4446 23.2774 13.8154C23.2787 13.9301 23.2381 14.0413 23.1632 14.1281C23.0883 14.2149 22.9842 14.2715 22.8706 14.287C22.7383 14.3091 22.6042 14.3181 22.4701 14.314C20.6245 14.3158 18.7786 14.3161 16.9324 14.3149Z" fill="#7D7D7D"/>
<path d="M14.2981 10.6268H9.34812C9.28602 10.6268 9.22392 10.6268 9.16182 10.6268C8.74062 10.6187 8.47242 10.3982 8.48322 10.0706C8.49402 9.74299 8.74872 9.54139 9.15642 9.54049C10.6108 9.53509 12.0652 9.54049 13.5187 9.54049C15.4471 9.54049 17.3758 9.54049 19.3048 9.54049C19.4079 9.53654 19.5111 9.54075 19.6135 9.55309C19.933 9.60439 20.1121 9.79879 20.113 10.0814C20.1139 10.364 19.915 10.5818 19.5892 10.6214C19.4966 10.6272 19.4037 10.6272 19.3111 10.6214L14.2981 10.6268Z" fill="#7D7D7D"/>
<path d="M11.6541 16.4049H16.6662C16.7391 16.4049 16.8111 16.4004 16.8831 16.4049C17.2431 16.4319 17.4753 16.6443 17.4771 16.9449C17.4789 17.2455 17.2476 17.4606 16.8858 17.4903C16.8138 17.4957 16.7409 17.4903 16.6689 17.4903H6.64473C6.51095 17.4967 6.37696 17.4837 6.24693 17.4516C6.13479 17.429 6.03428 17.3674 5.96313 17.2778C5.89199 17.1882 5.8548 17.0764 5.85813 16.962C5.85183 16.692 5.98323 16.5201 6.24513 16.4391C6.375 16.4061 6.50913 16.3931 6.64293 16.4004L11.6541 16.4049Z" fill="#7D7D7D"/>
<path d="M9.00004 20.1199C8.16484 20.1199 7.32874 20.1199 6.49354 20.1199C6.07324 20.1199 5.84734 19.921 5.85364 19.5799C5.86084 19.2559 6.09124 19.0615 6.48364 19.0615C8.17564 19.0615 9.86704 19.0615 11.5578 19.0615C11.9502 19.0615 12.1797 19.264 12.1806 19.5907C12.1815 19.9174 11.9628 20.1181 11.5632 20.1208C10.71 20.1235 9.85684 20.1199 9.00004 20.1199Z" fill="#7D7D7D"/>
<path d="M8.6302 28.7699C8.33299 28.7559 8.05137 28.6329 7.8391 28.4243C7.4971 28.0805 7.1497 27.7412 6.8113 27.3938C6.5476 27.1238 6.5305 26.7944 6.7555 26.5739C6.9805 26.3534 7.2955 26.3732 7.5754 26.645C7.8454 26.9024 8.1154 27.1553 8.3593 27.4361C8.5456 27.6512 8.6581 27.6782 8.8705 27.4487C9.3529 26.9258 9.8713 26.4362 10.3753 25.934C10.5265 25.7846 10.693 25.664 10.9207 25.7117C11.3419 25.7954 11.5228 26.2751 11.2195 26.5937C10.5949 27.2516 9.9433 27.8843 9.2926 28.517C9.10972 28.6788 8.87434 28.7686 8.6302 28.7699Z" fill="#FF8900"/>
<path d="M20.8856 17.4952C20.3186 17.4952 19.7516 17.4997 19.1846 17.4952C18.8192 17.4907 18.6212 17.3503 18.5546 17.0722C18.4691 16.7167 18.704 16.417 19.1225 16.4125C20.3078 16.399 21.494 16.4017 22.6793 16.4125C23.0501 16.4125 23.2742 16.6303 23.2823 16.9381C23.2904 17.2639 23.0672 17.4862 22.6802 17.4952C22.0826 17.5042 21.4841 17.4952 20.8856 17.4952Z" fill="#7D7D7D"/>
<path d="M15.6277 20.1208C15.04 20.1208 14.4577 20.1253 13.8655 20.1208C13.4803 20.1208 13.2355 19.9039 13.2418 19.588C13.2481 19.2721 13.4938 19.0624 13.8772 19.0615C15.0418 19.0615 16.2061 19.0615 17.3701 19.0615C17.758 19.0615 18.0001 19.2658 18.0046 19.5844C18.0091 19.903 17.7814 20.1163 17.3899 20.1244C16.8022 20.1253 16.2154 20.1208 15.6277 20.1208Z" fill="#7D7D7D"/>
</svg>
