<svg width="36" height="36" viewBox="0 0 36 36" fill="none" xmlns="http://www.w3.org/2000/svg">
<path d="M31.95 2.39746C32.2632 2.55496 32.3829 2.80066 32.382 3.15886C32.3742 7.96306 32.3721 12.7676 32.3757 17.5724C32.3757 18.0296 32.1615 18.2924 31.7862 18.3032C31.6271 18.3105 31.4716 18.2546 31.3536 18.1477C31.2356 18.0408 31.1646 17.8916 31.1562 17.7326C31.1508 17.6426 31.1562 17.5526 31.1562 17.4581C31.1562 12.9485 31.158 8.43826 31.1616 3.92746C31.1616 3.68626 31.122 3.60886 30.8574 3.60886C23.3814 3.61786 15.9057 3.61786 8.43031 3.60886C8.14051 3.60886 8.11351 3.69886 8.11441 3.94726C8.11981 12.8873 8.11981 21.8273 8.11441 30.7673C8.11441 31.3127 8.16391 31.8635 7.85791 32.3873H29.88C30.78 32.3873 31.1598 32.0048 31.1598 31.1111C31.1598 28.5005 31.1598 25.8905 31.1598 23.2811C31.1598 22.886 31.3398 22.6322 31.6494 22.58C32.0688 22.5089 32.3775 22.7915 32.3775 23.2559C32.3775 25.0643 32.3775 26.8724 32.3775 28.6802C32.3775 29.5739 32.3775 30.4685 32.3775 31.3622C32.3787 31.6568 32.3216 31.9488 32.2096 32.2213C32.0975 32.4938 31.9327 32.7415 31.7246 32.9501C31.5165 33.1587 31.2693 33.3241 30.997 33.4368C30.7248 33.5495 30.433 33.6072 30.1383 33.6068C22.0431 33.6068 13.9476 33.6068 5.85181 33.6068C5.55673 33.6074 5.26445 33.5495 4.99189 33.4364C4.71933 33.3233 4.4719 33.1573 4.26392 32.948C4.05593 32.7386 3.89151 32.4901 3.78018 32.2169C3.66885 31.9436 3.61282 31.6509 3.61531 31.3559C3.61531 23.6873 3.61531 16.0181 3.61531 8.34826C3.61531 7.86046 3.83311 7.63996 4.31551 7.63906C5.09761 7.63906 5.87971 7.63186 6.66181 7.64356C6.86071 7.64356 6.91111 7.59226 6.91021 7.39426C6.90121 5.99206 6.91021 4.58986 6.89941 3.18856C6.89941 2.82316 6.99931 2.55856 7.33231 2.39746H31.95ZM6.90571 20.2121C6.90571 16.5374 6.90571 12.8618 6.91291 9.18616C6.91291 8.89546 6.82291 8.84056 6.56281 8.85136C6.09634 8.87611 5.62889 8.87611 5.16241 8.85136C4.86901 8.83336 4.82761 8.94136 4.82761 9.20236C4.83481 16.502 4.83691 23.8019 4.83391 31.1021C4.83391 31.2038 4.82761 31.3055 4.83391 31.4063C4.84458 31.5687 4.89331 31.7264 4.97617 31.8665C5.05903 32.0066 5.1737 32.1253 5.3109 32.2129C5.4481 32.3005 5.60399 32.3546 5.76596 32.3708C5.92794 32.387 6.09146 32.3649 6.24331 32.3063C6.66901 32.1398 6.90121 31.7564 6.90121 31.2092C6.90481 27.5426 6.90631 23.8769 6.90571 20.2121Z" fill="#7D7D7D"/>
<path d="M9.64836 20.415V14.7171C9.64836 14.1852 9.85176 13.9746 10.3774 13.9746C13.7092 13.9746 17.0392 13.9746 20.3674 13.9746C20.8957 13.9746 21.1018 14.1843 21.1018 14.7126C21.1018 18.5316 21.1018 22.3503 21.1018 26.1687C21.1018 26.6763 20.8867 26.8968 20.3881 26.8977H10.3675C9.86526 26.8977 9.64746 26.679 9.64746 26.1732L9.64836 20.415ZM19.8868 18.615C19.8868 17.5053 19.8814 16.4712 19.8868 15.4371C19.8868 15.2382 19.8373 15.1869 19.6384 15.1878C16.7956 15.1944 13.9525 15.1944 11.1091 15.1878C10.9138 15.1878 10.8562 15.2328 10.858 15.4353C10.867 16.8258 10.858 18.2172 10.8652 19.6086C10.8652 19.6689 10.8211 19.7508 10.9192 19.794C11.3278 19.3845 11.7346 18.9732 12.145 18.5655C12.505 18.2055 12.811 18.2055 13.1683 18.5583C13.5256 18.9111 13.8667 19.2396 14.1997 19.5951C14.3356 19.74 14.4076 19.7301 14.5444 19.5951C15.4138 18.7122 16.2922 17.8401 17.1697 16.9653C17.545 16.5909 17.8582 16.5918 18.2389 16.9698C18.7753 17.4999 19.3036 18.0327 19.8904 18.6186L19.8868 18.615ZM18.49 25.6728C18.4702 25.6161 18.4684 25.5936 18.4567 25.5828C16.5703 23.6946 14.6842 21.8064 12.7984 19.9182C12.6967 19.8165 12.6373 19.8111 12.5338 19.9182C12.0154 20.4465 11.4898 20.9694 10.9624 21.4896C10.9276 21.5249 10.9009 21.5673 10.8843 21.6139C10.8677 21.6606 10.8614 21.7103 10.8661 21.7596C10.8661 22.998 10.8661 24.2355 10.8661 25.4739C10.8661 25.6341 10.912 25.6791 11.0704 25.6764C11.6185 25.6665 12.1666 25.6764 12.7147 25.6764L18.49 25.6728ZM19.8904 25.275C19.8904 23.6316 19.8904 22.0602 19.8904 20.4879C19.8917 20.4432 19.8831 20.3988 19.8654 20.3577C19.8477 20.3167 19.8212 20.28 19.7878 20.2503C19.1326 19.5999 18.4795 18.9465 17.8285 18.2901C17.7322 18.192 17.6818 18.2001 17.5918 18.2901C16.855 19.0329 16.1152 19.7721 15.3724 20.5077C15.2662 20.6121 15.2761 20.667 15.3778 20.7678C16.8655 22.2501 18.3496 23.7369 19.8904 25.275Z" fill="#7D7D7D"/>
<path d="M19.6565 29.0923C22.7543 29.0923 25.8518 29.0923 28.949 29.0923C29.219 29.0923 29.4305 29.1697 29.5628 29.4055C29.6204 29.5015 29.6489 29.6122 29.6447 29.724C29.6406 29.8359 29.604 29.9441 29.5394 30.0355C29.4915 30.1133 29.4256 30.1784 29.3473 30.2253C29.269 30.2723 29.1805 30.2998 29.0894 30.3055C29.0282 30.31 28.967 30.3055 28.9094 30.3055H10.3829C9.90948 30.3055 9.64578 30.0823 9.64848 29.6899C9.64664 29.5364 9.70425 29.3881 9.80925 29.276C9.91426 29.164 10.0585 29.0969 10.2119 29.0887C10.3019 29.0824 10.3919 29.0887 10.4864 29.0887L19.6565 29.0923Z" fill="#7D7D7D"/>
<path d="M21.856 8.92281C21.6589 9.56991 21.4645 10.2179 21.2638 10.8641C21.127 11.306 20.8669 11.5049 20.4799 11.4779C20.1253 11.4527 19.912 11.2142 19.8238 10.7579C19.5736 9.47691 19.3213 8.19741 19.0669 6.91941C18.9895 6.52971 19.1803 6.19041 19.5232 6.11751C19.8661 6.04461 20.1721 6.24171 20.2567 6.62781C20.3926 7.23891 20.5087 7.85451 20.6329 8.46921C20.7436 8.46921 20.7274 8.38551 20.7463 8.32431C20.9263 7.75611 21.1039 7.18791 21.2791 6.61971C21.3898 6.27321 21.5707 6.12021 21.8695 6.12021C22.1683 6.12021 22.3906 6.28311 22.4995 6.63051C22.6939 7.26051 22.882 7.88511 23.0863 8.55471C23.2249 8.27031 23.2249 7.98771 23.2897 7.72401C23.3725 7.39101 23.4202 7.04991 23.4859 6.71241C23.5642 6.31101 23.8576 6.07251 24.2059 6.12651C24.5542 6.18051 24.7801 6.48651 24.7027 6.89601C24.4471 8.24601 24.1789 9.59601 23.9062 10.946C23.8765 11.0967 23.7959 11.2326 23.6779 11.3309C23.56 11.4292 23.4118 11.484 23.2582 11.486C22.9099 11.4986 22.648 11.3186 22.5337 10.9586C22.3375 10.343 22.153 9.72381 21.9667 9.10551C21.9442 9.03081 21.9388 8.95701 21.856 8.92281Z" fill="#FF8900"/>
<path d="M12.5493 8.94154C12.5493 8.16844 12.5448 7.48894 12.5493 6.81034C12.5493 6.45034 12.7176 6.20824 12.9993 6.12994C13.0904 6.104 13.1863 6.09947 13.2794 6.1167C13.3725 6.13392 13.4604 6.17244 13.5362 6.22925C13.612 6.28606 13.6737 6.35961 13.7164 6.44417C13.7591 6.52874 13.7816 6.62202 13.7823 6.71674C13.7958 8.06674 13.7931 9.41674 13.7823 10.7667C13.7863 10.911 13.7419 11.0526 13.6563 11.1688C13.5707 11.2851 13.4488 11.3694 13.3098 11.4084C13.0182 11.5038 12.7446 11.4021 12.543 11.1159C12.0534 10.4202 11.5746 9.71734 11.0904 9.01804C11.0346 8.93704 10.9761 8.85874 10.8717 8.71564C10.8717 9.47074 10.8717 10.1556 10.8717 10.8378C10.8717 11.1978 10.662 11.4399 10.3506 11.4768C10.2651 11.4912 10.1775 11.4868 10.0938 11.4639C10.0102 11.4409 9.93263 11.4 9.86647 11.3439C9.80031 11.2879 9.74718 11.2181 9.71079 11.1394C9.6744 11.0606 9.65563 10.9749 9.65579 10.8882C9.64859 9.49744 9.64859 8.10724 9.65579 6.71764C9.65579 6.41524 9.83579 6.22174 10.1058 6.14074C10.3758 6.05974 10.6233 6.17404 10.7898 6.41074C11.3016 7.15294 11.8131 7.89604 12.3243 8.64004C12.3801 8.71744 12.4404 8.79484 12.5493 8.94154Z" fill="#FF8900"/>
<path d="M27.7565 11.4773C27.4162 11.4822 27.0785 11.4173 26.7643 11.2867C26.4501 11.156 26.166 10.9624 25.9295 10.7177C25.6721 10.454 25.6595 10.0877 25.8791 9.84471C26.1149 9.58371 26.4866 9.56751 26.7728 9.82761C27.1328 10.1525 27.5243 10.3361 28.0166 10.2092C28.2164 10.1579 28.3901 10.0454 28.4009 9.83211C28.4117 9.63771 28.229 9.54231 28.0715 9.47211C27.6917 9.30831 27.3029 9.16341 26.9222 9.00231C26.2652 8.72331 25.916 8.21661 25.9529 7.61091C25.97 7.27966 26.0928 6.96262 26.3034 6.70635C26.514 6.45009 26.8012 6.2681 27.1229 6.18711C27.9158 5.97831 28.6277 6.18711 29.2631 6.67221C29.3279 6.71789 29.3826 6.7764 29.4239 6.8441C29.4652 6.9118 29.4922 6.98726 29.5032 7.0658C29.5141 7.14434 29.5089 7.2243 29.4877 7.30072C29.4665 7.37714 29.4299 7.44841 29.3801 7.51011C29.2873 7.63923 29.1475 7.72683 28.9909 7.75409C28.8342 7.78135 28.6731 7.7461 28.5422 7.65591C28.2119 7.44531 27.8807 7.26171 27.4622 7.37871C27.3155 7.42101 27.1922 7.48221 27.1868 7.65591C27.1814 7.82961 27.3236 7.83591 27.4298 7.88181C27.7898 8.03121 28.166 8.16081 28.5233 8.32461C29.1533 8.61261 29.6078 9.04461 29.6267 9.78891C29.6501 10.6889 28.8599 11.4521 27.9014 11.4755C27.8582 11.4791 27.8105 11.4773 27.7565 11.4773Z" fill="#FF8900"/>
<path d="M14.9875 8.76613C14.9875 8.12623 14.983 7.48633 14.9875 6.84643C14.992 6.32263 15.2071 6.11653 15.7327 6.11563C16.2583 6.11473 16.7686 6.11563 17.2861 6.11563C17.6983 6.11563 17.9638 6.36673 17.9575 6.73573C17.9512 7.10473 17.6875 7.32973 17.296 7.33333C17.0017 7.33333 16.7074 7.34053 16.4131 7.33333C16.2754 7.33333 16.2241 7.35943 16.2178 7.51333C16.1908 8.18923 16.1845 8.18923 16.8595 8.18923C16.9909 8.18923 17.1241 8.18293 17.2555 8.18923C17.334 8.19222 17.4112 8.21083 17.4826 8.24397C17.5539 8.27712 17.6179 8.32413 17.6708 8.38227C17.7238 8.44042 17.7646 8.50852 17.791 8.58262C17.8173 8.65671 17.8286 8.73532 17.8243 8.81383C17.8262 8.96751 17.7673 9.11571 17.6604 9.22614C17.5535 9.33656 17.4073 9.40026 17.2537 9.40334C16.99 9.41413 16.7254 9.41594 16.4617 9.40334C16.2898 9.39524 16.2151 9.42133 16.2169 9.62653C16.2169 10.2565 16.2088 10.2565 16.8415 10.2565C17.0215 10.2565 17.2069 10.2493 17.3896 10.2565C17.543 10.2642 17.6876 10.3306 17.7934 10.4421C17.8991 10.5535 17.9579 10.7014 17.9575 10.855C17.9607 10.9338 17.9481 11.0124 17.9205 11.0862C17.8928 11.16 17.8507 11.2275 17.7964 11.2848C17.7422 11.342 17.6771 11.3878 17.6049 11.4194C17.5327 11.451 17.4549 11.4678 17.3761 11.4688C16.7761 11.4784 16.1761 11.4784 15.5761 11.4688C15.2161 11.4625 14.992 11.2123 14.9866 10.801C14.9812 10.1278 14.9875 9.45013 14.9875 8.76613Z" fill="#FF8900"/>
<path d="M26.2546 15.196C25.3816 15.196 24.5083 15.196 23.6347 15.196C23.1955 15.196 22.9291 14.9584 22.9336 14.5768C22.9381 14.1952 23.1938 13.9765 23.6204 13.9756C25.3982 13.9756 27.175 13.9756 28.951 13.9756C29.3767 13.9756 29.6341 14.2087 29.6368 14.5786C29.6368 14.9638 29.3794 15.196 28.9348 15.196C28.0414 15.1972 27.148 15.1972 26.2546 15.196Z" fill="#7D7D7D"/>
<path d="M26.2951 18.1208C25.4023 18.1208 24.5086 18.1208 23.6149 18.1208C23.1973 18.1208 22.9345 17.8814 22.9336 17.5124C22.9327 17.1434 23.1883 16.9013 23.6104 16.9004C25.387 16.9004 27.1636 16.9004 28.9402 16.9004C29.3848 16.9004 29.644 17.138 29.6368 17.5223C29.6305 17.8931 29.3722 18.1199 28.9456 18.1208C28.0618 18.1226 27.1798 18.1208 26.2951 18.1208Z" fill="#7D7D7D"/>
<path d="M26.2546 21.0466C25.3816 21.0466 24.5083 21.0466 23.6347 21.0466C23.1955 21.0466 22.93 20.809 22.9336 20.4274C22.9372 20.0458 23.1937 19.8271 23.6203 19.8262C25.3981 19.8262 27.175 19.8262 28.951 19.8262C29.3767 19.8262 29.6341 20.0593 29.6368 20.4292C29.6368 20.8144 29.3794 21.0466 28.9348 21.0466C28.0414 21.0478 27.148 21.0478 26.2546 21.0466Z" fill="#7D7D7D"/>
<path d="M26.2546 23.9724C25.3816 23.9724 24.5083 23.9724 23.6347 23.9724C23.1955 23.9724 22.93 23.7348 22.9336 23.3532C22.9372 22.9716 23.1937 22.7529 23.6203 22.752C25.3969 22.752 27.1738 22.752 28.951 22.752C29.3767 22.752 29.6332 22.9842 29.6368 23.3541C29.6368 23.7393 29.3794 23.9715 28.9348 23.9724C28.042 23.9736 27.1486 23.9736 26.2546 23.9724Z" fill="#7D7D7D"/>
<path d="M26.2699 26.8972C25.387 26.8972 24.5041 26.8972 23.6203 26.8972C23.2018 26.8972 22.9372 26.6614 22.9336 26.2942C22.93 25.927 23.1847 25.6786 23.605 25.6777C25.3918 25.6777 27.1786 25.6777 28.9654 25.6777C29.3857 25.6777 29.6413 25.9207 29.6368 26.2942C29.6323 26.6677 29.374 26.8963 28.951 26.8972C28.0573 26.899 27.1636 26.8972 26.2699 26.8972Z" fill="#7D7D7D"/>
<path d="M31.1613 20.4427C31.1574 20.2811 31.2178 20.1246 31.3293 20.0075C31.4408 19.8905 31.5942 19.8225 31.7558 19.8185C31.9174 19.8146 32.0739 19.875 32.191 19.9865C32.308 20.098 32.376 20.2514 32.3799 20.413C32.3819 20.493 32.368 20.5726 32.3392 20.6473C32.3104 20.722 32.2672 20.7902 32.212 20.8482C32.1568 20.9061 32.0907 20.9527 32.0175 20.9851C31.9443 21.0175 31.8655 21.0352 31.7855 21.0371C31.7054 21.0391 31.6258 21.0253 31.5512 20.9964C31.4765 20.9676 31.4082 20.9244 31.3503 20.8692C31.2923 20.814 31.2458 20.7479 31.2134 20.6747C31.181 20.6016 31.1633 20.5227 31.1613 20.4427Z" fill="#7D7D7D"/>
</svg>
