<svg width="36" height="36" viewBox="0 0 36 36" fill="none" xmlns="http://www.w3.org/2000/svg">
<path d="M31.5467 24.1474C32.051 23.0575 32.4159 21.9085 32.633 20.7274C33.0153 18.7216 32.9711 16.6579 32.5034 14.6704C32.4584 14.4796 32.4782 14.3887 32.7095 14.3365C33.533 14.1502 33.5303 14.1376 33.6815 14.9719C35.0099 22.2664 31.4189 29.3062 24.7499 32.4481C22.2122 33.6528 19.3964 34.1502 16.5995 33.8881C16.3826 33.8692 16.3295 33.8035 16.3781 33.6109C16.3908 33.5569 16.4005 33.5022 16.4069 33.4471C16.4969 32.7775 16.4924 32.7964 17.1557 32.8414C19.2566 32.983 21.3628 32.6568 23.3225 31.8865C26.6039 30.6157 29.1248 28.444 30.9095 25.411C31.0436 25.1842 31.0166 25.0987 30.7835 24.9835C26.5085 22.8577 22.235 20.7277 17.963 18.5935C17.6084 18.418 17.4752 18.1876 17.4761 17.7907C17.4869 13.0507 17.4893 8.31337 17.4833 3.57877C17.4833 3.16027 17.4833 3.16027 17.0792 3.18367C10.3913 3.56077 4.68983 8.56027 3.41993 15.169C3.22174 16.1786 3.13123 17.2065 3.14993 18.2353C3.14993 18.454 3.12203 18.5593 2.87363 18.5377C2.62523 18.5161 2.28053 18.634 2.13743 18.5089C1.96553 18.3586 2.07443 18.0094 2.08163 17.7484C2.23103 12.7354 4.26683 8.64757 8.15483 5.49667C10.3724 3.69667 12.9248 2.61667 15.7472 2.21977C18.8494 1.75736 22.019 2.23281 24.8489 3.58507C25.0757 3.69217 25.0766 3.78847 24.9686 3.97387C24.8417 4.19077 24.7841 4.52917 24.6023 4.61287C24.4205 4.69657 24.1523 4.45177 23.9228 4.35277C22.2879 3.65013 20.5405 3.24537 18.7631 3.15757C18.4859 3.14317 18.5525 3.29977 18.5516 3.43837C18.5516 6.89137 18.5516 10.3447 18.5516 13.7983C18.5516 15.0052 18.5516 16.2112 18.5471 17.4181C18.5471 17.5927 18.5858 17.6881 18.7559 17.7718C22.9763 19.876 27.1943 21.9844 31.4099 24.097C31.4486 24.1204 31.4909 24.1276 31.5467 24.1474Z" fill="#7D7D7D"/>
<path d="M9.51827 24.8731C10.6964 24.3241 11.8583 24.2323 13.0481 24.5806C15.2081 25.2106 16.5887 27.2734 16.4204 29.6404C16.2737 31.7104 14.5304 33.5608 12.437 33.8794C11.238 34.0842 10.0064 33.8171 8.99987 33.1342C8.93942 33.0902 8.86942 33.0612 8.79558 33.0494C8.72174 33.0377 8.64618 33.0436 8.57507 33.0667C6.85542 33.5033 5.05728 33.5301 3.32537 33.145C2.54327 32.9722 2.08067 32.4124 2.08067 31.6213C2.08067 28.1815 2.07917 24.7414 2.07617 21.301C2.07617 20.7727 2.29937 20.4208 2.78177 20.221C4.77377 19.387 6.76817 19.3795 8.76497 20.1985C9.28877 20.4118 9.53087 20.7763 9.52277 21.3478C9.50657 22.5052 9.51827 23.6698 9.51827 24.8731ZM11.6567 25.4419C9.63347 25.4311 7.93607 27.1159 7.92527 29.1472C7.91447 31.1785 9.59747 32.8678 11.6297 32.8768C12.6133 32.8731 13.556 32.4824 14.2539 31.7892C14.9518 31.096 15.3489 30.156 15.3593 29.1724C15.371 27.1456 13.6925 25.4536 11.6567 25.4419ZM3.14267 23.7796C3.14267 24.433 3.14267 25.0711 3.14267 25.7083C3.14267 25.8361 3.20027 25.8802 3.31277 25.9045C4.84742 26.245 6.4359 26.2643 7.97837 25.9612C8.22047 25.9135 8.43647 25.7407 8.44907 25.4779C8.47427 24.9181 8.45627 24.3574 8.45627 23.7832C6.70492 24.1594 4.89352 24.1582 3.14267 23.7796ZM5.60327 22.9885C6.48275 22.9945 7.36037 22.907 8.22137 22.7275C8.39417 22.6924 8.46797 22.6375 8.45987 22.453C8.44547 22.1218 8.44547 21.7888 8.45987 21.4576C8.47105 21.3881 8.45544 21.3169 8.41618 21.2585C8.37693 21.2 8.31696 21.1586 8.24837 21.1426C6.61127 20.5126 4.97867 20.5045 3.34427 21.1516C3.20207 21.2083 3.13457 21.2731 3.13997 21.436C3.15347 21.778 3.15167 22.1218 3.13997 22.4647C3.13457 22.6312 3.19487 22.6897 3.35777 22.723C4.09586 22.8843 4.84792 22.9732 5.60327 22.9885ZM3.14267 26.9647C3.14267 27.3985 3.14267 27.8152 3.14267 28.2328C3.14267 29.0428 3.13727 29.0608 3.93377 29.1967C4.82747 29.3488 5.72927 29.4208 6.63377 29.3182C6.72377 29.3074 6.86957 29.3569 6.86147 29.1679C6.83177 28.4776 7.01897 27.8278 7.27817 27.169C5.89778 27.3278 4.50069 27.2588 3.14267 26.9647ZM3.14267 30.148C3.14267 30.6673 3.13547 31.1524 3.14267 31.6375C3.14807 31.8877 3.28667 32.0344 3.54047 32.0875C4.27333 32.2509 5.02163 32.3351 5.77247 32.3386C6.47805 32.3426 7.18182 32.2669 7.87037 32.1127C7.52567 31.6438 7.25027 31.1785 7.10537 30.6547C7.04507 30.4387 6.94967 30.3919 6.73817 30.4054C5.53392 30.4983 4.32257 30.4121 3.14357 30.1498L3.14267 30.148Z" fill="#7D7D7D"/>
<path d="M13.7703 15.2034C13.7703 15.9333 13.7703 16.6632 13.7703 17.3931C13.7703 17.808 13.5786 18.0006 13.1655 18.0024C12.5133 18.006 11.8608 18.006 11.208 18.0024C10.7679 18.0024 10.5843 17.8224 10.5834 17.3814C10.5834 15.9216 10.5753 14.4618 10.5897 13.002C10.5897 12.732 10.5105 12.6618 10.2612 12.6861C10.0641 12.7059 9.86249 12.6816 9.66449 12.6924C9.39449 12.7059 9.15509 12.6537 9.03449 12.3756C8.92199 12.1191 9.02009 11.9148 9.18929 11.7141C9.82379 10.9626 10.4493 10.203 11.0793 9.44696C11.2845 9.20036 11.487 8.95196 11.6958 8.70896C12.0018 8.34896 12.351 8.33996 12.648 8.69366C13.5084 9.71696 14.358 10.7475 15.2166 11.7753C15.2946 11.8543 15.3461 11.9558 15.3639 12.0654C15.3816 12.1751 15.3647 12.2876 15.3156 12.3873C15.2085 12.6141 15.0222 12.6996 14.7756 12.6915C14.529 12.6834 14.3085 12.7113 14.079 12.6843C13.8009 12.6519 13.7604 12.7743 13.7649 13.0137C13.7784 13.7436 13.7703 14.4735 13.7703 15.2034ZM10.6734 11.616C10.7787 11.6223 10.8201 11.6268 10.8624 11.6277C11.5293 11.6376 11.6445 11.7546 11.6445 12.4242V16.1412C11.6445 16.9512 11.6445 16.9413 12.441 16.9458C12.6588 16.9458 12.711 16.89 12.711 16.6758C12.7002 15.2934 12.7182 13.9101 12.7002 12.5277C12.6912 11.8626 12.7569 11.5773 13.584 11.6232C13.5966 11.6232 13.6101 11.598 13.6371 11.571C13.1871 11.031 12.7371 10.491 12.2871 9.94646C12.2016 9.84206 12.1521 9.83666 12.0639 9.94646C11.6175 10.4874 11.1603 11.0274 10.6725 11.616H10.6734Z" fill="#7D7D7D"/>
<path d="M21.2303 11.1058C21.305 12.6619 22.007 13.8445 23.4632 14.4817C24.9194 15.1189 26.2928 14.8417 27.4835 13.7905C27.6905 13.6105 27.7868 13.6051 27.9803 13.7905C28.5563 14.3305 28.5761 14.3377 27.9407 14.8273C26.4746 15.9577 24.8465 16.2214 23.1401 15.523C21.4634 14.8363 20.4824 13.543 20.207 11.7331C19.7822 8.93862 22.0718 6.07932 25.3613 6.33312C26.5367 6.42312 27.5411 6.92532 28.379 7.75962C28.4825 7.86312 28.5239 7.93242 28.3835 8.04402C28.1756 8.20872 28.01 8.48322 27.7805 8.54802C27.5195 8.62272 27.3809 8.27262 27.173 8.12952C25.9418 7.28082 24.6395 7.12332 23.2967 7.79112C21.9539 8.45892 21.2996 9.59832 21.2303 11.1058Z" fill="#FF8900"/>
<path d="M24.8308 11.6303C24.3808 11.6492 23.947 11.6348 23.5591 11.3657C23.0191 10.9877 22.714 10.472 22.8211 9.81141C22.9282 9.15081 23.3431 8.69721 23.9974 8.51361C24.253 8.44161 24.4861 8.40831 24.3961 8.05461C24.3664 7.93851 24.4357 7.90161 24.5473 7.90611C24.7019 7.91781 24.8571 7.91781 25.0117 7.90611C25.3069 7.87641 25.5418 7.89261 25.4617 8.29491C25.4239 8.47491 25.576 8.43891 25.6723 8.46051C26.386 8.61711 26.8423 9.04371 27.0295 9.75381C27.0826 9.95541 27.0592 10.0715 26.8072 10.0382C26.6639 10.0229 26.5194 10.0229 26.3761 10.0382C26.143 10.0589 25.9936 10.0103 25.8586 9.76821C25.6273 9.35601 24.2521 9.37671 23.9839 9.76821C23.8939 9.89871 23.8408 10.0382 23.9236 10.1993C23.9714 10.3057 24.0487 10.3961 24.1463 10.4599C24.2439 10.5237 24.3578 10.5582 24.4744 10.5593C24.784 10.5737 25.0945 10.5593 25.4041 10.5593C26.2384 10.5656 26.9593 11.1965 27.0484 11.9993C27.1384 12.7652 26.5885 13.5068 25.7731 13.6922C25.5337 13.7471 25.3969 13.8182 25.4581 14.0882C25.495 14.2529 25.4077 14.297 25.2547 14.2844C25.1223 14.2727 24.9892 14.2727 24.8569 14.2844C24.5527 14.3132 24.3061 14.2952 24.3943 13.8767C24.4285 13.7138 24.2863 13.7525 24.1999 13.7336C23.4871 13.5806 23.0254 13.1621 22.8301 12.4529C22.768 12.2297 22.8103 12.1208 23.0659 12.1523C23.1872 12.1627 23.3091 12.1627 23.4304 12.1523C23.6743 12.1406 23.8579 12.1523 24.0109 12.4304C24.2314 12.8318 25.5913 12.803 25.8649 12.4304C26.1016 12.1091 25.8757 11.6771 25.4311 11.6249C25.231 11.6154 25.0306 11.6172 24.8308 11.6303Z" fill="#FF8900"/>
<path d="M31.2997 5.78418C31.8334 5.78418 31.8334 5.78418 31.8325 6.31338C31.8316 6.84258 31.8325 6.84528 31.3024 6.84618C30.7723 6.84708 30.7705 6.84618 30.7705 6.31608C30.7705 5.78598 30.7705 5.78418 31.2997 5.78418Z" fill="#FF8900"/>
<path d="M32.8945 6.83982C32.8945 6.31152 32.8945 6.31152 33.4282 6.31152C33.9619 6.31152 33.9574 6.31152 33.9565 6.84522C33.9556 7.37892 33.9565 7.37262 33.4228 7.37352C32.8891 7.37442 32.8945 7.37982 32.8945 6.83982Z" fill="#FF8900"/>
<path d="M29.7392 8.97118C29.1749 8.97118 29.1749 8.97118 29.1758 8.40598C29.1758 7.90918 29.1759 7.90918 29.6754 7.90918C30.2379 7.90918 30.2379 7.90918 30.2379 8.47528C30.2397 8.97118 30.2396 8.97118 29.7392 8.97118Z" fill="#FF8900"/>
<path d="M32.8949 8.46002C32.8949 8.97482 32.8949 8.97482 32.3819 8.97482C31.832 8.97482 31.832 8.97482 31.832 8.42852C31.832 7.91282 31.832 7.91282 32.3459 7.91282C32.894 7.90832 32.894 7.90832 32.8949 8.46002Z" fill="#FF8900"/>
<path d="M31.3014 10.5436C31.3014 11.0962 31.3014 11.0962 30.7614 11.0971C30.243 11.0971 30.243 11.0971 30.2412 10.5877C30.2412 10.0333 30.2412 10.0333 30.7812 10.0342C31.3023 10.0351 31.3023 10.0351 31.3014 10.5436Z" fill="#FF8900"/>
<path d="M29.1753 11.1262C29.1753 11.6284 29.1753 11.6284 28.6803 11.6275C28.1115 11.6275 28.1115 11.6275 28.1124 11.0659C28.1124 10.5655 28.1124 10.5655 28.6083 10.5646C29.1744 10.5628 29.1744 10.5628 29.1753 11.1262Z" fill="#FF8900"/>
<path d="M33.4265 11.0749C33.4265 11.6284 33.4265 11.6284 32.8865 11.6284C32.3681 11.6284 32.3681 11.6284 32.3672 11.119C32.3672 10.5646 32.3672 10.5646 32.9072 10.5655C33.4265 10.5673 33.4265 10.5673 33.4265 11.0749Z" fill="#FF8900"/>
<path d="M30.769 12.719C30.769 13.2212 30.769 13.2212 30.2758 13.2212C29.707 13.2212 29.707 13.2212 29.707 12.6614C29.707 12.1592 29.707 12.1592 30.2002 12.1592C30.7699 12.1601 30.7699 12.1601 30.769 12.719Z" fill="#FF8900"/>
<path d="M11.7001 28.6313C12.0601 28.6313 12.4264 28.6025 12.7747 28.7582C13.4047 29.039 13.8169 29.6834 13.7701 30.3368C13.7392 30.669 13.6052 30.9832 13.3868 31.2354C13.1685 31.4876 12.8767 31.6653 12.5524 31.7435C12.2824 31.8038 12.1024 31.8677 12.178 32.1935C12.2104 32.3312 12.1249 32.3591 12.0052 32.3519C11.8855 32.3447 11.7352 32.3456 11.6074 32.3519C11.3194 32.3636 11.0044 32.4203 11.1133 31.9442C11.1511 31.7804 11.0035 31.8209 10.918 31.8029C10.189 31.6472 9.72727 31.2125 9.54187 30.4889C9.49597 30.3089 9.51757 30.1901 9.75427 30.2189C9.88657 30.2315 10.0198 30.2315 10.1521 30.2189C10.3969 30.2063 10.5832 30.2189 10.7308 30.4988C10.918 30.8588 12.3148 30.8786 12.5713 30.5627C12.6408 30.4902 12.6861 30.398 12.7011 30.2987C12.7161 30.1995 12.7 30.098 12.655 30.0083C12.6182 29.915 12.5544 29.8348 12.4719 29.7779C12.3893 29.721 12.2917 29.69 12.1915 29.6888C11.8603 29.6816 11.5282 29.6888 11.1961 29.6888C10.3501 29.6888 9.63367 29.0768 9.52927 28.2776C9.42937 27.5054 9.97927 26.7476 10.8082 26.5586C11.0539 26.5037 11.1763 26.4236 11.1187 26.1599C11.0809 25.988 11.1799 25.9583 11.3257 25.9682C11.4692 25.979 11.6133 25.979 11.7568 25.9682C12.0367 25.9448 12.2698 25.9565 12.1807 26.3462C12.1411 26.5163 12.2707 26.4992 12.3805 26.5208C13.1107 26.6732 13.5685 27.1112 13.7539 27.8348C13.8016 28.0148 13.7755 28.1318 13.5406 28.0985C13.4082 28.0863 13.2751 28.0863 13.1428 28.0985C12.8989 28.1084 12.7108 28.1039 12.565 27.8177C12.3805 27.4577 10.9783 27.437 10.7245 27.7529C10.6589 27.8209 10.6147 27.9068 10.5976 27.9998C10.5805 28.0928 10.5911 28.1888 10.6282 28.2758C10.6618 28.376 10.7252 28.4635 10.81 28.5265C10.8948 28.5896 10.9968 28.6252 11.1025 28.6286C11.2969 28.6385 11.4967 28.6313 11.7001 28.6313Z" fill="#7D7D7D"/>
</svg>
