<svg width="36" height="36" viewBox="0 0 36 36" fill="none" xmlns="http://www.w3.org/2000/svg">
<path d="M6.89056 6.68705C7.26676 7.05335 7.57636 7.34495 7.87156 7.64915C7.91471 7.69184 7.96681 7.7244 8.02409 7.74448C8.08137 7.76456 8.1424 7.77166 8.20276 7.76525C10.7828 7.76525 13.3643 7.76525 15.9473 7.76525C16.0589 7.76525 16.1624 7.76525 16.2542 7.67525C16.5584 7.36385 16.8725 7.06145 17.2496 6.68525H16.5485C15.6395 6.68525 14.7305 6.68525 13.8215 6.68525C13.3373 6.68525 13.1519 6.49805 13.1519 6.01205C13.1519 4.66565 13.1519 3.31895 13.1519 1.97195C13.1519 1.48595 13.3373 1.29965 13.8215 1.29965C16.6055 1.29965 19.3889 1.29965 22.1717 1.29965C22.6595 1.29965 22.8476 1.48415 22.8476 1.96655C22.8476 3.31295 22.8476 4.65965 22.8476 6.00665C22.8476 6.50525 22.6604 6.68435 22.1492 6.68525C21.2294 6.68525 20.3105 6.68525 19.316 6.68525L20.3339 7.71125C20.4176 7.79585 20.5247 7.76075 20.6219 7.76075C23.1803 7.76075 25.7393 7.76075 28.2989 7.76075C28.3756 7.76646 28.4527 7.75495 28.5245 7.72708C28.5963 7.69921 28.6609 7.65568 28.7138 7.59965C28.9937 7.30985 29.2907 7.03625 29.5823 6.75455C29.4797 6.63395 29.3726 6.68345 29.2817 6.68345C28.0919 6.68345 26.9021 6.68345 25.7123 6.68345C25.1804 6.68345 25.004 6.50885 25.0031 5.98235C25.0031 4.64675 25.0031 3.31115 25.0031 1.97555C25.0031 1.48595 25.1831 1.29785 25.6682 1.29785C28.4624 1.29785 31.2569 1.29785 34.0517 1.29785C34.5098 1.29785 34.6988 1.49225 34.6997 1.95935C34.6997 3.31655 34.6997 4.67435 34.6997 6.03275C34.6997 6.49265 34.5062 6.68165 34.0409 6.68345C33.1652 6.68345 32.2904 6.68885 31.4147 6.68345C31.3325 6.67893 31.2505 6.69274 31.1743 6.72388C31.0982 6.75501 31.03 6.80269 30.9746 6.86345C30.4094 7.44125 29.8307 8.00555 29.2646 8.58245C29.1852 8.66855 29.0883 8.73657 28.9804 8.78192C28.8725 8.82726 28.7561 8.84886 28.6391 8.84525C25.8557 8.83985 23.0723 8.83985 20.2889 8.84525C20.1719 8.84903 20.0555 8.82742 19.9476 8.7819C19.8398 8.73637 19.7431 8.66802 19.6643 8.58155C19.2665 8.17025 18.8498 7.77605 18.4556 7.36205C18.3134 7.21355 18.2315 7.20455 18.0848 7.36205C17.6915 7.77695 17.2748 8.17205 16.8761 8.58155C16.7979 8.66905 16.7016 8.73851 16.5939 8.78513C16.4862 8.83175 16.3697 8.85441 16.2524 8.85155C13.4684 8.84615 10.685 8.84615 7.90216 8.85155C7.78455 8.85658 7.66727 8.83591 7.55847 8.79099C7.44967 8.74607 7.35196 8.67798 7.27216 8.59145C6.70696 8.01455 6.12736 7.45025 5.56216 6.87245C5.50682 6.81208 5.43886 6.76464 5.3631 6.73353C5.28734 6.70242 5.20565 6.68839 5.12386 6.69245C4.09066 6.70145 3.05836 6.69245 2.02606 6.69245C1.46716 6.69245 1.29436 6.52325 1.29346 5.97875C1.29346 4.65455 1.29346 3.33035 1.29346 2.00615C1.29346 1.47875 1.46896 1.30505 2.00266 1.30505H10.2827C10.8119 1.30505 10.9874 1.48505 10.9874 2.01155C10.9874 3.33635 10.9874 4.66085 10.9874 5.98505C10.9874 6.51515 10.8074 6.69155 10.2836 6.69155C9.19366 6.68795 8.10016 6.68705 6.89056 6.68705ZM6.13726 5.60705C7.30726 5.60705 8.46826 5.60705 9.63376 5.60705C9.83446 5.60705 9.92896 5.58185 9.92446 5.34155C9.90886 4.43435 9.90886 3.52655 9.92446 2.61815C9.92446 2.39675 9.84706 2.36615 9.65446 2.36705C7.31446 2.37365 4.97206 2.37365 2.62726 2.36705C2.41036 2.36705 2.36986 2.43635 2.37256 2.63705C2.38246 3.53705 2.38606 4.42985 2.37256 5.32625C2.36806 5.57465 2.45446 5.61425 2.67766 5.61245C3.82786 5.60345 4.98256 5.60975 6.13726 5.60975V5.60705ZM18.0029 5.60705C19.1684 5.60705 20.3339 5.60705 21.4994 5.60705C21.6794 5.60705 21.7811 5.59535 21.7775 5.36315C21.7622 4.44425 21.7658 3.52535 21.7775 2.60645C21.7775 2.40935 21.7127 2.36795 21.5291 2.36795C19.1753 2.37335 16.8215 2.37335 14.4677 2.36795C14.2751 2.36795 14.2247 2.42375 14.2265 2.61275C14.2355 3.51995 14.2382 4.42805 14.2265 5.33525C14.2265 5.56385 14.2976 5.61065 14.51 5.60525C15.6719 5.60435 16.8374 5.60975 18.0002 5.60975L18.0029 5.60705ZM29.8514 5.60705C31.0169 5.60705 32.1833 5.60165 33.3488 5.61155C33.5639 5.61155 33.6323 5.56115 33.6296 5.33615C33.6158 4.43975 33.6158 3.54335 33.6296 2.64695C33.6296 2.42555 33.5693 2.36885 33.3506 2.36975C31.0196 2.37755 28.6883 2.37755 26.3567 2.36975C26.1416 2.36975 26.0723 2.42015 26.0759 2.64515C26.0891 3.54155 26.0891 4.43795 26.0759 5.33435C26.0759 5.55485 26.1353 5.61335 26.3549 5.61155C27.5204 5.60345 28.6859 5.60975 29.8514 5.60975V5.60705Z" fill="#7D7D7D"/>
<path d="M6.12913 21.7711C4.74913 21.7711 3.36913 21.7711 1.98913 21.7711C1.48063 21.7711 1.29883 21.5911 1.29883 21.0853C1.29883 17.5963 1.29883 14.1073 1.29883 10.6183C1.29883 10.0936 1.47883 9.92079 2.00983 9.91989C3.87283 9.91989 5.73493 9.91989 7.59703 9.91989C7.7194 9.91412 7.84158 9.93476 7.95526 9.98042C8.06894 10.0261 8.17145 10.0957 8.25583 10.1845C9.07483 11.0155 9.89983 11.8405 10.7308 12.6595C10.8204 12.7431 10.8909 12.8451 10.9375 12.9585C10.9841 13.0719 11.0057 13.194 11.0008 13.3165C10.9948 15.9073 10.9948 18.4987 11.0008 21.0907C11.0008 21.5938 10.8208 21.7747 10.3078 21.7747C8.91283 21.7735 7.51993 21.7723 6.12913 21.7711ZM2.37613 15.8401C2.37613 17.3548 2.38153 18.8695 2.36983 20.3833C2.36983 20.638 2.43823 20.7001 2.68843 20.6992C4.99963 20.689 7.30963 20.689 9.61843 20.6992C9.85063 20.6992 9.92083 20.6416 9.91993 20.4022C9.91093 18.271 9.91093 16.1395 9.91993 14.0077C9.91993 13.7647 9.87133 13.6756 9.60853 13.6846C9.02623 13.7053 8.43853 13.6945 7.85893 13.69C7.42063 13.69 7.22893 13.4902 7.22173 13.051C7.22173 12.4678 7.21183 11.881 7.22173 11.3005C7.22713 11.0773 7.17943 10.99 6.93193 10.9918C5.50753 11.0032 4.08253 11.0032 2.65693 10.9918C2.41303 10.9918 2.36263 11.0701 2.36353 11.2978C2.38063 12.8116 2.37613 14.3254 2.37613 15.8401ZM8.30173 11.8297C8.30173 12.0313 8.31253 12.2113 8.30173 12.3886C8.29093 12.5659 8.34403 12.6307 8.52493 12.6163C8.70583 12.6019 8.89483 12.6163 9.07123 12.6163L8.30173 11.8297Z" fill="#7D7D7D"/>
<path d="M1.29766 28.7756C1.29766 27.0356 1.29766 25.2956 1.29766 23.5556C1.29766 23.0228 1.47226 22.8464 1.99786 22.8455C3.87166 22.8455 5.74546 22.8455 7.61926 22.8455C7.73653 22.8405 7.85348 22.8609 7.96219 22.9051C8.07089 22.9494 8.1688 23.0165 8.24926 23.102C9.07846 23.939 9.91156 24.7718 10.7486 25.6004C10.8334 25.6811 10.8998 25.7792 10.9434 25.8879C10.9871 25.9966 11.0069 26.1134 11.0015 26.2304C10.9961 28.8224 10.9961 31.4138 11.0015 34.0046C11.0015 34.5158 10.8215 34.7012 10.3211 34.7012C7.53826 34.7012 4.75576 34.7012 1.97356 34.7012C1.49026 34.7012 1.30486 34.5131 1.30486 34.0271C1.29886 32.2763 1.29646 30.5258 1.29766 28.7756ZM2.37766 28.7612C2.37766 30.2867 2.37766 31.8131 2.37766 33.3386C2.37766 33.5492 2.42266 33.6284 2.65306 33.6275C4.98586 33.6197 7.31926 33.6197 9.65326 33.6275C9.84496 33.6275 9.92956 33.596 9.92956 33.3737C9.92056 31.2083 9.92056 29.0432 9.92956 26.8784C9.92956 26.666 9.86296 26.6129 9.65956 26.6165C9.07636 26.6291 8.48956 26.6228 7.90906 26.6165C7.42216 26.6165 7.23226 26.4284 7.23046 25.9505C7.23046 25.3781 7.21606 24.8057 7.23586 24.2342C7.24396 23.9804 7.17016 23.9147 6.91816 23.9174C5.51596 23.9294 4.11346 23.9294 2.71066 23.9174C2.44966 23.9174 2.37226 23.9795 2.37406 24.2486C2.38216 25.7552 2.37586 27.2582 2.37586 28.7612H2.37766ZM9.02146 25.5419L8.30146 24.8363C8.30146 24.9713 8.30866 25.1612 8.30146 25.3511C8.29426 25.4942 8.33926 25.5527 8.48956 25.5446C8.68306 25.5329 8.88016 25.5419 9.01966 25.5419H9.02146Z" fill="#7D7D7D"/>
<path d="M30.9383 14.2292C29.9069 14.2292 28.8752 14.2292 27.8432 14.2292C27.3401 14.2292 27.1601 14.0492 27.1592 13.538C27.1592 12.5516 27.1592 11.5649 27.1592 10.5779C27.1592 10.1135 27.3491 9.9218 27.8099 9.9209C29.8949 9.9209 31.9802 9.9209 34.0658 9.9209C34.5041 9.9209 34.6958 10.1189 34.7003 10.5608C34.7039 11.5586 34.7039 12.5564 34.7003 13.5542C34.7003 14.0402 34.514 14.2283 34.0325 14.2292C33.0011 14.231 31.9697 14.2292 30.9383 14.2292ZM30.9284 10.9964C30.1112 10.9964 29.2931 11.0027 28.4759 10.9964C28.2851 10.9964 28.2275 11.0468 28.232 11.2394C28.2434 11.7992 28.2434 12.359 28.232 12.9188C28.2275 13.115 28.2914 13.16 28.4777 13.1591C30.1127 13.1519 31.7483 13.1519 33.3845 13.1591C33.5744 13.1591 33.632 13.1087 33.6284 12.9161C33.6158 12.368 33.6122 11.819 33.6284 11.27C33.6347 11.045 33.5618 10.9919 33.3476 10.9955C32.5421 11.0045 31.7348 10.9964 30.9284 10.9964Z" fill="#7D7D7D"/>
<path d="M30.9168 30.3902C31.9494 30.3902 32.9811 30.3902 34.0119 30.3902C34.5186 30.3902 34.7004 30.5702 34.7013 31.0769C34.7013 32.0633 34.7013 33.05 34.7013 34.037C34.7013 34.5023 34.5114 34.6976 34.0542 34.6985C31.9692 34.6985 29.8839 34.6985 27.7983 34.6985C27.3573 34.6985 27.162 34.5023 27.1602 34.0622C27.1602 33.053 27.1602 32.0441 27.1602 31.0355C27.1602 30.5792 27.3564 30.392 27.8235 30.3911C28.854 30.3884 29.8854 30.3902 30.9168 30.3902ZM30.9663 31.4702C30.1374 31.4702 29.3085 31.4756 28.4805 31.4702C28.3005 31.4702 28.2276 31.5116 28.2321 31.7087C28.2447 32.2685 28.2447 32.8283 28.2321 33.3881C28.2276 33.5771 28.2807 33.6338 28.4742 33.6329C30.1092 33.6257 31.7445 33.6257 33.3801 33.6329C33.6069 33.6329 33.6312 33.5429 33.6276 33.3629C33.6168 32.8229 33.6132 32.2874 33.6276 31.7501C33.6339 31.5323 33.5745 31.4666 33.3513 31.4702C32.5575 31.4756 31.7619 31.4675 30.9663 31.4675V31.4702Z" fill="#7D7D7D"/>
<path d="M30.9374 27.1589C29.906 27.1589 28.8743 27.1589 27.8423 27.1589C27.3401 27.1589 27.1601 26.9789 27.1592 26.4668C27.1592 25.4792 27.1592 24.4925 27.1592 23.5067C27.1592 23.0423 27.3491 22.8506 27.8108 22.8506C29.8844 22.8506 31.9586 22.8506 34.0334 22.8506C34.5149 22.8506 34.6994 23.0387 34.7003 23.5256C34.7003 24.512 34.7003 25.4984 34.7003 26.4848C34.7003 26.9699 34.514 27.158 34.0316 27.1589C33.0002 27.1601 31.9688 27.1601 30.9374 27.1589ZM30.9635 23.9261C30.1346 23.9261 29.3057 23.9315 28.4768 23.9261C28.2887 23.9261 28.2275 23.9729 28.232 24.1673C28.2446 24.7271 28.2446 25.2869 28.232 25.8467C28.2275 26.0402 28.2878 26.0897 28.4768 26.0888C30.1118 26.0816 31.7471 26.0816 33.3827 26.0888C33.5708 26.0888 33.6329 26.042 33.6284 25.8476C33.6149 25.2986 33.6131 24.7496 33.6284 24.2015C33.6347 23.9783 33.5663 23.9216 33.3485 23.9252C32.5547 23.9342 31.7591 23.9261 30.9599 23.9261H30.9635Z" fill="#7D7D7D"/>
<path d="M30.9275 17.46C31.9601 17.46 32.9918 17.46 34.0226 17.46C34.5113 17.46 34.6994 17.64 34.7003 18.1242C34.7003 19.1214 34.7003 20.1192 34.7003 21.1176C34.7003 21.5775 34.5068 21.7683 34.0424 21.7683C31.9688 21.7683 29.8946 21.7683 27.8198 21.7683C27.3536 21.7683 27.161 21.5784 27.1592 21.1203C27.1592 20.1117 27.1592 19.1028 27.1592 18.0936C27.1592 17.6544 27.3563 17.4636 27.7991 17.4636C28.8422 17.46 29.8853 17.46 30.9275 17.46ZM30.9275 18.54C30.1094 18.54 29.2922 18.54 28.4741 18.54C28.3202 18.54 28.2275 18.5499 28.232 18.7488C28.2446 19.3311 28.2419 19.9134 28.232 20.4957C28.232 20.6622 28.2896 20.7 28.4453 20.7C30.1025 20.6952 31.76 20.6952 33.4178 20.7C33.5798 20.7 33.6284 20.6505 33.6257 20.4903C33.6176 19.9197 33.6149 19.3482 33.6257 18.7803C33.6257 18.5841 33.5618 18.54 33.3773 18.5418C32.5628 18.54 31.7447 18.54 30.9275 18.54Z" fill="#7D7D7D"/>
<path d="M17.3585 33.0837C16.4585 33.3096 15.869 32.8632 15.2885 32.2359C14.3453 31.2153 13.331 30.2559 12.3482 29.2749C11.9684 28.8942 11.9675 28.6548 12.3482 28.2768C13.5302 27.0942 14.7113 25.9113 15.8915 24.7281C15.9743 24.6375 16.0762 24.5663 16.1898 24.5196C16.3033 24.4729 16.4258 24.4519 16.5485 24.4581C17.1308 24.4707 17.7185 24.4689 18.2981 24.4581C18.4826 24.4581 18.5438 24.5022 18.5474 24.6975C18.5627 25.5408 18.5645 25.5975 17.7293 25.5237C16.9193 25.4535 16.3442 25.7037 15.8123 26.3157C15.122 27.1095 14.339 27.8241 13.5839 28.5603C13.4192 28.7223 13.4093 28.8123 13.5839 28.9797C14.5439 29.9229 15.4964 30.8745 16.4414 31.8345C16.4976 31.8946 16.5665 31.9413 16.6431 31.9712C16.7198 32.0011 16.8021 32.0134 16.8842 32.0073C17.3558 31.9983 17.8274 32.0073 18.2981 32.0001C18.4781 32.0001 18.5465 32.0352 18.551 32.2359C18.5681 33.0828 18.5753 33.0819 17.7347 33.0819L17.3585 33.0837Z" fill="#FF8900"/>
<path d="M17.3565 20.1599C16.4736 20.3795 15.885 19.9547 15.3108 19.3337C14.3595 18.305 13.338 17.3411 12.348 16.3484C11.9691 15.9686 11.9682 15.7301 12.348 15.3503C13.5288 14.1677 14.7099 12.9851 15.8913 11.8025C15.9692 11.7147 16.0654 11.645 16.1732 11.5984C16.2809 11.5517 16.3976 11.5293 16.515 11.5325C17.109 11.5451 17.7039 11.5433 18.2988 11.5325C18.4878 11.5325 18.5418 11.5811 18.5454 11.7746C18.5598 12.6152 18.5616 12.6746 17.7246 12.5981C16.9146 12.527 16.3404 12.7781 15.8085 13.3919C15.1173 14.1857 14.3352 14.9003 13.581 15.6365C13.4127 15.8003 13.4118 15.8903 13.581 16.0559C14.5413 16.9991 15.4908 17.954 16.4385 18.9098C16.4893 18.9677 16.5525 19.0132 16.6234 19.0432C16.6944 19.0731 16.7711 19.0866 16.848 19.0826C17.3304 19.07 17.8137 19.0826 18.2952 19.0745C18.4752 19.0745 18.5418 19.115 18.5463 19.3121C18.5625 20.1572 18.5697 20.1572 17.7282 20.1572L17.3565 20.1599Z" fill="#FF8900"/>
<path d="M24.9965 26.0799C24.7832 26.0799 24.5747 26.0168 24.3973 25.8985C24.2199 25.7801 24.0815 25.6119 23.9995 25.4151C23.9175 25.2182 23.8957 25.0015 23.9367 24.7922C23.9777 24.5829 24.0798 24.3905 24.23 24.2391C24.3802 24.0877 24.5719 23.9843 24.7809 23.9417C24.9898 23.8991 25.2067 23.9193 25.4042 23.9998C25.6017 24.0803 25.7709 24.2175 25.8905 24.394C26.0102 24.5706 26.0749 24.7786 26.0765 24.9918C26.0775 25.1343 26.0504 25.2756 25.9966 25.4076C25.9428 25.5396 25.8634 25.6596 25.763 25.7607C25.6626 25.8619 25.5432 25.9422 25.4117 25.9969C25.2801 26.0517 25.139 26.0799 24.9965 26.0799Z" fill="#FF8900"/>
<path d="M23.9258 12.074C23.9258 11.8595 23.9897 11.6499 24.1093 11.4719C24.2288 11.2939 24.3987 11.1555 24.5972 11.0744C24.7957 10.9933 25.0138 10.9731 25.2239 11.0164C25.4339 11.0597 25.6263 11.1645 25.7765 11.3176C25.9267 11.4706 26.028 11.6649 26.0674 11.8757C26.1068 12.0864 26.0826 12.3042 25.9978 12.5012C25.913 12.6981 25.7715 12.8654 25.5913 12.9817C25.4111 13.0979 25.2004 13.1579 24.986 13.154C24.703 13.1488 24.4334 13.0327 24.2351 12.8307C24.0368 12.6287 23.9257 12.357 23.9258 12.074Z" fill="#FF8900"/>
<path d="M25.013 18.5401C25.2263 18.5415 25.4344 18.606 25.611 18.7256C25.7877 18.8451 25.925 19.0143 26.0056 19.2117C26.0863 19.4092 26.1066 19.6261 26.0641 19.8351C26.0217 20.0442 25.9182 20.2359 25.7669 20.3862C25.6156 20.5366 25.4231 20.6387 25.2138 20.6798C25.0045 20.7209 24.7878 20.6991 24.5908 20.6171C24.3939 20.5352 24.2257 20.3968 24.1073 20.2193C23.9889 20.0419 23.9258 19.8334 23.9258 19.6201C23.9258 19.4776 23.954 19.3366 24.0087 19.2051C24.0634 19.0736 24.1436 18.9542 24.2446 18.8538C24.3457 18.7534 24.4656 18.674 24.5975 18.6202C24.7293 18.5663 24.8706 18.5391 25.013 18.5401Z" fill="#FF8900"/>
<path d="M25.002 31.4688C25.215 31.4688 25.4232 31.5318 25.6005 31.6498C25.7777 31.7679 25.9162 31.9357 25.9983 32.1322C26.0805 32.3287 26.1027 32.5451 26.0622 32.7542C26.0216 32.9633 25.9202 33.1558 25.7706 33.3074C25.621 33.4589 25.4299 33.5629 25.2214 33.6062C25.0128 33.6495 24.7961 33.6302 24.5986 33.5506C24.401 33.4711 24.2313 33.3349 24.1109 33.1592C23.9906 32.9835 23.9248 32.7761 23.922 32.5632C23.9201 32.4201 23.9466 32.2781 24 32.1454C24.0534 32.0127 24.1327 31.892 24.2332 31.7901C24.3336 31.6883 24.4533 31.6075 24.5853 31.5523C24.7173 31.4971 24.8589 31.4687 25.002 31.4688Z" fill="#FF8900"/>
<path d="M22.8483 19.6441C22.8483 20.1544 22.8483 20.1544 22.3479 20.1544C21.771 20.1544 21.771 20.1544 21.771 19.5874C21.771 19.0771 21.771 19.0771 22.2714 19.0771C22.8483 19.0798 22.8483 19.0798 22.8483 19.6441Z" fill="#FF8900"/>
<path d="M22.2966 12.6125C21.771 12.6125 21.771 12.6125 21.771 12.0941C21.771 11.5352 21.771 11.5352 22.3236 11.5352C22.8483 11.5352 22.8483 11.5352 22.8483 12.0545C22.8483 12.6125 22.8483 12.6125 22.2966 12.6125Z" fill="#FF8900"/>
<path d="M19.6201 12.0455C19.6201 11.5352 19.6201 11.5352 20.1214 11.5352C20.6983 11.5352 20.6983 11.5352 20.6983 12.1022C20.6983 12.6125 20.6983 12.6125 20.197 12.6125C19.6201 12.6125 19.6201 12.6125 19.6201 12.0455Z" fill="#FF8900"/>
<path d="M20.6939 25.02C20.6939 25.5456 20.6939 25.5456 20.1746 25.5456C19.6157 25.5456 19.6157 25.5456 19.6157 24.993C19.6157 24.4683 19.6157 24.4683 20.135 24.4683C20.6939 24.4647 20.6939 24.4647 20.6939 25.02Z" fill="#FF8900"/>
<path d="M21.771 24.9724C21.771 24.4648 21.771 24.4648 22.2741 24.4648C22.8483 24.4648 22.8483 24.4648 22.8483 25.0345C22.8483 25.5421 22.8483 25.5421 22.3461 25.5421C21.771 25.5421 21.771 25.5421 21.771 24.9724Z" fill="#FF8900"/>
<path d="M20.6939 19.6486C20.6939 20.1544 20.6939 20.1544 20.189 20.1544C19.6157 20.1544 19.6157 20.1544 19.6157 19.5838C19.6157 19.0771 19.6157 19.0771 20.1206 19.0771C20.6939 19.0798 20.6939 19.0798 20.6939 19.6486Z" fill="#FF8900"/>
<path d="M20.1386 33.0841C19.6157 33.0841 19.6157 33.0841 19.6157 32.563C19.6157 32.0068 19.6157 32.0068 20.171 32.0068C20.6939 32.0068 20.6939 32.0068 20.6939 32.5279C20.6939 33.0841 20.6939 33.0841 20.1386 33.0841Z" fill="#FF8900"/>
<path d="M22.3362 32.0068C22.8483 32.0068 22.8483 32.0068 22.8483 32.5387C22.8483 33.0706 22.8483 33.0841 22.3164 33.0841C21.771 33.0841 21.771 33.0841 21.771 32.5522C21.771 32.0203 21.771 32.0068 22.3362 32.0068Z" fill="#FF8900"/>
<path d="M6.15978 3.4541C6.61788 3.4541 7.07688 3.4604 7.53498 3.4541C7.70238 3.4541 7.76268 3.4883 7.76898 3.6728C7.79598 4.535 7.80318 4.5341 6.94008 4.5341C6.23538 4.5341 5.53068 4.5251 4.82598 4.5395C4.60008 4.544 4.52178 4.4963 4.52448 4.2515C4.53258 3.4568 4.52448 3.4568 5.32098 3.4568L6.15978 3.4541Z" fill="#7D7D7D"/>
<path d="M18.0097 3.45403C18.4597 3.45403 18.9043 3.46303 19.3516 3.45403C19.5442 3.44863 19.6216 3.48373 19.6216 3.70423C19.627 4.53583 19.636 4.53493 18.7936 4.53493C18.0736 4.53493 17.3626 4.52953 16.6462 4.53493C16.4545 4.53493 16.3762 4.50523 16.3762 4.28382C16.3717 3.45312 16.3618 3.45312 17.2042 3.45312L18.0097 3.45403Z" fill="#7D7D7D"/>
<path d="M29.8261 4.53117C29.3905 4.53117 28.954 4.52217 28.5184 4.53117C28.3141 4.53747 28.2286 4.49967 28.2295 4.26117C28.2295 3.45117 28.2214 3.45117 29.0395 3.45117C29.7595 3.45117 30.4714 3.45837 31.1869 3.45117C31.3912 3.45117 31.4758 3.48267 31.4758 3.72117C31.4758 4.53567 31.4839 4.53567 30.6658 4.53567L29.8261 4.53117Z" fill="#7D7D7D"/>
<path d="M6.14499 14.229C6.95499 14.229 7.75779 14.2362 8.56329 14.2236C8.78379 14.2236 8.84499 14.2866 8.84589 14.5062C8.84589 15.3063 8.85669 15.3063 8.04579 15.3063C6.61209 15.3063 5.17929 15.3009 3.74649 15.3117C3.51069 15.3117 3.44589 15.2478 3.44679 15.012C3.45129 14.229 3.44139 14.229 4.23069 14.229H6.14499Z" fill="#7D7D7D"/>
<path d="M6.13695 17.4597C5.32694 17.4597 4.52414 17.4543 3.71864 17.4642C3.51974 17.4642 3.44864 17.4192 3.44864 17.205C3.43784 16.3824 3.42974 16.3824 4.25864 16.3824C5.68064 16.3824 7.10264 16.3878 8.52464 16.377C8.76764 16.377 8.85134 16.4274 8.84774 16.6875C8.83694 17.4597 8.84774 17.4597 8.08454 17.4597H6.13695Z" fill="#7D7D7D"/>
<path d="M6.11976 19.6198C5.32506 19.6198 4.53036 19.6117 3.73566 19.6198C3.51696 19.6198 3.45216 19.5604 3.45216 19.339C3.45216 18.5371 3.44046 18.5371 4.25046 18.5371C5.68416 18.5371 7.11696 18.5425 8.54976 18.5371C8.78376 18.5371 8.85216 18.5974 8.85126 18.8341C8.85126 19.6189 8.85666 19.6198 8.06826 19.6198H6.11976Z" fill="#7D7D7D"/>
<path d="M5.34782 13.1522C4.46492 13.1522 4.47032 13.1521 4.52612 12.2782C4.53692 12.1162 4.59002 12.0694 4.74392 12.0721C5.14532 12.0793 5.55391 12.0361 5.94811 12.0856C6.36121 12.1369 6.10202 12.4906 6.12811 12.6985C6.14792 12.8389 6.30812 13.1305 5.94811 13.1485C5.74922 13.1602 5.54852 13.1513 5.34782 13.1522Z" fill="#7D7D7D"/>
<path d="M6.14589 27.1587C6.95589 27.1587 7.75869 27.1659 8.56419 27.1533C8.78649 27.1533 8.84499 27.2181 8.84589 27.4359C8.84589 28.236 8.85669 28.236 8.04489 28.236C6.61209 28.236 5.17839 28.2306 3.74559 28.2414C3.50799 28.2414 3.44589 28.1748 3.44679 27.9408C3.45129 27.1587 3.44679 27.1587 4.23159 27.1587H6.14589Z" fill="#7D7D7D"/>
<path d="M6.14423 30.3904C5.34953 30.3904 4.55483 30.3796 3.76013 30.3967C3.50183 30.403 3.44333 30.322 3.44693 30.0763C3.45683 29.3131 3.44693 29.3131 4.21733 29.3131C5.65103 29.3131 7.08383 29.3176 8.51663 29.3086C8.74703 29.3086 8.85233 29.3365 8.84783 29.6101C8.83703 30.3904 8.84783 30.3904 8.05943 30.3904H6.14423Z" fill="#7D7D7D"/>
<path d="M6.14409 31.4674C6.95409 31.4674 7.75689 31.4746 8.56239 31.4629C8.78109 31.4629 8.84499 31.5232 8.84589 31.7437C8.84589 32.5447 8.85759 32.5447 8.04669 32.5447C6.61389 32.5447 5.18019 32.5393 3.74739 32.5501C3.51249 32.5501 3.44589 32.4889 3.44679 32.2522C3.45129 31.4674 3.44139 31.4674 4.22979 31.4674H6.14409Z" fill="#7D7D7D"/>
<path d="M5.34782 26.0802C4.46492 26.0802 4.47032 26.0802 4.52612 25.2072C4.53692 25.0452 4.59002 24.9984 4.74392 25.0011C5.14532 25.0083 5.55391 24.9651 5.94811 25.0137C6.36121 25.065 6.10202 25.4196 6.12811 25.6275C6.14792 25.7679 6.30812 26.0595 5.94811 26.0775C5.74922 26.0892 5.54852 26.0802 5.34782 26.0802Z" fill="#7D7D7D"/>
</svg>
