<svg width="36" height="36" viewBox="0 0 36 36" fill="none" xmlns="http://www.w3.org/2000/svg">
<path d="M2.47363 27.5154V4.96139C2.57623 4.90379 2.56363 4.78859 2.58883 4.70129C2.76929 4.06004 3.15263 3.49451 3.68143 3.08939C4.07923 2.77079 4.56073 2.65019 5.02063 2.47559H30.9073C30.9181 2.49089 30.9262 2.51969 30.9388 2.52059C32.4562 2.71499 33.5299 4.14059 33.5254 5.64629C33.5011 12.7185 33.5146 19.7907 33.5146 26.8629C33.5146 26.9646 33.5146 27.0654 33.5146 27.1662C33.5018 27.4539 33.4298 27.7358 33.3031 27.9944C33.1765 28.253 32.9978 28.4827 32.7784 28.6692C32.2663 29.1192 31.6498 29.2209 31.0018 29.1921C30.7696 29.1822 30.7201 29.2506 30.7237 29.4738C30.7381 30.3423 30.7363 31.2117 30.7237 32.0838C30.7237 32.2764 30.7768 32.3169 30.9595 32.3133C31.5949 32.3025 32.2321 32.3052 32.8684 32.3133C33.2563 32.3133 33.5182 32.5716 33.5155 32.9226C33.5128 33.2736 33.2509 33.5139 32.8594 33.5238C32.7694 33.5238 32.6794 33.5238 32.5894 33.5238C22.8694 33.5238 13.1494 33.5256 3.42943 33.5292C3.04783 33.5292 2.71573 33.486 2.47543 33.1602V32.6697C2.71483 32.3448 3.04513 32.2827 3.42763 32.2998C3.94063 32.3232 4.45633 32.2953 4.97023 32.3106C5.19253 32.3169 5.27713 32.2746 5.27173 32.0244C5.25283 31.2144 5.26453 30.4107 5.26453 29.6043C5.26453 29.1984 5.26453 29.1939 4.85143 29.1993C4.05313 29.2092 3.37363 28.9653 2.87143 28.3074C2.68783 28.0662 2.63293 27.7656 2.47363 27.5154ZM18.0139 8.05379C13.3465 8.05379 8.67883 8.05169 4.01083 8.04749C3.75793 8.04749 3.67873 8.08889 3.67873 8.36699C3.68833 14.4492 3.68833 20.532 3.67873 26.6154C3.67873 27.6 3.96133 28.0356 5.06743 27.9609C5.22673 27.9501 5.27083 27.9114 5.26723 27.7557C5.25733 27.3057 5.26273 26.8458 5.26723 26.3913C5.26723 25.8513 5.47963 25.6371 6.01423 25.6362C7.19683 25.6362 8.37913 25.6362 9.56113 25.6362C10.1596 25.6362 10.3594 25.8351 10.3594 26.4309C10.3594 28.2894 10.3666 30.1488 10.3522 32.0109C10.3522 32.2737 10.4278 32.3286 10.6699 32.3142C11.0331 32.2899 11.3975 32.2899 11.7607 32.3142C12.0307 32.334 12.0631 32.2359 12.0631 31.9965C12.0553 27.9039 12.0535 23.8116 12.0577 19.7196C12.0577 19.1427 12.28 18.9213 12.8677 18.9204C14.0299 18.9204 15.1918 18.9204 16.3534 18.9204C16.9339 18.9204 17.1535 19.1445 17.1535 19.7304V29.7897C17.1535 30.5574 17.1589 31.326 17.1535 32.0937C17.1535 32.2647 17.1985 32.316 17.3704 32.3106C17.7637 32.298 18.1588 32.2881 18.5512 32.3106C18.8077 32.3259 18.8626 32.2494 18.8608 31.9992C18.85 29.5944 18.8545 27.1896 18.8554 24.7848C18.8554 24.3105 19.0741 24.0648 19.5088 24.0603C20.7724 24.0549 22.0354 24.0549 23.2978 24.0603C23.6992 24.0603 23.9368 24.3015 23.9458 24.6984C23.9521 24.9918 23.9458 25.2852 23.9458 25.5777C23.9458 27.7197 23.9458 29.862 23.9458 32.0046C23.9458 32.2179 23.9656 32.3286 24.2284 32.3106C24.6217 32.2881 25.016 32.2881 25.4092 32.3106C25.618 32.3205 25.6531 32.2458 25.6513 32.0577C25.6423 31.1181 25.6513 30.1776 25.6513 29.238C25.6513 28.1067 25.6513 26.9745 25.6513 25.8432C25.6513 25.5498 25.7611 25.3311 26.032 25.2132C26.4586 25.0332 26.8636 25.3419 26.8645 25.8549C26.8645 27.9159 26.8645 29.9772 26.8645 32.0388C26.8645 32.2404 26.8978 32.3142 27.121 32.3088C27.8482 32.2926 28.5754 32.2971 29.3026 32.3088C29.4826 32.3088 29.542 32.28 29.542 32.0829C29.5348 27.8787 29.5348 23.6751 29.542 19.4721C29.542 19.3092 29.5096 19.2471 29.3296 19.2498C28.5826 19.2597 27.8347 19.2633 27.0868 19.2498C26.8771 19.2498 26.8663 19.3326 26.8681 19.4964C26.8753 20.1939 26.8726 20.8914 26.8681 21.588C26.8681 22.0308 26.6341 22.3008 26.2624 22.3008C25.8907 22.3008 25.6585 22.0308 25.6576 21.588C25.6576 20.6694 25.6576 19.7499 25.6576 18.8295C25.6576 18.2301 25.8736 18.0141 26.4784 18.0132H29.9344C30.5347 18.0132 30.7498 18.2337 30.7498 18.8349V27.6252C30.7498 27.6963 30.7498 27.7674 30.7498 27.8376C30.7474 27.8519 30.748 27.8666 30.7516 27.8807C30.7552 27.8948 30.7617 27.908 30.7707 27.9194C30.7796 27.9309 30.7909 27.9403 30.8038 27.9471C30.8166 27.954 30.8307 27.958 30.8452 27.9591C31.7218 28.1796 32.3266 27.7134 32.3266 26.8071C32.3266 20.6637 32.3284 14.5203 32.332 8.37689C32.332 8.12129 32.287 8.04659 32.0116 8.04659C27.3382 8.05679 22.6723 8.05919 18.0139 8.05379ZM17.9635 6.83969H31.9666C32.0377 6.83969 32.1088 6.83969 32.179 6.83969C32.269 6.84509 32.3059 6.80999 32.3023 6.71819C32.2843 6.16379 32.3626 5.60399 32.2321 5.05679C32.0269 4.20089 31.2835 3.68969 30.2701 3.68969H5.56783C4.55443 3.71849 3.86953 4.32419 3.71203 5.32679C3.65173 5.72819 3.71203 6.13679 3.68143 6.53729C3.65983 6.79289 3.73993 6.84779 3.99103 6.84689C8.65003 6.83849 13.3075 6.83609 17.9635 6.83969ZM13.2655 26.2077C13.2655 28.1565 13.2655 30.105 13.2655 32.0532C13.2655 32.2332 13.2844 32.316 13.5022 32.3115C14.2384 32.2962 14.9764 32.298 15.7126 32.3115C15.9079 32.3115 15.9403 32.2539 15.9403 32.0748C15.9349 28.1748 15.9349 24.2781 15.9403 20.3847C15.9403 20.1903 15.8818 20.1534 15.7027 20.1561C14.9827 20.166 14.269 20.1723 13.5526 20.1561C13.3051 20.1498 13.2619 20.2308 13.2628 20.4567C13.2691 22.371 13.2655 24.2898 13.2655 26.2077ZM20.056 28.788C20.056 29.8788 20.0605 30.9696 20.0506 32.0613C20.0506 32.2557 20.0965 32.3142 20.2972 32.3106C21.0343 32.298 21.7723 32.3007 22.5094 32.3106C22.6795 32.3106 22.7272 32.2674 22.7272 32.0946C22.7212 29.892 22.7212 27.6897 22.7272 25.4877C22.7272 25.3185 22.6867 25.2672 22.513 25.269C21.775 25.2789 21.0379 25.2807 20.3008 25.269C20.1046 25.269 20.0497 25.3158 20.0515 25.5156C20.0614 26.6055 20.056 27.6963 20.056 28.788ZM9.14263 29.5836C9.14263 28.7556 9.14263 27.9276 9.14263 27.0987C9.14263 26.9142 9.11473 26.8386 8.90323 26.8431C8.17603 26.8584 7.44883 26.8548 6.72163 26.8431C6.53533 26.8431 6.46513 26.8728 6.46603 27.0834C6.47623 28.7406 6.47623 30.3975 6.46603 32.0541C6.46603 32.2386 6.49393 32.3142 6.70633 32.3097C7.43293 32.2947 8.16013 32.2947 8.88793 32.3097C9.11383 32.3151 9.14443 32.2359 9.14173 32.0397C9.13633 31.2207 9.14263 30.4026 9.14263 29.5836Z" fill="#7D7D7D"/>
<path d="M14.2499 10.7196C14.6089 10.718 14.9626 10.805 15.2799 10.9729C15.5971 11.1408 15.868 11.3845 16.0685 11.6822C16.269 11.9799 16.3929 12.3225 16.4292 12.6796C16.4656 13.0367 16.4132 13.3972 16.2767 13.7292C16.2011 13.9092 16.2164 13.9992 16.3514 14.1351C17.6348 15.4089 18.9134 16.6875 20.1872 17.9709C20.315 18.1005 20.4176 18.1446 20.6048 18.0735C20.8579 17.9706 21.1295 17.9211 21.4025 17.9283C21.6756 17.9354 21.9442 17.9989 22.1915 18.1149C22.3517 18.1896 22.4363 18.1509 22.5515 18.0375C23.7767 16.8045 25.0067 15.576 26.2415 14.352C26.3738 14.2206 26.3828 14.1351 26.2883 13.9713C26.0392 13.5392 25.9473 13.0342 26.0281 12.5421C26.109 12.0499 26.3577 11.6009 26.732 11.2713C27.542 10.5765 28.7012 10.5243 29.4887 11.1471C30.3356 11.8167 30.611 12.9201 30.1592 13.8282C29.6723 14.8056 28.6355 15.2871 27.6059 14.9982C27.5374 14.9719 27.4623 14.9682 27.3915 14.9876C27.3208 15.007 27.2581 15.0486 27.2126 15.1062C25.949 16.3752 24.683 17.6397 23.4146 18.8997C23.2859 19.0275 23.2787 19.1193 23.348 19.284C23.7458 20.22 23.438 21.264 22.6055 21.894C22.2212 22.1686 21.7581 22.3109 21.286 22.2995C20.8138 22.2881 20.3581 22.1237 19.9874 21.831C19.1774 21.1659 18.9155 20.1066 19.3574 19.1949C19.4474 19.0149 19.4249 18.9249 19.2899 18.789C18.0197 17.529 16.7549 16.2648 15.4955 14.9964C15.3614 14.8614 15.2606 14.8353 15.0833 14.9154C14.844 15.0241 14.5852 15.0837 14.3224 15.0906C14.0596 15.0976 13.7981 15.0518 13.5533 14.9559C13.3787 14.892 13.2671 14.901 13.1312 15.0387C12.044 16.1373 10.9508 17.2302 9.85164 18.3174C9.72384 18.4443 9.72024 18.5316 9.78324 18.699C10.1063 19.5549 9.98484 20.3541 9.35484 21.0273C8.74374 21.6807 7.96794 21.8814 7.11924 21.6132C6.27054 21.345 5.74674 20.7321 5.61444 19.8276C5.37234 18.1833 7.03554 16.8846 8.58444 17.5164C8.77524 17.5938 8.87874 17.5722 9.02094 17.4264C10.0787 16.3554 11.1425 15.2907 12.2123 14.2323C12.3464 14.1 12.3716 14.0037 12.2861 13.8228C12.1307 13.4915 12.0612 13.1263 12.0841 12.761C12.1071 12.3958 12.2217 12.0422 12.4174 11.7329C12.6131 11.4236 12.8836 11.1687 13.2039 10.9916C13.5242 10.8145 13.884 10.7209 14.2499 10.7196ZM29.1476 12.9075C29.1492 12.7162 29.0941 12.5288 28.9892 12.3688C28.8843 12.2089 28.7343 12.0836 28.5583 12.0089C28.3822 11.9341 28.1879 11.9133 28 11.9489C27.8121 11.9845 27.6389 12.075 27.5024 12.209C27.3659 12.343 27.2722 12.5144 27.2331 12.7017C27.194 12.8889 27.2113 13.0835 27.2827 13.2609C27.3542 13.4384 27.4767 13.5906 27.6346 13.6985C27.7926 13.8063 27.979 13.8649 28.1702 13.8669C28.4254 13.8638 28.6695 13.7622 28.8516 13.5835C29.0337 13.4047 29.1398 13.1626 29.1476 12.9075ZM22.2995 20.1237C22.3004 19.9325 22.2446 19.7452 22.139 19.5858C22.0335 19.4263 21.883 19.3017 21.7066 19.2277C21.5302 19.1538 21.3359 19.1339 21.1481 19.1704C20.9604 19.207 20.7877 19.2984 20.652 19.4332C20.5163 19.5679 20.4236 19.7399 20.3856 19.9273C20.3476 20.1148 20.3661 20.3093 20.4387 20.4862C20.5113 20.6631 20.6348 20.8145 20.7935 20.9213C20.9522 21.028 21.139 21.0853 21.3302 21.0858C21.5844 21.0806 21.8269 20.9778 22.0073 20.7987C22.1878 20.6195 22.2924 20.3779 22.2995 20.1237ZM15.2102 12.8877C15.2051 12.6997 15.1445 12.5175 15.0361 12.3638C14.9276 12.2102 14.7762 12.092 14.6008 12.0241C14.4254 11.9563 14.2339 11.9418 14.0503 11.9824C13.8667 12.0231 13.6992 12.1171 13.5689 12.2527C13.4386 12.3882 13.3512 12.5593 13.3178 12.7444C13.2844 12.9294 13.3064 13.1202 13.3811 13.2928C13.4558 13.4654 13.5798 13.612 13.7376 13.7143C13.8954 13.8167 14.0799 13.87 14.2679 13.8678C14.5226 13.8619 14.7645 13.7555 14.9411 13.5719C15.1176 13.3883 15.2143 13.1424 15.2102 12.8877ZM8.73024 19.5432C8.73166 19.354 8.67691 19.1687 8.57291 19.0106C8.46892 18.8526 8.32036 18.7289 8.14605 18.6554C7.97174 18.5818 7.77952 18.5617 7.59374 18.5974C7.40797 18.6332 7.23698 18.7233 7.10245 18.8563C6.96792 18.9894 6.87588 19.1593 6.83801 19.3447C6.80014 19.53 6.81813 19.7225 6.8897 19.8976C6.96128 20.0727 7.08321 20.2227 7.24007 20.3285C7.39693 20.4342 7.58165 20.4911 7.77084 20.4918C7.89661 20.4943 8.02162 20.4716 8.13845 20.425C8.25529 20.3783 8.36158 20.3087 8.45103 20.2203C8.54049 20.1318 8.61129 20.0263 8.65925 19.91C8.70721 19.7937 8.73135 19.669 8.73024 19.5432Z" fill="#FF8900"/>
<path d="M7.30937 11.3287C6.84497 11.3287 6.37967 11.3332 5.91527 11.3287C5.52467 11.3233 5.26457 11.0758 5.26367 10.7239C5.26277 10.372 5.52377 10.12 5.91527 10.1173C6.85367 10.1119 7.79267 10.1119 8.73227 10.1173C9.12467 10.1173 9.38387 10.3711 9.38387 10.723C9.38387 11.0749 9.12377 11.3233 8.73317 11.3287C8.25887 11.3332 7.78367 11.3287 7.30937 11.3287Z" fill="#7D7D7D"/>
<path d="M7.29042 14.2393C6.84042 14.2393 6.38232 14.2393 5.92782 14.2393C5.53092 14.2348 5.26992 13.9981 5.26092 13.6489C5.25282 13.2844 5.51832 13.0288 5.92782 13.027C6.85662 13.0222 7.78662 13.0222 8.71782 13.027C9.12732 13.027 9.39282 13.2853 9.38382 13.6489C9.37572 13.999 9.11382 14.2348 8.71782 14.2393C8.24352 14.2429 7.76922 14.2393 7.29042 14.2393Z" fill="#7D7D7D"/>
<path d="M11.6387 10.7193C11.6407 10.8001 11.6262 10.8804 11.5961 10.9553C11.566 11.0303 11.521 11.0983 11.4637 11.1553C11.4064 11.2122 11.3381 11.2569 11.263 11.2865C11.1879 11.3162 11.1075 11.3302 11.0267 11.3277C10.9472 11.3262 10.8687 11.309 10.7958 11.2771C10.7229 11.2453 10.657 11.1994 10.6019 11.142C10.5467 11.0847 10.5034 11.0171 10.4744 10.943C10.4453 10.8689 10.4312 10.7899 10.4327 10.7103C10.4343 10.6308 10.4515 10.5523 10.4833 10.4794C10.5152 10.4065 10.5611 10.3406 10.6184 10.2855C10.6757 10.2303 10.7434 10.187 10.8174 10.158C10.8915 10.1289 10.9706 10.1148 11.0501 10.1163C11.208 10.1187 11.3585 10.1834 11.4688 10.2964C11.5791 10.4094 11.6402 10.5614 11.6387 10.7193Z" fill="#7D7D7D"/>
<path d="M26.2536 23.2521C26.4111 23.2567 26.5606 23.3221 26.671 23.4344C26.7814 23.5468 26.844 23.6976 26.8458 23.8551C26.848 23.9372 26.8334 24.019 26.803 24.0953C26.7727 24.1717 26.7271 24.2411 26.6691 24.2993C26.611 24.3575 26.5418 24.4033 26.4656 24.4339C26.3893 24.4646 26.3076 24.4794 26.2254 24.4775C26.1433 24.4756 26.0624 24.457 25.9876 24.4229C25.9128 24.3888 25.8458 24.3399 25.7905 24.279C25.7352 24.2182 25.6929 24.1468 25.6661 24.0691C25.6392 23.9915 25.6285 23.9091 25.6344 23.8272C25.643 23.6698 25.7124 23.5218 25.8279 23.4146C25.9434 23.3073 26.096 23.249 26.2536 23.2521Z" fill="#7D7D7D"/>
<path d="M22.7855 5.87045H16.0895C15.9275 5.87045 15.7673 5.87585 15.6233 5.78045C15.401 5.62925 15.2912 5.42045 15.3425 5.16035C15.3619 5.03425 15.422 4.91794 15.5136 4.82921C15.6053 4.74047 15.7235 4.68419 15.8501 4.66895C15.9505 4.65737 16.0517 4.65436 16.1525 4.65995H29.423C29.5239 4.65572 29.625 4.65873 29.7254 4.66895C29.869 4.68985 30.0003 4.76175 30.0952 4.87148C30.1901 4.98122 30.2423 5.12146 30.2423 5.26655C30.2423 5.41164 30.1901 5.55188 30.0952 5.66162C30.0003 5.77135 29.869 5.84325 29.7254 5.86415C29.6249 5.87362 29.5239 5.87632 29.423 5.87225L22.7855 5.87045Z" fill="#7D7D7D"/>
<path d="M6.35124 4.65919C6.47168 4.6585 6.58959 4.69373 6.68991 4.76038C6.79023 4.82703 6.8684 4.92207 6.91443 5.03337C6.96047 5.14467 6.97228 5.26717 6.94835 5.38521C6.92442 5.50325 6.86585 5.61148 6.78011 5.69606C6.69437 5.78065 6.58536 5.83776 6.467 5.86008C6.34865 5.88241 6.22632 5.86894 6.11566 5.8214C6.00499 5.77387 5.91101 5.69442 5.84573 5.5932C5.78044 5.49199 5.74681 5.37361 5.74914 5.25319C5.75309 5.0955 5.81804 4.94548 5.93033 4.8347C6.04262 4.72392 6.19351 4.661 6.35124 4.65919Z" fill="#7D7D7D"/>
<path d="M9.38515 5.255C9.38711 5.37543 9.35313 5.49371 9.28754 5.59473C9.22195 5.69574 9.12773 5.77491 9.01692 5.82212C8.90612 5.86933 8.78375 5.88242 8.66546 5.85974C8.54717 5.83706 8.43833 5.77963 8.35285 5.69478C8.26736 5.60994 8.20911 5.50153 8.18554 5.38342C8.16197 5.2653 8.17415 5.14284 8.22052 5.03168C8.26689 4.92053 8.34535 4.82571 8.44587 4.75937C8.54639 4.69302 8.66441 4.65815 8.78485 4.6592C8.9425 4.66172 9.09306 4.72516 9.20497 4.83623C9.31688 4.9473 9.38145 5.09738 9.38515 5.255Z" fill="#7D7D7D"/>
<path d="M11.2092 4.65918C11.3297 4.66015 11.4471 4.69701 11.5465 4.76507C11.6459 4.83312 11.7228 4.92928 11.7672 5.04123C11.8117 5.15319 11.8218 5.27587 11.7962 5.39359C11.7706 5.51131 11.7105 5.61872 11.6235 5.70209C11.5365 5.78546 11.4267 5.84101 11.308 5.86162C11.1893 5.88224 11.0672 5.867 10.9572 5.81784C10.8472 5.76868 10.7544 5.68785 10.6906 5.58566C10.6268 5.48347 10.5949 5.36458 10.599 5.24418C10.6053 5.08668 10.6724 4.93774 10.7861 4.82865C10.8999 4.71957 11.0516 4.65882 11.2092 4.65918Z" fill="#7D7D7D"/>
</svg>
