<svg width="36" height="36" viewBox="0 0 36 36" fill="none" xmlns="http://www.w3.org/2000/svg">
<path d="M2.1875 5.65938C2.4026 5.18508 2.7023 4.79268 3.2495 4.69998C3.50515 4.67021 3.76279 4.66118 4.0199 4.67298C4.5446 4.67298 5.0693 4.67298 5.594 4.67298C5.9342 4.67298 6.134 4.84758 6.1403 5.12298C6.1484 5.41998 5.9504 5.59638 5.5913 5.59908C4.9613 5.60358 4.3313 5.59908 3.7076 5.59908C3.2405 5.59908 3.1145 5.72238 3.1145 6.17778C3.1145 12.4178 3.1145 18.656 3.1145 24.8924C3.1145 25.3595 3.2414 25.4801 3.7301 25.4801H27.7241C27.8267 25.4801 27.9293 25.4801 28.0328 25.4801C28.3235 25.4936 28.508 25.6673 28.5134 25.9301C28.5188 26.1929 28.3289 26.4026 28.0256 26.4053C27.2021 26.4116 26.3786 26.4143 25.5551 26.4053C25.3472 26.4053 25.2572 26.4413 25.2851 26.6681C25.2964 26.8737 25.2964 27.0798 25.2851 27.2855C25.2851 28.0568 24.8558 28.4933 24.0854 28.496C22.7264 28.5005 21.3683 28.496 20.0093 28.496H19.67C19.6196 28.6337 19.7186 28.7174 19.7654 28.8101C20.4161 30.089 21.0731 31.3643 21.7229 32.6441C21.9209 33.032 21.7715 33.3686 21.3962 33.4091C21.1262 33.4388 20.9912 33.2732 20.8805 33.0563C20.2955 31.9097 19.7072 30.761 19.1156 29.6102C18.9572 29.3006 18.7916 28.9946 18.6413 28.6805C18.6226 28.6233 18.5854 28.574 18.5355 28.5405C18.4856 28.5069 18.4259 28.4909 18.3659 28.4951C16.7813 28.5005 15.1964 28.5005 13.6112 28.4951C13.4204 28.4951 13.3691 28.6022 13.3025 28.7318C12.5753 30.1574 11.8472 31.5815 11.1182 33.0041C11.039 33.1598 10.9679 33.3272 10.7861 33.3902C10.6996 33.4252 10.6044 33.4329 10.5134 33.4123C10.4223 33.3917 10.3398 33.3438 10.2767 33.275C10.1156 33.104 10.1156 32.9051 10.2164 32.7053C10.4936 32.1563 10.7753 31.61 11.0552 31.0637C11.4338 30.3251 11.8124 29.5862 12.191 28.847C12.371 28.5023 12.3665 28.5014 11.993 28.5014C10.6556 28.5014 9.3164 28.4834 7.979 28.5086C7.2122 28.523 6.6191 28.0703 6.6902 27.2306C6.7064 27.0362 6.6776 26.8373 6.6965 26.6438C6.7154 26.4503 6.6362 26.4089 6.4544 26.4107C5.6003 26.4197 4.7444 26.3819 3.8921 26.4242C3.0821 26.4647 2.4989 26.1983 2.1875 25.4261V5.65938ZM15.9728 26.4152C13.4312 26.4152 10.8893 26.4152 8.3471 26.4152C8.114 26.4152 7.7954 26.3126 7.6703 26.4593C7.5452 26.606 7.6262 26.9093 7.6235 27.1406C7.6235 27.542 7.6235 27.542 8.0294 27.542H23.5274C24.3518 27.542 24.3374 27.542 24.3572 26.7185C24.3626 26.4485 24.2762 26.4062 24.0305 26.4071C21.344 26.4179 18.6584 26.4152 15.9728 26.4152Z" fill="#7D7D7D"/>
<path d="M20.4303 17.2345C20.5833 14.1331 22.5003 11.8489 25.2336 11.2486C28.5546 10.5205 31.8783 12.7669 32.4534 16.1311C32.7729 17.9959 32.2968 19.6483 31.1034 21.0973C30.9585 21.2773 30.9621 21.3844 31.0719 21.5725C31.8951 22.9801 32.7102 24.3928 33.5172 25.8106C34.0167 26.6845 33.8718 27.6106 33.1626 28.1749C32.2986 28.8661 31.0746 28.6249 30.4905 27.6349C29.9064 26.6449 29.3295 25.6279 28.7508 24.6235C28.4943 24.1789 28.2351 23.7361 27.9849 23.2888C27.9084 23.1529 27.8436 23.0953 27.6582 23.1259C25.4766 23.4859 23.5839 22.9126 22.0575 21.2962C20.9199 20.0866 20.4096 18.6223 20.4303 17.2345ZM31.6038 17.1445C31.6353 14.3914 29.3538 12.1126 26.5269 12.0685C23.7171 12.0244 21.4221 14.287 21.3861 17.1364C21.3766 17.8076 21.5002 18.474 21.7498 19.0971C21.9994 19.7202 22.3701 20.2876 22.8403 20.7666C23.3106 21.2455 23.8711 21.6265 24.4895 21.8875C25.108 22.1485 25.772 22.2843 26.4432 22.2871C29.316 22.3204 31.5732 20.0704 31.6074 17.1454L31.6038 17.1445ZM32.88 26.7916C32.867 26.6372 32.821 26.4874 32.745 26.3524C31.9305 24.9403 31.1106 23.5309 30.3006 22.1161C30.2214 21.9793 30.1719 21.9811 30.0567 22.0666C29.7314 22.3177 29.3747 22.5253 28.9956 22.684C28.7904 22.7659 28.8066 22.8469 28.9056 23.0134C29.6256 24.2536 30.3456 25.4992 31.0611 26.743C31.1624 26.9328 31.2739 27.1169 31.395 27.2947C31.4996 27.4368 31.6474 27.5413 31.8162 27.5925C31.985 27.6438 32.1659 27.6391 32.3319 27.5791C32.4906 27.5161 32.6274 27.4081 32.7254 27.2683C32.8234 27.1286 32.8784 26.9632 32.8836 26.7925L32.88 26.7916Z" fill="#FF8900"/>
<path d="M11.149 14.7842C11.1593 15.1304 11.0527 15.4699 10.8464 15.7481C10.6402 16.0263 10.3462 16.2269 10.012 16.3177C9.6778 16.4084 9.32276 16.384 9.00411 16.2484C8.68547 16.1127 8.42178 15.8737 8.25554 15.5699C8.08956 15.2712 8.02702 14.926 8.07764 14.5881C8.12827 14.2501 8.28922 13.9384 8.53544 13.7015C8.78349 13.4579 9.1078 13.3071 9.45391 13.2743C9.80002 13.2415 10.1469 13.3288 10.4362 13.5215C10.6225 13.6493 10.7413 13.6448 10.9195 13.535C11.3047 13.2992 11.6977 13.0772 12.0985 12.869C12.2785 12.779 12.3307 12.6665 12.3244 12.4631C12.3034 12.0735 12.4319 11.6905 12.6839 11.3925C12.9358 11.0946 13.2921 10.9042 13.6798 10.8602C14.4565 10.7648 15.1774 11.2814 15.3709 12.0743C15.3928 12.1316 15.4017 12.1931 15.397 12.2543C15.2971 12.6719 15.5374 12.8618 15.8713 13.0076C16.0415 13.0804 16.2034 13.1709 16.3546 13.2776C16.7416 13.5521 17.1052 13.7375 17.5705 13.3838C17.7937 13.2155 18.1177 13.2128 18.4057 13.3028C18.5524 13.3478 18.6271 13.2902 18.709 13.1759C19.471 12.1031 20.2369 11.0336 21.0067 9.96739C21.0467 9.92272 21.0703 9.86574 21.0736 9.80586C21.0769 9.74597 21.0596 9.68676 21.0247 9.63799C20.7034 9.03769 20.7385 8.44999 21.1606 7.91179C21.3506 7.66572 21.6117 7.48411 21.9084 7.39168C22.2052 7.29925 22.5233 7.30047 22.8193 7.39519C23.1194 7.49197 23.3837 7.67607 23.5785 7.92395C23.7733 8.17182 23.8897 8.47218 23.9128 8.78659C24.0028 9.74149 23.0704 10.5731 22.0795 10.3949C22.0193 10.3751 21.9539 10.3771 21.895 10.4006C21.8361 10.4242 21.7874 10.4677 21.7573 10.5236C21.0013 11.5874 20.2444 12.6503 19.4767 13.7069C19.3741 13.8482 19.3867 13.9355 19.4668 14.0795C19.7728 14.6483 19.7278 15.2126 19.3507 15.7319C18.9736 16.2512 18.4219 16.4519 17.8018 16.3277C17.2042 16.2125 16.8118 15.8282 16.6228 15.2351C16.5788 15.1205 16.5636 14.9969 16.5787 14.8751C16.6507 14.5421 16.4698 14.4035 16.2088 14.2721C15.8344 14.084 15.4717 13.8689 15.1126 13.6511C14.9677 13.5611 14.8741 13.5737 14.7328 13.6727C14.4765 13.8566 14.1687 13.9548 13.8533 13.9535C13.5378 13.9523 13.2308 13.8515 12.976 13.6655C12.8293 13.5629 12.7366 13.5755 12.5971 13.6583C12.2191 13.8842 11.8357 14.1083 11.446 14.3099C11.2282 14.4215 11.0464 14.5349 11.149 14.7842ZM14.4691 12.4073C14.4691 12.2452 14.4048 12.0898 14.2902 11.9752C14.1755 11.8606 14.0201 11.7962 13.858 11.7962C13.696 11.7962 13.5405 11.8606 13.4259 11.9752C13.3113 12.0898 13.2469 12.2452 13.2469 12.4073C13.2576 12.5624 13.3239 12.7085 13.4337 12.8187C13.5435 12.9288 13.6894 12.9956 13.8445 13.0067C14.0052 13.0044 14.159 12.9413 14.2749 12.8301C14.3909 12.7188 14.4603 12.5677 14.4691 12.4073ZM10.2166 14.804C10.215 14.6839 10.178 14.5671 10.1101 14.468C10.0422 14.369 9.94649 14.2923 9.83508 14.2475C9.72368 14.2028 9.60152 14.192 9.48399 14.2165C9.36647 14.2411 9.25882 14.2998 9.17462 14.3854C9.09041 14.471 9.03341 14.5795 9.01079 14.6975C8.98817 14.8154 9.00094 14.9373 9.04749 15.048C9.09404 15.1587 9.17229 15.2531 9.2724 15.3194C9.3725 15.3857 9.48998 15.4208 9.61004 15.4205C9.77073 15.4146 9.92306 15.3474 10.0358 15.2328C10.1486 15.1182 10.2133 14.9648 10.2166 14.804ZM22.9588 8.87479C22.9594 8.71511 22.8973 8.56159 22.7859 8.44717C22.6745 8.33276 22.5227 8.26656 22.363 8.26279C22.2007 8.26279 22.0451 8.32727 21.9303 8.44205C21.8155 8.55682 21.751 8.71248 21.751 8.87479C21.751 9.03711 21.8155 9.19277 21.9303 9.30754C22.0451 9.42232 22.2007 9.48679 22.363 9.48679C22.5228 9.48326 22.6747 9.41713 22.7861 9.30267C22.8976 9.1882 22.9596 9.03455 22.9588 8.87479ZM18.7144 14.8094C18.711 14.649 18.6439 14.4965 18.5281 14.3856C18.4122 14.2746 18.257 14.2142 18.0966 14.2176C17.9362 14.2211 17.7837 14.2881 17.6728 14.404C17.5618 14.5199 17.5014 14.6751 17.5048 14.8355C17.5144 14.9906 17.5815 15.1365 17.6931 15.2448C17.8046 15.353 17.9525 15.4156 18.1078 15.4205C18.2688 15.4184 18.4226 15.3532 18.536 15.2389C18.6494 15.1246 18.7135 14.9704 18.7144 14.8094Z" fill="#7D7D7D"/>
<path d="M17.9613 5.60505H7.77424C7.29634 5.60505 7.07764 5.46375 7.06954 5.15505C7.06144 4.84635 7.29364 4.67445 7.78054 4.67445C9.55084 4.67445 11.3211 4.66905 13.0905 4.67985C13.3371 4.67985 13.4505 4.63845 13.4154 4.36755C13.401 4.19325 13.401 4.01806 13.4154 3.84375C13.437 3.08775 13.8654 2.62065 14.616 2.59995C15.531 2.57475 16.4466 2.57475 17.3628 2.59995C18.1251 2.62155 18.5562 3.10935 18.5607 3.87435C18.5607 4.12905 18.4707 4.47195 18.603 4.61775C18.7542 4.78875 19.1043 4.67085 19.3671 4.67085C22.3413 4.67505 25.3155 4.67505 28.2897 4.67085C29.2662 4.67085 29.7963 5.19825 29.7972 6.17115C29.7972 7.50855 29.7972 8.84626 29.7972 10.1843C29.8094 10.3075 29.7956 10.432 29.7567 10.5497C29.6667 10.7639 29.5074 10.8746 29.2725 10.8467C29.1689 10.8424 29.0706 10.7998 28.9966 10.7271C28.9226 10.6544 28.8782 10.5569 28.872 10.4534C28.8602 10.341 28.8551 10.228 28.8567 10.115C28.8567 8.82915 28.8567 7.54276 28.8567 6.25575C28.8567 5.70406 28.7577 5.60415 28.215 5.60415L17.9613 5.60505ZM15.9678 4.67175H16.893C17.6409 4.67175 17.6337 4.67175 17.6337 3.92745C17.6337 3.65745 17.5437 3.53775 17.2566 3.54315C16.5888 3.55575 15.921 3.54315 15.2532 3.54855C14.1993 3.55935 14.3712 3.39015 14.3532 4.46745C14.3532 4.62585 14.3883 4.67985 14.5548 4.67625C15.0228 4.66455 15.4953 4.67175 15.9678 4.67175Z" fill="#7D7D7D"/>
<path d="M12.4449 20.0512C12.4449 19.0312 12.4449 18.0112 12.4449 16.9912C12.4449 16.5097 12.6096 16.3486 13.0974 16.3477C13.6221 16.3477 14.1477 16.3477 14.6724 16.3477C15.0918 16.3477 15.2727 16.5277 15.2727 16.9534C15.2763 19.0216 15.2763 21.0916 15.2727 23.1634C15.2727 23.5846 15.0927 23.7547 14.6643 23.7565C14.1189 23.7565 13.5735 23.7565 13.0281 23.7565C12.6222 23.7565 12.4467 23.5765 12.4458 23.1706C12.4431 22.1302 12.4449 21.0907 12.4449 20.0512ZM13.3836 20.0512V22.1815C13.3836 22.8259 13.3836 22.8115 14.0208 22.8304C14.2908 22.8385 14.3367 22.7476 14.3349 22.501C14.3232 20.9782 14.3295 19.4554 14.3295 17.9326C14.3295 17.2855 14.3295 17.3026 13.6923 17.281C13.4223 17.2738 13.3737 17.371 13.3782 17.6131C13.3926 18.4258 13.3836 19.2385 13.3836 20.0512Z" fill="#7D7D7D"/>
<path d="M11.0184 21.2638C11.0184 21.901 11.0184 22.5391 11.0184 23.1772C11.0184 23.5822 10.8384 23.7532 10.4316 23.7559C9.87657 23.7595 9.32127 23.7595 8.76567 23.7559C8.38137 23.7559 8.19417 23.5759 8.19147 23.1898C8.18487 21.8938 8.18487 20.5975 8.19147 19.3009C8.19147 18.9121 8.37147 18.7258 8.75307 18.7168C9.31827 18.7033 9.88437 18.7042 10.4505 18.7168C10.8501 18.7249 11.0175 18.9121 11.0193 19.3198C11.0202 19.9669 11.0184 20.6149 11.0184 21.2638ZM10.0842 21.2539V20.3593C10.0842 19.6537 10.0842 19.6618 9.37587 19.6645C9.18057 19.6645 9.13647 19.7221 9.13917 19.9075C9.14997 20.6473 9.13917 21.388 9.13917 22.1287C9.13917 22.8694 9.13917 22.8487 9.87717 22.8271C10.0437 22.8208 10.0851 22.7677 10.0824 22.6111C10.0797 22.1593 10.0842 21.7066 10.0842 21.2539Z" fill="#7D7D7D"/>
<path d="M19.5302 21.2341C19.5302 21.8515 19.5302 22.4689 19.5302 23.0854C19.5302 23.5921 19.3682 23.755 18.8723 23.7559C18.3377 23.7559 17.8022 23.7559 17.2676 23.7559C16.8788 23.7559 16.706 23.5759 16.7051 23.1871C16.7051 21.8911 16.7051 20.5948 16.7051 19.2982C16.7051 18.9103 16.8725 18.7258 17.2595 18.7168C17.8247 18.7033 18.3908 18.7042 18.956 18.7168C19.3538 18.7258 19.5248 18.9112 19.5293 19.3225C19.5347 19.9579 19.5302 20.596 19.5302 21.2341ZM17.6339 21.2251V22.1503C17.6339 22.8271 17.6339 22.8181 18.2999 22.8262C18.5105 22.8262 18.5816 22.7785 18.5771 22.5562C18.5627 21.8263 18.5717 21.0955 18.5717 20.3647C18.5717 19.6339 18.5717 19.6501 17.8427 19.6636C17.6555 19.6636 17.6276 19.7356 17.6312 19.8967C17.6402 20.3395 17.6339 20.7823 17.6339 21.2251Z" fill="#7D7D7D"/>
<path d="M22.3498 23.7597C22.0627 23.7597 21.7747 23.7651 21.4867 23.7597C21.1447 23.7516 20.9683 23.5842 20.9629 23.2521C20.9551 22.8201 20.9551 22.3884 20.9629 21.957C20.9692 21.6501 21.1591 21.4665 21.4372 21.4728C21.6991 21.4791 21.8728 21.6636 21.8872 21.9552C21.8872 21.9966 21.8872 22.038 21.8872 22.0785C21.9079 22.3206 21.7756 22.6509 21.9421 22.7823C22.1086 22.9137 22.4119 22.821 22.6567 22.8255C22.8727 22.83 23.0887 22.821 23.3038 22.8327C23.5801 22.8489 23.7493 23.0235 23.7538 23.2764C23.7563 23.3368 23.7468 23.3971 23.7258 23.4538C23.7047 23.5105 23.6726 23.5624 23.6313 23.6066C23.59 23.6507 23.5404 23.6862 23.4852 23.7109C23.4301 23.7357 23.3705 23.7492 23.3101 23.7507C22.9924 23.7651 22.6738 23.7507 22.3543 23.7507L22.3498 23.7597Z" fill="#7D7D7D"/>
<path d="M26.4915 20.6391C28.6227 20.6688 30.2949 18.6519 29.8908 16.5513C29.8244 16.2732 29.7412 15.9994 29.6415 15.7314C29.5416 15.4182 29.6478 15.1518 29.9016 15.0645C30.1554 14.9772 30.3849 15.1005 30.5199 15.3849C31.6899 17.85 30.0969 20.9361 27.4374 21.4842C26.8613 21.604 26.2671 21.6084 25.6893 21.4972C25.1114 21.386 24.5613 21.1614 24.0707 20.8364C23.5802 20.5113 23.1589 20.0923 22.8312 19.6035C22.5035 19.1147 22.276 18.5659 22.1616 17.9886C21.6828 15.6198 23.4216 13.152 25.8174 12.8271C26.9242 12.6579 28.0539 12.9153 28.9782 13.5471C29.3238 13.7784 29.4228 14.0178 29.2671 14.2779C29.1114 14.538 28.8171 14.5731 28.4634 14.3265C28.0642 14.0535 27.6124 13.8668 27.137 13.7783C26.6615 13.6899 26.1728 13.7016 25.7021 13.8127C25.2314 13.9238 24.7891 14.1319 24.4034 14.4237C24.0177 14.7155 23.6971 15.0846 23.4621 15.5073C22.2021 17.8203 23.8392 20.6013 26.4915 20.6391Z" fill="#FF8900"/>
</svg>
