<svg width="60" height="60" viewBox="0 0 60 60" fill="none" xmlns="http://www.w3.org/2000/svg">
<path d="M29.8918 45.1154H10.2103C8.71031 45.1154 8.07281 44.6369 7.71281 43.1654C6.16381 36.8474 4.62031 30.5269 3.08231 24.2039C2.63231 22.3229 3.14981 20.7269 4.67081 19.5344C6.24281 18.3014 7.99481 18.1379 9.75431 19.0844C11.9578 20.2649 14.1268 21.5114 16.2808 22.7804C16.7938 23.0804 16.9813 22.9604 17.2663 22.5209C20.1193 18.1209 22.9833 13.7334 25.8583 9.35842C27.9583 6.14842 31.9183 6.15292 34.0243 9.37042C36.9073 13.7704 39.7838 18.1759 42.6538 22.5869C42.9253 23.0069 43.1038 23.0669 43.5538 22.8014C45.6928 21.5484 47.8493 20.3244 50.0233 19.1294C52.7443 17.6294 56.0323 19.0244 56.8153 21.9794C57.0718 22.9484 56.8873 23.8904 56.6518 24.8414C55.1288 30.9954 53.6143 37.1514 52.1083 43.3094C51.7873 44.6144 51.1243 45.1094 49.7638 45.1094L29.8918 45.1154ZM29.9173 41.1854C35.9283 41.1854 41.9393 41.1854 47.9503 41.1854C48.3133 41.1854 48.5638 41.1749 48.6718 40.7264C50.0648 34.9524 51.4718 29.1834 52.8928 23.4194C52.9858 23.0399 52.9633 22.7519 52.6318 22.5404C52.3003 22.3289 52.0318 22.5044 51.7528 22.6634C49.1238 24.1614 46.4928 25.6569 43.8598 27.1499C42.2368 28.0679 41.3638 27.8504 40.3318 26.2709C37.1218 21.3569 33.9113 16.4419 30.7003 11.5259C30.1438 10.6724 29.7283 10.6769 29.1658 11.5379L19.4293 26.4389C18.5443 27.7889 17.5768 28.0229 16.1638 27.2234C13.5308 25.7324 10.8978 24.2409 8.26481 22.7489C7.92581 22.5569 7.58981 22.2764 7.16831 22.5989C6.74681 22.9214 6.94931 23.3294 7.04081 23.6984C8.40881 29.2829 9.79631 34.8629 11.1433 40.4534C11.2828 41.0279 11.4643 41.2109 12.0748 41.2034C18.0223 41.1734 23.9698 41.1854 29.9173 41.1854Z" fill="#414141"/>
<path d="M29.9369 52.9069H11.9009C11.3699 52.9069 10.8509 52.8844 10.3829 52.5799C9.75288 52.1674 9.35838 51.3634 9.48288 50.6854C9.64338 49.8484 10.1219 49.2739 10.9574 49.0519C11.2439 48.9851 11.5377 48.9549 11.8319 48.9619C23.8999 48.9619 35.9664 48.9619 48.0314 48.9619C49.3034 48.9619 50.0744 49.4809 50.3294 50.5039C50.3883 50.7547 50.3967 51.0148 50.3539 51.2688C50.3111 51.5229 50.218 51.7659 50.0802 51.9835C49.9423 52.2011 49.7624 52.3891 49.5509 52.5363C49.3395 52.6835 49.1008 52.7871 48.8489 52.8409C48.5161 52.8932 48.1791 52.9148 47.8424 52.9054C41.8754 52.9094 35.9069 52.9099 29.9369 52.9069Z" fill="#F6891F"/>
</svg>
