<svg width="61" height="60" viewBox="0 0 61 60" fill="none" xmlns="http://www.w3.org/2000/svg">
<path d="M20.5432 22.067C21.7327 22.067 22.9222 22.067 24.1117 22.067C24.3442 22.067 24.4732 22.0415 24.4672 21.7535C24.4492 20.861 24.4507 19.9685 24.4672 19.0775C24.4672 18.8045 24.3712 18.7505 24.1237 18.752C21.7617 18.759 19.3992 18.759 17.0362 18.752C16.7482 18.752 16.6717 18.842 16.6762 19.118C16.6912 19.9595 16.7002 20.804 16.6762 21.6455C16.6642 22.01 16.7977 22.0775 17.1262 22.073C18.2632 22.0505 19.4032 22.067 20.5432 22.067ZM20.5582 44.315C21.7312 44.315 22.9042 44.306 24.0772 44.3225C24.3772 44.3225 24.4762 44.2535 24.4672 43.94C24.4462 43.082 24.4492 42.2225 24.4672 41.363C24.4672 41.0825 24.3892 41 24.1072 41.0015C21.7612 41.0125 19.4152 41.0125 17.0692 41.0015C16.7692 41.0015 16.6657 41.0675 16.6732 41.3825C16.6942 42.224 16.6942 43.0685 16.6732 43.91C16.6732 44.2355 16.7602 44.33 17.0887 44.324C18.2452 44.303 19.4017 44.315 20.5582 44.315ZM40.8967 41.0075C39.7072 41.0075 38.5177 41.015 37.3282 41.0075C37.0507 41.0075 36.9607 41.081 36.9652 41.366C36.9832 42.242 36.9817 43.118 36.9652 43.9925C36.9652 44.255 37.0432 44.327 37.3012 44.327C39.6642 44.318 42.0272 44.318 44.3902 44.327C44.6662 44.327 44.7622 44.255 44.7562 43.9685C44.7397 43.1105 44.7382 42.2495 44.7562 41.3915C44.7637 41.081 44.6647 41.0015 44.3632 41.006C43.2097 41.018 42.0532 41.0075 40.8967 41.0075ZM20.5357 26.1815C19.3777 26.1815 18.2212 26.1935 17.0632 26.1815C16.7632 26.1815 16.6687 26.2625 16.6747 26.5685C16.6957 27.428 16.6927 28.2875 16.6747 29.147C16.6747 29.4155 16.7617 29.4725 17.0122 29.4725C19.3942 29.4635 21.7757 29.4635 24.1567 29.4725C24.3922 29.4725 24.4672 29.411 24.4567 29.1725C24.4432 28.2965 24.4402 27.419 24.4567 26.543C24.4567 26.2625 24.3802 26.183 24.0997 26.186C22.9177 26.1905 21.7267 26.1815 20.5357 26.1815ZM40.8457 29.459C42.0367 29.459 43.2277 29.459 44.4187 29.459C44.6677 29.459 44.7622 29.405 44.7562 29.135C44.7397 28.2755 44.7382 27.4145 44.7562 26.555C44.7562 26.255 44.6767 26.1665 44.3692 26.168C42.0202 26.181 39.6702 26.181 37.3192 26.168C37.0402 26.168 36.9547 26.243 36.9607 26.525C36.9787 27.385 36.9787 28.245 36.9607 29.105C36.9607 29.387 37.0387 29.462 37.3177 29.459C38.4982 29.4515 39.6667 29.459 40.8457 29.459ZM20.5867 36.9005C21.7612 36.9005 22.9357 36.9005 24.1087 36.9005C24.3367 36.9005 24.4717 36.887 24.4657 36.6005C24.4477 35.7005 24.4507 34.8155 24.4657 33.9215C24.4657 33.6785 24.3922 33.6215 24.1582 33.6215C21.7762 33.6295 19.3947 33.6295 17.0137 33.6215C16.7617 33.6215 16.6732 33.68 16.6777 33.947C16.6942 34.8065 16.6972 35.6675 16.6777 36.527C16.6777 36.8345 16.7632 36.9155 17.0677 36.911C18.2392 36.8825 19.4167 36.9005 20.5867 36.9005ZM40.8967 36.9005C42.0547 36.9005 43.2127 36.89 44.3692 36.908C44.6692 36.908 44.7637 36.827 44.7577 36.5225C44.7382 35.663 44.7397 34.802 44.7577 33.9425C44.7577 33.674 44.6692 33.617 44.4202 33.6185C42.0552 33.6265 39.6902 33.6265 37.3252 33.6185C37.0477 33.6185 36.9622 33.689 36.9682 33.9725C36.9862 34.814 36.9907 35.6585 36.9682 36.5015C36.9592 36.827 37.0522 36.9155 37.3777 36.911C38.5477 36.881 39.7222 36.9005 40.8967 36.9005ZM51.1117 42.8705C50.6617 42.8705 50.2117 42.884 49.7722 42.8705C49.5082 42.86 49.3882 42.917 49.3957 43.2185C49.4152 44.012 49.4092 44.8055 49.3957 45.599C49.3957 45.842 49.4392 45.956 49.7182 45.95C50.6112 45.935 51.5042 45.935 52.3972 45.95C52.6582 45.95 52.6972 45.8435 52.6897 45.626C52.6807 44.816 52.6762 44.0045 52.6897 43.1945C52.6897 42.923 52.5967 42.86 52.3462 42.8705C51.9397 42.8765 51.5257 42.863 51.1117 42.863V42.8705Z" fill="#414141"/>
<path d="M56.1408 51.8998C39.3738 51.8998 22.6063 51.9033 5.83826 51.9103C5.38826 51.9103 5.25626 51.8068 5.27876 51.3538C5.31926 50.5603 5.30426 49.7653 5.27876 48.9703C5.27876 48.6823 5.36726 48.5863 5.64176 48.6238C5.74155 48.633 5.84198 48.633 5.94176 48.6238C6.86276 48.5893 7.78526 48.6958 8.70476 48.5698C8.79026 47.6473 8.73776 46.7233 8.73926 45.8008C8.73926 35.7208 8.73926 25.6408 8.73926 15.5608C8.72005 15.264 8.73972 14.966 8.79776 14.6743C8.97326 14.0278 9.44426 13.6588 10.0773 13.4893C16.7773 11.6893 23.4738 9.89331 30.1668 8.10131C31.4568 7.75631 32.3943 8.49131 32.3958 9.82931C32.3958 11.5678 32.3853 13.3063 32.4063 15.0433C32.4063 15.3958 32.3133 15.4933 31.9683 15.4738C31.1583 15.4468 30.3468 15.4438 29.5368 15.4738C29.1678 15.4873 29.1078 15.3583 29.1153 15.0238C29.1363 13.9513 29.1228 12.8773 29.1228 11.7763L20.8413 13.9963C18.0603 14.7463 15.2808 15.4963 12.4953 16.2313C12.1338 16.3273 12.0123 16.4563 12.0123 16.8493C12.0253 27.2773 12.0253 37.7048 12.0123 48.1318C12.0123 48.5608 12.1368 48.6298 12.5313 48.6298C17.8933 48.6148 23.2563 48.6148 28.6203 48.6298C29.0253 48.6298 29.1348 48.5473 29.1333 48.1273C29.1198 38.9773 29.1333 29.8273 29.1048 20.6683C29.1048 19.4908 29.8773 18.7003 31.0428 18.7048C37.6428 18.7378 44.2518 18.7048 50.8563 18.7048C52.0248 18.7048 52.6788 19.3318 52.6803 20.4958C52.6803 26.8528 52.6833 33.2088 52.6893 39.5638C52.6893 39.8908 52.6038 39.9853 52.2768 39.9763C51.4653 39.9523 50.6538 39.9448 49.8438 39.9763C49.4508 39.9928 49.3938 39.8518 49.3938 39.4978C49.4043 33.8548 49.3938 28.2103 49.4133 22.5658C49.4133 22.0963 49.3188 21.9733 48.8313 21.9748C43.5183 21.9988 38.2053 22.0028 32.8923 21.9868C32.4663 21.9868 32.3913 22.1053 32.3913 22.5043C32.4043 31.0443 32.4043 39.5843 32.3913 48.1243C32.3913 48.4633 32.4093 48.6343 32.8413 48.6328C40.6043 48.6158 48.3673 48.6108 56.1303 48.6178L56.1408 51.8998Z" fill="#414141"/>
<path d="M20.5428 22.0661C19.4028 22.0661 18.2628 22.0541 17.1228 22.0661C16.7928 22.0661 16.6593 22.0031 16.6728 21.6386C16.6998 20.7971 16.6908 19.9526 16.6728 19.1111C16.6728 18.8351 16.7448 18.7436 17.0328 18.7451C19.3958 18.7561 21.7583 18.7561 24.1203 18.7451C24.3678 18.7451 24.4698 18.7976 24.4638 19.0706C24.4488 19.9616 24.4473 20.8541 24.4638 21.7466C24.4638 22.0346 24.3408 22.0616 24.1083 22.0601C22.9218 22.0616 21.7323 22.0661 20.5428 22.0661Z" fill="#F6891F"/>
<path d="M20.5578 44.3145C19.4013 44.3145 18.2448 44.3025 17.0883 44.3235C16.7598 44.3235 16.6653 44.235 16.6728 43.9095C16.6938 43.068 16.6938 42.2235 16.6728 41.382C16.6728 41.067 16.7718 40.9995 17.0688 41.001C19.4148 41.012 21.7608 41.012 24.1068 41.001C24.3888 41.001 24.4713 41.082 24.4668 41.3625C24.4488 42.222 24.4458 43.0815 24.4668 43.9395C24.4758 44.253 24.3768 44.3265 24.0768 44.322C22.9038 44.3055 21.7308 44.3145 20.5578 44.3145Z" fill="#F6891F"/>
<path d="M40.8964 41.0065C42.0529 41.0065 43.2094 41.017 44.3659 40.999C44.6659 40.999 44.7664 41.074 44.7589 41.3845C44.7394 42.2425 44.7409 43.1035 44.7589 43.9615C44.7589 44.248 44.6689 44.3215 44.3929 44.32C42.0289 44.311 39.6659 44.311 37.3039 44.32C37.0459 44.32 36.9634 44.248 36.9679 43.9855C36.9829 43.111 36.9844 42.235 36.9679 41.359C36.9679 41.074 37.0534 40.9975 37.3309 41.0005C38.5174 41.014 39.7069 41.0065 40.8964 41.0065Z" fill="#414141"/>
<path d="M20.5354 26.1814C21.7264 26.1814 22.9174 26.1904 24.1084 26.1814C24.3889 26.1814 24.4714 26.2579 24.4654 26.5384C24.4474 27.4144 24.4504 28.2919 24.4654 29.1679C24.4654 29.4094 24.3949 29.4679 24.1654 29.4679C21.7834 29.4589 19.4019 29.4589 17.0209 29.4679C16.7704 29.4679 16.6774 29.4109 16.6834 29.1424C16.6999 28.2829 16.7029 27.4234 16.6834 26.5639C16.6834 26.2639 16.7644 26.1724 17.0719 26.1769C18.2164 26.1934 19.3774 26.1814 20.5354 26.1814Z" fill="#F6891F"/>
<path d="M40.8456 29.4583C39.6711 29.4583 38.4981 29.4583 37.3236 29.4658C37.0446 29.4658 36.9606 29.3938 36.9666 29.1118C36.9846 28.2518 36.9846 27.3918 36.9666 26.5318C36.9666 26.2498 37.0461 26.1733 37.3251 26.1748C39.6741 26.1848 42.0241 26.1848 44.3751 26.1748C44.6826 26.1748 44.7681 26.2573 44.7621 26.5618C44.7426 27.4213 44.7441 28.2823 44.7621 29.1418C44.7621 29.4118 44.6736 29.4673 44.4246 29.4658C43.2276 29.4523 42.0366 29.4583 40.8456 29.4583Z" fill="#414141"/>
<path d="M20.5866 36.9002C19.4121 36.9002 18.2391 36.8897 17.0646 36.9077C16.7646 36.9077 16.6686 36.8312 16.6746 36.5237C16.6956 35.6642 16.6926 34.8032 16.6746 33.9437C16.6746 33.6767 16.7586 33.6167 17.0106 33.6182C19.3926 33.6262 21.7741 33.6262 24.1551 33.6182C24.3891 33.6182 24.4671 33.6752 24.4626 33.9182C24.4491 34.8182 24.4461 35.7047 24.4626 36.5972C24.4626 36.8972 24.3336 36.9062 24.1056 36.8972C22.9356 36.8897 21.7611 36.9002 20.5866 36.9002Z" fill="#F6891F"/>
<path d="M40.8964 36.8997C39.7219 36.8997 38.5474 36.8877 37.3744 36.9087C37.0489 36.9087 36.9559 36.8247 36.9649 36.4992C36.9889 35.6562 36.9844 34.8117 36.9649 33.9702C36.9649 33.6867 37.0444 33.6147 37.3219 33.6162C39.6869 33.6262 42.0519 33.6262 44.4169 33.6162C44.6659 33.6162 44.7604 33.6717 44.7544 33.9402C44.7379 34.7997 44.7364 35.6607 44.7544 36.5202C44.7544 36.8202 44.6734 36.9117 44.3659 36.9057C43.2124 36.8817 42.0544 36.8997 40.8964 36.8997Z" fill="#414141"/>
<path d="M51.1117 42.8625C51.5257 42.8625 51.9397 42.876 52.3522 42.8625C52.6027 42.852 52.7017 42.915 52.6957 43.1865C52.6792 43.9965 52.6837 44.808 52.6957 45.618C52.6957 45.8355 52.6642 45.9465 52.4032 45.942C51.5112 45.927 50.6182 45.927 49.7242 45.942C49.4452 45.942 49.3972 45.834 49.4017 45.591C49.4122 44.7975 49.4182 44.004 49.4017 43.2105C49.3942 42.9105 49.5142 42.852 49.7782 42.8625C50.2177 42.876 50.6647 42.8625 51.1117 42.8625Z" fill="#414141"/>
</svg>
