<svg width="61" height="60" viewBox="0 0 61 60" fill="none" xmlns="http://www.w3.org/2000/svg">
<path d="M30.4222 16.2642C35.0992 16.2642 39.7747 16.2732 44.4502 16.2642C45.8602 16.2642 46.8637 16.8522 47.5327 18.0972C49.5202 21.7917 51.5302 25.4727 53.5327 29.1612C53.9392 29.9112 53.8147 30.7302 53.2327 31.3782C46.2027 39.1642 39.1762 46.9547 32.1532 54.7497C31.7782 55.1667 31.4437 55.6182 30.8572 55.7577C30.5232 55.8507 30.1694 55.8453 29.8384 55.742C29.5073 55.6388 29.2132 55.4421 28.9912 55.1757C21.8622 47.2517 14.7347 39.3262 7.60873 31.3992C6.88573 30.5937 6.87973 29.8572 7.40623 28.9062C8.91523 26.1852 10.3837 23.4387 11.8597 20.6997C12.3472 19.7997 12.8362 18.8997 13.3147 17.9892C13.9342 16.8162 14.9152 16.2627 16.2277 16.2627L30.4222 16.2642ZM24.5962 44.8497L24.7537 44.9757C24.7661 44.9565 24.7743 44.9349 24.7778 44.9124C24.7813 44.8898 24.78 44.8668 24.7741 44.8447C24.7682 44.8227 24.7577 44.8021 24.7433 44.7844C24.729 44.7666 24.7111 44.7521 24.6907 44.7417C24.6823 44.6679 24.6668 44.595 24.6442 44.5242C23.0022 40.4112 21.3602 36.2992 19.7182 32.1882C19.6102 31.9152 19.4617 31.8492 19.1827 31.8507C17.3332 31.8642 15.4822 31.8507 13.6327 31.8507H12.8827C13.9687 33.0507 14.9617 34.1667 15.9592 35.2722C18.8372 38.4642 21.7162 41.6567 24.5962 44.8497ZM48.8767 28.2597C48.8497 28.177 48.8181 28.0959 48.7822 28.0167C47.3737 25.4112 45.9547 22.8102 44.5642 20.1957C44.3857 19.8612 44.1517 19.8852 43.8742 19.8852C38.3422 19.9002 32.8102 19.9117 27.2782 19.9197C26.9227 19.9197 26.7652 20.0247 26.6332 20.3592C25.6592 22.8372 24.6687 25.3082 23.6617 27.7722C23.4742 28.2222 23.6077 28.2687 24.0292 28.2672C28.2922 28.2537 32.5537 28.2672 36.8152 28.2567C36.9517 28.2567 37.1077 28.3152 37.2547 28.1742L37.1617 27.9252C36.5842 26.4522 35.9932 24.9852 35.4322 23.5062C35.0062 22.3857 35.5822 21.3072 36.7132 21.0282C37.5772 20.8152 38.4322 21.2817 38.8132 22.2057C39.5752 24.0852 40.3132 25.9722 41.0752 27.8547C41.1517 28.0467 41.1772 28.2702 41.5042 28.2672C43.9402 28.2522 46.3837 28.2597 48.8767 28.2597ZM37.2937 31.9092H23.5042C25.7842 37.6272 28.0582 43.3347 30.3907 49.1832L37.2937 31.9092ZM11.9092 28.1997C11.9812 28.2297 12.0112 28.2552 12.0427 28.2552C14.4562 28.2552 16.8682 28.2552 19.2817 28.2672C19.5922 28.2672 19.6447 28.0947 19.7317 27.8862C20.7337 25.3797 21.7327 22.8717 22.7467 20.3697C22.8967 19.9977 22.8967 19.8687 22.4257 19.8747C20.6107 19.8987 18.7962 19.8987 16.9822 19.8747C16.5577 19.8747 16.3252 19.9797 16.1167 20.3742C14.9077 22.6662 13.6642 24.9402 12.4327 27.2217C12.2542 27.5457 12.0847 27.8727 11.9092 28.1997ZM36.0487 44.7447L36.1987 44.8542L47.8987 31.8522C45.6727 31.8522 43.5652 31.8597 41.4577 31.8432C41.1307 31.8432 41.1172 32.0652 41.0392 32.2587L37.3327 41.5497C36.9067 42.6147 36.4787 43.6797 36.0487 44.7447ZM36.0577 44.8737C36.0442 44.8857 36.0202 44.9007 36.0217 44.9097C36.0307 44.9358 36.0423 44.9609 36.0562 44.9847C36.0682 44.9712 36.0922 44.9577 36.0907 44.9472C36.0825 44.9215 36.0715 44.8969 36.0577 44.8737Z" fill="#414141"/>
<path d="M44.0947 6.13987C44.1127 6.41736 44.0541 6.69446 43.9252 6.94087C43.1362 8.50837 42.3622 10.0834 41.5657 11.6464C41.1472 12.4684 40.4557 12.7999 39.5782 12.6514C38.9002 12.5359 38.3302 11.9209 38.1757 11.1514C38.1193 10.7797 38.1896 10.3998 38.3752 10.0729C39.1417 8.51437 39.9232 6.96487 40.7032 5.41237C40.8478 5.09694 41.0804 4.83001 41.3731 4.64373C41.6659 4.45744 42.0062 4.35973 42.3532 4.36237C43.0537 4.33987 43.5532 4.68337 43.9132 5.27287C44.0596 5.53701 44.1228 5.83919 44.0947 6.13987Z" fill="#F6891F"/>
<path d="M22.5483 10.9228C22.5483 11.7598 22.1148 12.3538 21.3318 12.5923C20.5818 12.8233 19.7283 12.5923 19.3683 11.9248C18.4518 10.2148 17.5683 8.48682 16.7433 6.73032C16.3533 5.89932 16.8288 4.87332 17.6223 4.51482C18.4893 4.12482 19.5048 4.41282 19.9473 5.26482C20.8023 6.90282 21.6063 8.56482 22.4358 10.2148C22.5269 10.4391 22.5653 10.6813 22.5483 10.9228Z" fill="#F6891F"/>
<path d="M28.5934 8.50237C28.5934 7.71637 28.5844 6.93187 28.5934 6.14587C28.6084 5.09587 29.3719 4.34587 30.3934 4.34587C30.6277 4.34265 30.8602 4.38636 31.0773 4.47444C31.2944 4.56251 31.4917 4.69316 31.6575 4.85868C31.8233 5.02421 31.9543 5.22125 32.0427 5.4382C32.1311 5.65515 32.1752 5.8876 32.1724 6.12187C32.1874 7.71087 32.1874 9.29987 32.1724 10.8889C32.1932 11.1382 32.1617 11.3891 32.0801 11.6255C31.9984 11.862 31.8684 12.0789 31.6983 12.2623C31.5281 12.4457 31.3217 12.5916 31.092 12.6908C30.8623 12.7899 30.6145 12.8401 30.3643 12.8381C30.1141 12.8361 29.8671 12.782 29.6391 12.6792C29.411 12.5764 29.2068 12.4272 29.0397 12.2411C28.8725 12.055 28.7459 11.8361 28.668 11.5984C28.5902 11.3607 28.5627 11.1093 28.5874 10.8604C28.5844 10.0729 28.5934 9.28687 28.5934 8.50237Z" fill="#F6891F"/>
<path d="M24.6907 44.7363C24.711 44.7467 24.7289 44.7613 24.7433 44.779C24.7576 44.7968 24.7681 44.8173 24.7741 44.8394C24.78 44.8614 24.7813 44.8844 24.7777 44.907C24.7742 44.9296 24.766 44.9511 24.7537 44.9703L24.5962 44.8443L24.6907 44.7363Z" fill="black"/>
<path d="M36.0576 44.8721C36.071 44.8959 36.0821 44.921 36.0906 44.9471C36.0906 44.9576 36.0681 44.9711 36.0561 44.9846C36.0421 44.9608 36.0305 44.9356 36.0216 44.9096C36.0201 44.9006 36.0441 44.8856 36.0576 44.8721Z" fill="black"/>
</svg>
