<svg width="123" height="23" viewBox="0 0 123 23" fill="none" xmlns="http://www.w3.org/2000/svg">
<rect width="23" height="23" fill="#01B298"/>
<path d="M11.5 2L13.7426 8.87539L21 8.87539L15.1287 13.1246L11.5 15.7508L15.4172 14.2914L17.3713 20L11.5 15.7508L5.62868 20L7.87132 13.1246L2 8.87539L9.25735 8.87539L11.5 2Z" fill="white"/>
<rect x="25" width="23" height="23" fill="#01B298"/>
<path d="M36.5 2L38.7426 8.87539L46 8.87539L40.1287 13.1246L36.5 15.7508L40.4172 14.2914L42.3713 20L36.5 15.7508L30.6287 20L32.8713 13.1246L27 8.87539L34.2574 8.87539L36.5 2Z" fill="white"/>
<rect x="50" width="23" height="23" fill="#01B298"/>
<path d="M61.5 2L63.7426 8.87539L71 8.87539L65.1287 13.1246L61.5 15.7508L65.4172 14.2914L67.3713 20L61.5 15.7508L55.6287 20L57.8713 13.1246L52 8.87539L59.2574 8.87539L61.5 2Z" fill="white"/>
<rect x="75" width="23" height="23" fill="#01B298"/>
<path d="M86.5 2L88.7426 8.87539L96 8.87539L90.1287 13.1246L86.5 15.7508L90.4172 14.2914L92.3713 20L86.5 15.7508L80.6287 20L82.8713 13.1246L77 8.87539L84.2574 8.87539L86.5 2Z" fill="white"/>
<rect x="100" width="23" height="23" fill="#01B298"/>
<path d="M111.5 2L113.743 8.87539L121 8.87539L115.129 13.1246L111.5 15.7508L115.417 14.2914L117.371 20L111.5 15.7508L105.629 20L107.871 13.1246L102 8.87539L109.257 8.87539L111.5 2Z" fill="white"/>
</svg>
