<svg width="18" height="19" viewBox="0 0 18 19" fill="none" xmlns="http://www.w3.org/2000/svg">
<g clip-path="url(#clip0_1489_2381)">
<path d="M3.91914 17.2352C3.73914 17.1821 3.55914 17.1375 3.38274 17.0745C2.40984 16.7258 1.72449 15.7695 1.72314 14.7377C1.71924 10.9691 1.71924 7.20017 1.72314 3.43097C1.72314 2.19212 2.66814 1.13102 3.89484 0.95327C4.03126 0.934276 4.16886 0.925102 4.30659 0.92582C6.89199 0.92582 9.47724 0.92582 12.0623 0.92582C13.3223 0.92582 14.3303 1.73942 14.6008 2.97197C14.6338 3.11667 14.651 3.26454 14.6521 3.41297C14.6521 5.67977 14.6521 7.94642 14.6521 10.2129C14.656 10.3696 14.6021 10.5222 14.5008 10.6417C14.3995 10.7613 14.2577 10.8394 14.1025 10.8612C13.9473 10.8829 13.7895 10.8469 13.6592 10.7599C13.5289 10.6729 13.4351 10.541 13.3957 10.3893C13.3756 10.2906 13.3691 10.1896 13.3763 10.0892C13.3763 7.91807 13.3763 5.74682 13.3763 3.57542C13.3763 3.02192 13.1576 2.59217 12.6518 2.33297C12.4602 2.24068 12.2493 2.19548 12.0367 2.20112C9.46719 2.19932 6.89784 2.19932 4.32864 2.20112C3.54834 2.20112 2.99799 2.75417 2.99709 3.53582C2.99439 7.23032 2.99439 10.9248 2.99709 14.6193C2.99709 15.2619 3.34989 15.734 3.94749 15.9081C4.09079 15.9465 4.23882 15.9644 4.38714 15.9612C5.57124 15.9612 6.75504 15.9612 7.93854 15.9612C8.21574 15.9612 8.41599 16.1003 8.52354 16.3514C8.63109 16.6025 8.57844 16.8275 8.40519 17.0318C8.32149 17.1308 8.19909 17.1668 8.09469 17.2343L3.91914 17.2352Z" fill="white"/>
<path d="M11.4685 17.2352C11.383 17.1569 11.2656 17.1641 11.1666 17.1213C10.9618 17.0343 10.7739 16.9118 10.6117 16.7595C9.94797 16.1255 9.28332 15.4923 8.62632 14.8515C8.24067 14.4749 8.39277 13.88 8.90127 13.7513C9.15687 13.6869 9.36477 13.785 9.54837 13.9623C10.1784 14.5707 10.8096 15.1773 11.442 15.7821C11.4947 15.8417 11.5578 15.8913 11.6283 15.9284C11.8038 16.0035 11.968 15.9428 12.1044 15.7524C12.5394 15.1452 12.9744 14.5379 13.4094 13.9304C13.992 13.1165 14.575 12.3027 15.1585 11.4891C15.3772 11.1854 15.7116 11.0981 16.0068 11.2592C16.3623 11.4531 16.4514 11.8757 16.2034 12.2271C15.901 12.6555 15.5932 13.0799 15.2877 13.5065C14.5791 14.4965 13.8705 15.4874 13.1619 16.4792C12.8788 16.8761 12.5197 17.1479 12.0243 17.2122C12.0189 17.2122 12.0153 17.2289 12.0108 17.2374L11.4685 17.2352Z" fill="white"/>
<path d="M8.18225 6.02205C7.08875 6.02205 5.99525 6.02205 4.90175 6.02205C4.74915 6.02362 4.60117 5.96974 4.4853 5.87042C4.36942 5.7711 4.29354 5.6331 4.27175 5.48205C4.24704 5.32313 4.28316 5.16074 4.37291 5.02727C4.46267 4.89381 4.59944 4.79911 4.75595 4.76205C4.81825 4.74928 4.88186 4.74414 4.9454 4.74675C7.1054 4.74675 9.2654 4.74675 11.4254 4.74675C11.8223 4.74675 12.1063 5.01675 12.1036 5.38935C12.1004 5.7534 11.8183 6.01935 11.4286 6.01935C10.3474 6.02175 9.26525 6.02265 8.18225 6.02205Z" fill="white"/>
<path d="M8.18746 8.56948C7.08856 8.56948 5.98966 8.56948 4.89076 8.56948C4.74633 8.56854 4.60655 8.51827 4.49459 8.42702C4.38263 8.33577 4.30521 8.209 4.27516 8.06773C4.2456 7.92565 4.26511 7.77774 4.33051 7.64819C4.3959 7.51863 4.5033 7.41509 4.63516 7.35448C4.72116 7.31364 4.81536 7.29301 4.91056 7.29418C7.09276 7.29418 9.27451 7.29418 11.4558 7.29418C11.541 7.29187 11.6257 7.30678 11.7049 7.33803C11.7842 7.36928 11.8563 7.41621 11.9169 7.47602C11.9775 7.53582 12.0255 7.60727 12.0578 7.68606C12.0902 7.76485 12.1063 7.84936 12.1052 7.93453C12.1052 8.29453 11.8248 8.56948 11.4522 8.56993C10.3638 8.57173 9.27556 8.57158 8.18746 8.56948Z" fill="white"/>
<path d="M6.88031 11.1191C6.23321 11.1191 5.58611 11.1191 4.93901 11.1191C4.54211 11.1191 4.26401 10.8491 4.26761 10.4747C4.26761 10.1089 4.54841 9.84473 4.93811 9.84473C6.24311 9.84473 7.54811 9.84473 8.85311 9.84473C9.25001 9.84473 9.52811 10.1147 9.52811 10.4891C9.52541 10.8545 9.24641 11.1191 8.85626 11.1191C8.19686 11.1203 7.53821 11.1203 6.88031 11.1191Z" fill="white"/>
</g>
<defs>
<clipPath id="clip0_1489_2381">
<rect width="18" height="18" fill="white" transform="translate(0 0.0644531)"/>
</clipPath>
</defs>
</svg>
