<svg width="70" height="70" viewBox="0 0 70 70" fill="none" xmlns="http://www.w3.org/2000/svg">
<path d="M59.1966 46.0715C58.8918 46.3774 58.5295 46.6201 58.1307 46.7858C57.7319 46.9514 57.3042 47.0366 56.8724 47.0366C56.4405 47.0366 56.0129 46.9514 55.6141 46.7858C55.2152 46.6201 54.853 46.3774 54.5482 46.0715L35.0001 26.5235L15.4466 46.0715C14.8302 46.688 13.9941 47.0343 13.1224 47.0343C12.2506 47.0343 11.4146 46.688 10.7982 46.0715C10.1818 45.4551 9.83545 44.6191 9.83545 43.7473C9.83545 42.8756 10.1818 42.0395 10.7982 41.4231L32.6732 19.5481C32.978 19.2422 33.3402 18.9995 33.7391 18.8339C34.1379 18.6683 34.5655 18.583 34.9974 18.583C35.4292 18.583 35.8569 18.6683 36.2557 18.8339C36.6545 18.9995 37.0168 19.2422 37.3216 19.5481L59.1966 41.4231C59.5025 41.7279 59.7452 42.0902 59.9108 42.489C60.0764 42.8878 60.1617 43.3155 60.1617 43.7473C60.1617 44.1792 60.0764 44.6068 59.9108 45.0056C59.7452 45.4045 59.5025 45.7667 59.1966 46.0715Z" fill="white"/>
</svg>
