<svg width="18" height="19" viewBox="0 0 18 19" fill="none" xmlns="http://www.w3.org/2000/svg">
<g clip-path="url(#clip0_1489_2377)">
<path d="M9.00385 15.9414C10.4317 15.9153 11.8519 15.7686 13.206 15.2344C13.6254 15.0693 14.0263 14.8686 14.3562 14.55C14.4478 14.4667 14.5192 14.3637 14.5651 14.2487C14.6109 14.1337 14.63 14.0097 14.6208 13.8862C14.5483 12.4282 14.0263 11.1651 13.0053 10.1157C12.8374 9.9438 12.7146 9.7557 12.7564 9.51C12.8014 9.25305 12.9463 9.07125 13.2042 8.9943C13.4544 8.9196 13.6668 8.99025 13.8468 9.16935C14.5017 9.81727 15.0191 10.5908 15.3678 11.4436C15.676 12.1983 15.8281 12.9831 15.8794 13.7962C15.9321 14.6319 15.5586 15.2362 14.92 15.7132C14.1712 16.2735 13.309 16.5795 12.414 16.7973C10.7895 17.1928 9.14335 17.2855 7.48105 17.1199C6.23815 16.9966 5.0254 16.7527 3.886 16.2199C3.60933 16.0891 3.34462 15.9343 3.0949 15.7573C2.33665 15.2232 1.9969 14.5135 2.0869 13.5735C2.2498 11.8882 2.8798 10.4316 4.0633 9.2184C4.282 8.9934 4.5583 8.9322 4.80985 9.04605C4.92946 9.09936 5.02936 9.18879 5.09554 9.30178C5.16172 9.41477 5.19085 9.54565 5.17885 9.67605C5.1676 9.84795 5.0821 9.98205 4.9642 10.1017C4.165 10.9069 3.63019 11.9365 3.43105 13.0533C3.38598 13.3365 3.35594 13.6219 3.34105 13.9083C3.32125 14.1558 3.41215 14.3533 3.58225 14.5225C3.9706 14.9095 4.45615 15.1282 4.96015 15.31C6.262 15.7821 7.61785 15.9211 9.00385 15.9414Z" fill="#080807"/>
<path d="M4.59229 5.28451C4.59117 4.70842 4.70374 4.13777 4.92356 3.60527C5.14338 3.07276 5.46612 2.58887 5.87329 2.18132C6.28046 1.77378 6.76405 1.45059 7.29635 1.23028C7.82866 1.00997 8.3992 0.89687 8.97529 0.897463C11.4318 0.897463 13.3668 2.85046 13.3686 5.33356C13.3686 7.70776 11.3886 9.67291 8.99554 9.67291C8.41779 9.67564 7.84519 9.56411 7.3107 9.34472C6.77621 9.12533 6.29038 8.80242 5.88115 8.39457C5.47192 7.98672 5.14737 7.50198 4.92618 6.96824C4.70499 6.43449 4.59152 5.86228 4.59229 5.28451ZM5.84644 5.28451C5.85589 7.01341 7.26889 8.42416 8.98384 8.41696C9.39684 8.41496 9.80539 8.33162 10.1862 8.17171C10.567 8.01179 10.9125 7.77844 11.2031 7.48496C11.4937 7.19149 11.7236 6.84365 11.8798 6.46131C12.0359 6.07897 12.1152 5.66961 12.1131 5.25661C12.1023 3.54166 10.6709 2.13811 8.94739 2.15161C7.24909 2.16376 5.83744 3.58981 5.84644 5.28451Z" fill="#080807"/>
</g>
<defs>
<clipPath id="clip0_1489_2377">
<rect width="18" height="18" fill="white" transform="translate(0 0.0644531)"/>
</clipPath>
</defs>
</svg>
