<svg width="19" height="18" viewBox="0 0 19 18" fill="none" xmlns="http://www.w3.org/2000/svg">
<g clip-path="url(#clip0_514_392)">
<path d="M17.3061 6.20111V11.8608C17.2314 11.9485 17.2539 12.0615 17.2296 12.1623C16.8435 13.7823 15.5146 14.8623 13.8546 14.8686C10.6371 14.8785 7.41957 14.8717 4.20252 14.8717C3.59232 14.8717 3.01497 14.7331 2.49252 14.4217C1.34997 13.7391 0.771268 12.7216 0.752818 11.3937C0.741118 10.5387 0.750118 9.68006 0.752818 8.82326C0.752818 8.03621 0.733019 7.24826 0.761369 6.46256C0.790463 5.589 1.15352 4.75989 1.77573 4.14605C2.39794 3.53221 3.2319 3.18042 4.10577 3.16316C4.75197 3.14786 5.39907 3.15821 6.04572 3.15821C8.63292 3.15821 11.2198 3.15821 13.8064 3.15821C15.4881 3.15821 16.8106 4.20356 17.2228 5.83526C17.2512 5.95766 17.2305 6.09086 17.3061 6.20111ZM6.75672 9.03071C6.75672 9.73661 6.75672 10.4428 6.75672 11.1493C6.75672 11.4139 6.86247 11.4828 7.09917 11.3703L11.4516 9.29441C11.5416 9.25166 11.6356 9.20666 11.6397 9.09416C11.6437 8.97311 11.5461 8.92496 11.452 8.87726C10.003 8.14406 8.55432 7.41041 7.10592 6.67631C6.86337 6.55346 6.75672 6.62096 6.75627 6.89636C6.75627 7.60796 6.75642 8.31941 6.75672 9.03071Z" fill="white"/>
</g>
<defs>
<clipPath id="clip0_514_392">
<rect width="18" height="18" fill="white" transform="translate(0.0107422 -0.00146484)"/>
</clipPath>
</defs>
</svg>
